<?xml version="1.0" encoding="UTF-8" standalone="no"?>
<!-- Created with Inkscape (http://www.inkscape.org/) -->

<svg
   xmlns:dc="http://purl.org/dc/elements/1.1/"
   xmlns:cc="http://creativecommons.org/ns#"
   xmlns:rdf="http://www.w3.org/1999/02/22-rdf-syntax-ns#"
   xmlns:svg="http://www.w3.org/2000/svg"
   xmlns="http://www.w3.org/2000/svg"
   xmlns:sodipodi="http://sodipodi.sourceforge.net/DTD/sodipodi-0.dtd"
   xmlns:inkscape="http://www.inkscape.org/namespaces/inkscape"
   width="258.26501mm"
   height="362.26782mm"
   viewBox="0 0 258.26501 362.26782"
   version="1.1"
   id="svg8"
   inkscape:version="0.92.4 (unknown)"
   sodipodi:docname="bot_shelf.svg">
  <defs
     id="defs2">
    <marker
       style="overflow:visible"
       refY="0"
       refX="0"
       orient="auto"
       id="DistanceX">
      <path
         id="path836"
         style="stroke:#000000;stroke-width:0.5"
         d="M 3,-3 -3,3 M 0,-5 V 5"
         inkscape:connector-curvature="0" />
    </marker>
    <pattern
       y="0"
       x="0"
       width="8"
       patternUnits="userSpaceOnUse"
       id="Hatch"
       height="8">
      <path
         id="path839"
         stroke-width="0.25"
         stroke="#000000"
         linecap="square"
         d="M8 4 l-4,4" />
      <path
         id="path841"
         stroke-width="0.25"
         stroke="#000000"
         linecap="square"
         d="M6 2 l-4,4" />
      <path
         id="path843"
         stroke-width="0.25"
         stroke="#000000"
         linecap="square"
         d="M4 0 l-4,4" />
    </pattern>
  </defs>
  <sodipodi:namedview
     id="base"
     pagecolor="#ffffff"
     bordercolor="#666666"
     borderopacity="1.0"
     inkscape:pageopacity="0.0"
     inkscape:pageshadow="2"
     inkscape:zoom="0.49497475"
     inkscape:cx="528.24667"
     inkscape:cy="549.80298"
     inkscape:document-units="mm"
     inkscape:current-layer="layer1"
     showgrid="false"
     fit-margin-top="0"
     fit-margin-left="0"
     fit-margin-right="0"
     fit-margin-bottom="0"
     inkscape:window-width="1849"
     inkscape:window-height="1170"
     inkscape:window-x="71"
     inkscape:window-y="30"
     inkscape:window-maximized="1" />
  <metadata
     id="metadata5">
    <rdf:RDF>
      <cc:Work
         rdf:about="">
        <dc:format>image/svg+xml</dc:format>
        <dc:type
           rdf:resource="http://purl.org/dc/dcmitype/StillImage" />
        <dc:title></dc:title>
      </cc:Work>
    </rdf:RDF>
  </metadata>
  <g
     inkscape:label="Layer 1"
     inkscape:groupmode="layer"
     id="layer1"
     transform="translate(-103.70083,-113.59962)">
    <path
       inkscape:connector-curvature="0"
       d="m 122.83333,475.73212 h 220 v 0 l 0.746,-0.0151 v 1e-4 l 0.745,-0.044 v 0 l 0.742,-0.073 v 0 l 0.739,-0.102 v 0 l 0.735,-0.13102 v 0 l 0.728,-0.16 v 0 l 0.722,-0.18798 v 0 l 0.714,-0.21701 v 0 l 0.705,-0.244 v 0 l 0.695,-0.27199 v 0 l 0.684,-0.29901 v 0 l 0.671,-0.32599 v 0 l 0.658,-0.352 v 0 l 0.643,-0.37701 v 0 l 0.629,-0.40201 v 0 l 0.612,-0.42698 v 0 l 0.595,-0.45 v 0 l 0.577,-0.473 v 0 l 0.557,-0.49601 v 0 l 0.538,-0.517 v 0 l 0.517,-0.538 v 0 l 0.496,-0.557 v 0 l 0.473,-0.57701 v 0 l 0.45,-0.59499 v 0 l 0.427,-0.61201 v 0 l 0.402,-0.62899 v 0 l 0.377,-0.643 v 0 l 0.352,-0.65799 v 0 l 0.326,-0.67101 v 0 l 0.299,-0.684 v 0 l 0.272,-0.69501 v 0 l 0.244,-0.70498 v 0 l 0.217,-0.714 v 0 l 0.188,-0.722 v 0 l 0.16,-0.728 v 0 l 0.131,-0.73501 v 0 l 0.102,-0.73901 v 0 l 0.073,-0.742 v 0 l 0.044,-0.74498 v 0 l 0.015,-0.746 v 0 -324.00001 0 l -0.015,-0.746 v 0 l -0.044,-0.74499 v 0 l -0.073,-0.74201 v 0 l -0.102,-0.739 v 0 l -0.131,-0.735 v 0 l -0.16,-0.72799 v 0 l -0.188,-0.722 v 0 l -0.217,-0.71401 v 0 l -0.244,-0.70499 v 0 l -0.272,-0.695 v 0 l -0.299,-0.684 v 0 l -0.326,-0.671 v 0 l -0.352,-0.658 v 0 l -0.377,-0.64301 v 0 l -0.402,-0.62899 v 0 l -0.427,-0.612 v 0 l -0.45,-0.595 v 0 l -0.473,-0.57701 v 0 l -0.496,-0.557 v 0 l -0.517,-0.53799 v 0 l -0.538,-0.51701 v 0 l -0.557,-0.49599 v 0 l -0.577,-0.473 v 0 l -0.595,-0.45001 v 0 l -0.612,-0.427 v 0 l -0.629,-0.402 v 0 l -0.643,-0.377 v 0 l -0.658,-0.35199 v 0 l -0.671,-0.32601 v 0 l -0.684,-0.299 v 0 l -0.695,-0.272 v 0 l -0.705,-0.24399 v 0 l -0.714,-0.217 v 0 l -0.722,-0.188 v 0 l -0.728,-0.16001 v 0 l -0.735,-0.13099 v 0 l -0.739,-0.10201 v 0 l -0.742,-0.073 v 1e-5 l -0.745,-0.044 v 0 l -0.746,-0.015 v 0 h -220 v 0 l -0.746,0.015 v 0 l -0.745,0.044 v 0 l -0.742,0.073 v -1e-5 l -0.739,0.10201 v 0 l -0.735,0.13099 v 0 l -0.728,0.16001 v 0 l -0.722,0.188 v 0 l -0.714,0.217 v 0 l -0.705,0.24399 v 0 l -0.695,0.272 v 0 l -0.684,0.299 v 0 l -0.671,0.32601 v 0 l -0.658,0.35199 v 0 l -0.643,0.377 v 0 l -0.629,0.402 v 0 l -0.612,0.427 v 0 l -0.595,0.45001 v 0 l -0.577,0.473 v 0 l -0.557,0.49599 v 0 l -0.538,0.51701 v 0 l -0.517,0.53799 v 0 l -0.496,0.557 v 0 l -0.473,0.57701 v 0 l -0.45,0.595 v 0 l -0.427,0.612 v 0 l -0.402,0.62899 v 0 l -0.377,0.64301 v 0 l -0.352,0.658 v 0 l -0.326,0.671 v 0 l -0.299,0.684 v 0 l -0.272,0.695 v 0 l -0.244,0.70499 v 0 l -0.217,0.71401 v 0 l -0.188,0.722 v 0 l -0.16,0.72799 v 0 l -0.131,0.735 v 0 l -0.102,0.739 v 0 l -0.073,0.74201 v 0 l -0.044,0.74499 v 0 l -0.015,0.746 v 0 324.00001 0 l 0.015,0.746 v 0 l 0.044,0.74498 v 0 l 0.073,0.742 v 0 l 0.102,0.73901 v 0 l 0.131,0.73501 v 0 l 0.16,0.728 v 0 l 0.188,0.722 v 0 l 0.217,0.714 v 0 l 0.244,0.70498 v 0 l 0.272,0.69501 v 0 l 0.299,0.684 v 0 l 0.326,0.67101 v 0 l 0.352,0.65799 v 0 l 0.377,0.643 v 0 l 0.402,0.62899 v 0 l 0.427,0.61201 v 0 l 0.45,0.59499 v 0 l 0.473,0.57701 v 0 l 0.496,0.557 v 0 l 0.517,0.538 v 0 l 0.538,0.517 v 0 l 0.557,0.49601 v 0 l 0.577,0.473 v 0 l 0.595,0.45 v 0 l 0.612,0.42698 v 0 l 0.629,0.40201 v 0 l 0.643,0.37701 v 0 l 0.658,0.352 v 0 l 0.671,0.32599 v 0 l 0.684,0.29901 v 0 l 0.695,0.27199 v 0 l 0.705,0.244 v 0 l 0.714,0.21701 v 0 l 0.722,0.18798 v 0 l 0.728,0.16 v 0 l 0.735,0.13102 v 0 l 0.739,0.102 v 0 l 0.742,0.073 v 0 l 0.745,0.044 v 0 l 0.746,0.0151 z"
       style="fill:none;stroke:#0000f4;stroke-width:0.26499999;stroke-miterlimit:4;stroke-dasharray:none;stroke-opacity:1"
       id="path1172"
       sodipodi:nodetypes="ccccccccccccccccccccccccccccccccccccccccccccccccccccccccccccccccccccccccccccccccccccccccccccccccccccccccccccccccccccccccccccccccccccccccccccccccccccccccccccccccccccccccccccccccccccccccccccccccccccccccccccccccccccccccccccccccccccccccccccccccccccccccccccccccccccccccccccccccccccccccccccccccccccccccccccccccccccccccccccccccccccccccc" />
    <g
       id="g9297"
       style="stroke-width:0.26499999;stroke-miterlimit:4;stroke-dasharray:none;stroke:#ff0000;stroke-opacity:1">
      <g
         id="g9215"
         style="stroke-width:0.26499999;stroke-miterlimit:4;stroke-dasharray:none;stroke:#ff0000;stroke-opacity:1">
        <path
           inkscape:connector-curvature="0"
           d="m 133.93333,132.73211 -0.009,0.436 h 4e-4 l -0.0256,0.43501 v 0 l -0.0427,0.43399 v 0 l -0.0598,0.431 v 0 l -0.0766,0.43001 v 0 l -0.0934,0.425 v 0 l -0.11,0.422 v 0 l -0.1266,0.41699 v 0 l -0.1428,0.412 v 0 l -0.1588,0.406 v 0 l -0.1747,0.399 v 0 l -0.1904,0.392 v 0 l -0.205,0.38501 v 0 l -0.221,0.37599 v 0 l -0.235,0.36701 v 0 l -0.249,0.357 v 0 l -0.263,0.34799 v 0 l -0.276,0.33701 v 0 l -0.29,0.32599 v 0 l -0.302,0.314 v 0 l -0.314,0.302 v 0 l -0.326,0.29 v 0 l -0.337,0.276 v 0 l -0.348,0.26301 v 0 l -0.357,0.24899 v 0 l -0.367,0.235 v 0 l -0.376,0.22101 v 0 l -0.385,0.205 v 0 l -0.392,0.19 v 0 l -0.399,0.175 v 0 l -0.406,0.15899 v 0 l -0.412,0.143 v 0 l -0.417,0.126 v 0 l -0.422,0.11 v 0 l -0.425,0.094 v 1e-5 l -0.43,0.076 v -1e-5 l -0.431,0.06 v 0 l -0.434,0.043 v 0 l -0.435,0.025 v 0 l -0.436,0.009 v 1e-5 l -0.436,-0.009 v -10e-6 l -0.435,-0.025 v 0 l -0.434,-0.043 v 0 l -0.431,-0.06 v 0 l -0.429,-0.076 v 1e-5 l -0.426,-0.094 v -10e-6 l -0.422,-0.11 v 0 l -0.417,-0.126 v 0 l -0.412,-0.143 v 0 l -0.406,-0.15899 v 0 l -0.399,-0.175 v 0 l -0.392,-0.19 v 0 l -0.385,-0.205 v 0 l -0.376,-0.22101 v 0 l -0.367,-0.235 v 0 l -0.357,-0.24899 v 0 l -0.348,-0.26301 v 0 l -0.337,-0.276 v 0 l -0.326,-0.29 v 0 l -0.314,-0.302 v 0 l -0.302,-0.314 v 0 l -0.29,-0.32599 v 0 l -0.276,-0.33701 v 0 l -0.263,-0.34799 v 0 l -0.249,-0.357 v 0 l -0.235,-0.36701 v 0 l -0.221,-0.37599 v 0 l -0.205,-0.38501 v 0 l -0.19,-0.392 v 0 l -0.175,-0.399 v 0 l -0.159,-0.406 v 0 l -0.143,-0.412 v 0 l -0.126,-0.41699 v 0 l -0.11,-0.422 v 0 l -0.094,-0.425 v 0 l -0.076,-0.43001 v 0 l -0.06,-0.431 v 0 l -0.043,-0.43399 v 0 l -0.025,-0.43501 v 0 l -0.009,-0.436 v 0 l 0.009,-0.43599 v 0 l 0.025,-0.43501 v 0 l 0.043,-0.43399 v 0 l 0.06,-0.43101 v 0 l 0.076,-0.429 v 0 l 0.094,-0.426 v 0 l 0.11,-0.422 v 0 l 0.126,-0.417 v 0 l 0.143,-0.41199 v 0 l 0.159,-0.406 v 0 l 0.175,-0.399 v 0 l 0.19,-0.39201 v 0 l 0.205,-0.385 v 0 l 0.221,-0.376 v 0 l 0.235,-0.367 v 0 l 0.249,-0.357 v 0 l 0.263,-0.34799 v 0 l 0.276,-0.337 v 0 l 0.29,-0.32601 v 0 l 0.302,-0.31399 v 0 l 0.314,-0.30201 v 0 l 0.326,-0.28999 v 0 l 0.337,-0.276 v 0 l 0.348,-0.26301 v 0 l 0.357,-0.249 v 0 l 0.367,-0.235 v 0 l 0.376,-0.22099 v 0 l 0.385,-0.20501 v 0 l 0.392,-0.19 v 0 l 0.399,-0.17499 v 0 l 0.406,-0.15901 v 0 l 0.412,-0.14299 v 0 l 0.417,-0.126 v 0 l 0.422,-0.11 v 0 l 0.426,-0.094 v -10e-6 l 0.429,-0.076 v 0 l 0.431,-0.06 v 1e-5 l 0.434,-0.043 v 0 l 0.435,-0.025 v -1e-5 l 0.436,-0.009 v 0 l 0.436,0.009 v 0 l 0.435,0.025 v 1e-5 l 0.434,0.043 v 0 l 0.431,0.06 v -1e-5 l 0.43,0.076 v 0 l 0.425,0.094 v 1e-5 l 0.422,0.11 v 0 l 0.417,0.126 v 0 l 0.412,0.14299 v 0 l 0.406,0.15901 v 0 l 0.399,0.17499 v 0 l 0.392,0.19 v 0 l 0.385,0.20501 v 0 l 0.376,0.22099 v 0 l 0.367,0.235 v 0 l 0.357,0.249 v 0 l 0.348,0.26301 v 0 l 0.337,0.276 v 0 l 0.326,0.28999 v 0 l 0.314,0.30201 v 0 l 0.302,0.31399 v 0 l 0.29,0.32601 v 0 l 0.276,0.337 v 0 l 0.263,0.34799 v 0 l 0.249,0.357 v 0 l 0.235,0.367 v 0 l 0.221,0.376 v 0 l 0.205,0.385 v 0 l 0.1904,0.39201 v 0 l 0.1747,0.399 v 0 l 0.1588,0.406 v 0 l 0.1428,0.41199 v 0 l 0.1266,0.417 v 0 l 0.11,0.422 v 0 l 0.0934,0.426 v 0 l 0.0766,0.429 v 0 l 0.0598,0.43101 v 0 l 0.0427,0.43399 v 0 l 0.0256,0.43501 v 0 l 0.009,0.43599 z"
           style="fill:none;stroke:#ff0000;stroke-width:0.26499999;stroke-miterlimit:4;stroke-dasharray:none;stroke-opacity:1"
           id="path1414"
           sodipodi:nodetypes="ccccccccccccccccccccccccccccccccccccccccccccccccccccccccccccccccccccccccccccccccccccccccccccccccccccccccccccccccccccccccccccccccccccccccccccccccccccccccccccccccccccccccccccccccccccccccccccccccccccccccccccccccccccccccccccccccccccccccccccccccccccccccccccccccccccccccccccccccccccccccccccccccccccccccccccccccccccccccccccccccc" />
        <path
           inkscape:connector-curvature="0"
           d="m 153.30803,128.84911 -0.4739,-0.24199 v 0 l -0.3761,-0.376 v 0 l -0.2415,-0.47401 v 0 l -0.0832,-0.52499 v 0 l 0.0832,-0.525 v 0 l 0.2415,-0.47401 v 0 l 0.3761,-0.37599 v 0 l 0.4739,-0.24201 v 0 l 0.5253,-0.083 v 0 l 0.5253,0.083 v 0 l 0.4739,0.24201 v 0 l 0.3761,0.37599 v 0 l 0.2415,0.47401 v 0 l 0.0832,0.525 v 0 l -0.0832,0.52499 v 0 l -0.2415,0.47401 v 0 l -0.3761,0.376 v 0 l -0.4739,0.24199 v 0 l -0.5253,0.083 v 1e-5 l -0.5253,-0.083 z"
           style="fill:none;stroke:#ff0000;stroke-width:0.26499999;stroke-miterlimit:4;stroke-dasharray:none;stroke-opacity:1"
           id="path1816"
           sodipodi:nodetypes="ccccccccccccccccccccccccccccccccccccccccc" />
        <path
           inkscape:connector-curvature="0"
           d="m 167.83333,128.93212 -0.5253,-0.083 v -1e-5 l -0.4739,-0.24199 v 0 l -0.3761,-0.376 v 0 l -0.2415,-0.47401 v 0 l -0.0832,-0.52499 v 0 l 0.0832,-0.525 v 0 l 0.2415,-0.47401 v 0 l 0.3761,-0.37599 v 0 l 0.4739,-0.24201 v 0 l 0.5253,-0.083 v 0 l 0.5253,0.083 v 0 l 0.4739,0.24201 v 0 l 0.3761,0.37599 v 0 l 0.2415,0.47401 v 0 l 0.0832,0.525 v 0 l -0.0832,0.52499 v 0 l -0.2415,0.47401 v 0 l -0.3761,0.376 v 0 l -0.4739,0.24199 v 0 l -0.5253,0.083 z"
           style="fill:none;stroke:#ff0000;stroke-width:0.26499999;stroke-miterlimit:4;stroke-dasharray:none;stroke-opacity:1"
           id="path1974"
           sodipodi:nodetypes="ccccccccccccccccccccccccccccccccccccccccc" />
        <path
           inkscape:connector-curvature="0"
           d="m 153.83333,143.93211 -0.5253,-0.083 v 1e-5 l -0.4739,-0.24201 v 0 l -0.3761,-0.376 v 0 l -0.2415,-0.474 v 0 l -0.0832,-0.525 v 0 l 0.0832,-0.525 v 0 l 0.2415,-0.474 v 0 l 0.3761,-0.376 v 0 l 0.4739,-0.24199 v 0 l 0.5253,-0.083 v 0 l 0.5253,0.083 v 0 l 0.4739,0.24199 v 0 l 0.3761,0.376 v 0 l 0.2415,0.474 v 0 l 0.0832,0.525 v 0 l -0.0832,0.525 v 0 l -0.2415,0.474 v 0 l -0.3761,0.376 v 0 l -0.4739,0.24201 v 0 l -0.5253,0.083 z"
           style="fill:none;stroke:#ff0000;stroke-width:0.26499999;stroke-miterlimit:4;stroke-dasharray:none;stroke-opacity:1"
           id="path2094"
           sodipodi:nodetypes="ccccccccccccccccccccccccccccccccccccccccc" />
        <path
           inkscape:connector-curvature="0"
           d="m 167.30803,143.84912 -0.4739,-0.24201 v 0 l -0.3761,-0.376 v 0 l -0.2415,-0.474 v 0 l -0.0832,-0.525 v 0 l 0.0832,-0.525 v 0 l 0.2415,-0.474 v 0 l 0.3761,-0.376 v 0 l 0.4739,-0.24199 v 0 l 0.5253,-0.083 v 0 l 0.5253,0.083 v 0 l 0.4739,0.24199 v 0 l 0.3761,0.376 v 0 l 0.2415,0.474 v 0 l 0.0832,0.525 v 0 l -0.0832,0.525 v 0 l -0.2415,0.474 v 0 l -0.3761,0.376 v 0 l -0.4739,0.24201 v 0 l -0.5253,0.083 v -1e-5 l -0.5253,-0.083 z"
           style="fill:none;stroke:#ff0000;stroke-width:0.26499999;stroke-miterlimit:4;stroke-dasharray:none;stroke-opacity:1"
           id="path2096"
           sodipodi:nodetypes="ccccccccccccccccccccccccccccccccccccccccc" />
        <path
           inkscape:connector-curvature="0"
           d="m 167.35983,166.60311 -0.0257,0.435 v 0 l -0.0427,0.434 v 0 l -0.0597,0.431 v 0 l -0.0767,0.43 v 0 l -0.0934,0.425 v 0 l -0.11,0.422 v 0 l -0.1265,0.417 v 0 l -0.1428,0.412 v 0 l -0.1589,0.406 v 0 l -0.1747,0.399 v 0 l -0.1902,0.392 v 0 l -0.2055,0.385 v 0 l -0.2204,0.376 v 0 l -0.2349,0.367 v 0 l -0.2493,0.357 v 0 l -0.263,0.348 v 0 l -0.2766,0.337 v 0 l -0.2895,0.32601 v 0 l -0.3021,0.314 v 0 l -0.3142,0.30199 v 0 l -0.3258,0.29001 v 0 l -0.3369,0.276 v 0 l -0.3475,0.26299 v 0 l -0.3576,0.249 v 0 l -0.3671,0.235 v 0 l -0.3761,0.221 v 0 l -0.3844,0.205 v 0 l -0.3921,0.19 v 0 l -0.3994,0.175 v 0 l -0.4059,0.159 v 0 l -0.4118,0.14301 v 0 l -0.4171,0.12599 v 0 l -0.4217,0.11 v 0 l -0.4258,0.094 v 0 l -0.429,0.076 v 0 l -0.4318,0.06 v 1e-5 l -0.4338,0.043 v 0 l -0.4351,0.025 v -1e-5 l -0.4358,0.009 v 0 l -0.4357,-0.009 v 0 l -0.4352,-0.025 v 1e-5 l -0.4337,-0.043 v 0 l -0.4318,-0.06 v -1e-5 l -0.4291,-0.076 v 0 l -0.4257,-0.094 v 0 l -0.4218,-0.11 v 0 l -0.4171,-0.12599 v 0 l -0.4118,-0.14301 v 0 l -0.4058,-0.159 v 0 l -0.3994,-0.175 v 0 l -0.3922,-0.19 v 0 l -0.3844,-0.205 v 0 l -0.376,-0.221 v 0 l -0.3671,-0.235 v 0 l -0.3576,-0.249 v 0 l -0.3475,-0.26299 v 0 l -0.3369,-0.276 v 0 l -0.3259,-0.29001 v 0 l -0.3141,-0.30199 v 0 l -0.3021,-0.314 v 0 l -0.2896,-0.32601 v 0 l -0.2765,-0.337 v 0 l -0.2631,-0.348 v 0 l -0.2492,-0.357 v 0 l -0.235,-0.367 v 0 l -0.2204,-0.376 v 0 l -0.2054,-0.385 v 0 l -0.1903,-0.392 v 0 l -0.1746,-0.399 v 0 l -0.1589,-0.406 v 0 l -0.1428,-0.412 v 0 l -0.1265,-0.417 v 0 l -0.1101,-0.422 v 0 l -0.0934,-0.425 v 0 l -0.0766,-0.43 v 0 l -0.0597,-0.431 v 0 l -0.0428,-0.434 v 0 l -0.0256,-0.435 v 0 l -0.009,-0.436 h 4e-4 l 0.009,-0.436 h -4e-4 l 0.0256,-0.43499 v 0 l 0.0428,-0.43401 v 0 l 0.0597,-0.431 v 0 l 0.0766,-0.42899 v 0 l 0.0934,-0.42601 v 0 l 0.1101,-0.422 v 0 l 0.1265,-0.417 v 0 l 0.1428,-0.412 v 0 l 0.1589,-0.406 v 0 l 0.1746,-0.399 v 0 l 0.1903,-0.392 v 0 l 0.2054,-0.38499 v 0 l 0.2204,-0.37601 v 0 l 0.235,-0.367 v 0 l 0.2492,-0.35699 v 0 l 0.2631,-0.34801 v 0 l 0.2765,-0.337 v 0 l 0.2896,-0.326 v 0 l 0.3021,-0.314 v 0 l 0.3141,-0.302 v 0 l 0.3259,-0.289 v 0 l 0.3369,-0.277 v 0 l 0.3475,-0.26299 v 0 l 0.3576,-0.249 v 0 l 0.3671,-0.235 v 0 l 0.376,-0.22101 v 0 l 0.3844,-0.20499 v 0 l 0.3922,-0.19 v 0 l 0.3994,-0.17501 v 0 l 0.4058,-0.159 v 0 l 0.4118,-0.143 v 0 l 0.4171,-0.126 v 0 l 0.4218,-0.11 v 0 l 0.4257,-0.094 v 1e-5 l 0.4291,-0.076 v -1e-5 l 0.4318,-0.06 v 0 l 0.4337,-0.043 v 0 l 0.4352,-0.025 v 0 l 0.4357,-0.009 v 0 l 0.4358,0.009 v 0 l 0.4351,0.025 v 0 l 0.4338,0.043 v 0 l 0.4318,0.06 v 0 l 0.429,0.076 v 1e-5 l 0.4258,0.094 v -1e-5 l 0.4217,0.11 v 0 l 0.4171,0.126 v 0 l 0.4118,0.143 v 0 l 0.4059,0.159 v 0 l 0.3994,0.17501 v 0 l 0.3921,0.19 v 0 l 0.3844,0.20499 v 0 l 0.3761,0.22101 v 0 l 0.3671,0.235 v 0 l 0.3576,0.249 v 0 l 0.3475,0.26299 v 0 l 0.3369,0.277 v 0 l 0.3258,0.289 v 0 l 0.3142,0.302 v 0 l 0.3021,0.314 v 0 l 0.2895,0.326 v 0 l 0.2766,0.337 v 0 l 0.263,0.34801 v 0 l 0.2493,0.35699 v 0 l 0.2349,0.367 v 0 l 0.2204,0.37601 v 0 l 0.2055,0.38499 v 0 l 0.1902,0.392 v 0 l 0.1747,0.399 v 0 l 0.1589,0.406 v 0 l 0.1428,0.412 v 0 l 0.1265,0.417 v 0 l 0.11,0.422 v 0 l 0.0934,0.42601 v 0 l 0.0767,0.42899 v 0 l 0.0597,0.431 v 0 l 0.0427,0.43401 v 0 l 0.0257,0.43499 v 0 l 0.008,0.436 h 5e-4 l -0.008,0.436 z"
           style="fill:none;stroke:#ff0000;stroke-width:0.26499999;stroke-miterlimit:4;stroke-dasharray:none;stroke-opacity:1"
           id="path2696"
           sodipodi:nodetypes="ccccccccccccccccccccccccccccccccccccccccccccccccccccccccccccccccccccccccccccccccccccccccccccccccccccccccccccccccccccccccccccccccccccccccccccccccccccccccccccccccccccccccccccccccccccccccccccccccccccccccccccccccccccccccccccccccccccccccccccccccccccccccccccccccccccccccccccccccccccccccccccccccccccccccccccccccccccccccccccccccc" />
        <path
           inkscape:connector-curvature="0"
           d="m 118.70833,164.73111 -0.376,0.37601 v 0 l -0.474,0.24199 v 0 l -0.525,0.083 v 0 l -0.525,-0.083 v 0 l -0.474,-0.24199 v 0 l -0.376,-0.37601 v 0 l -0.242,-0.47399 v 0 l -0.083,-0.52501 v 0 l 0.083,-0.525 v 0 l 0.242,-0.47399 v 0 l 0.376,-0.37601 v 0 l 0.474,-0.242 v 0 l 0.525,-0.083 v 0 l 0.525,0.083 v 0 l 0.474,0.242 v 0 l 0.376,0.37601 v 0 l 0.242,0.47399 v 0 l 0.083,0.525 v 0 l -0.083,0.52501 v 0 z"
           style="fill:none;stroke:#ff0000;stroke-width:0.26499999;stroke-miterlimit:4;stroke-dasharray:none;stroke-opacity:1"
           id="path2808"
           sodipodi:nodetypes="ccccccccccccccccccccccccccccccccccccccccc" />
        <path
           inkscape:connector-curvature="0"
           d="m 131.80833,162.11511 0.525,-0.083 v 0 l 0.5253,0.083 v 0 l 0.4739,0.242 v 0 l 0.3761,0.37601 v 0 l 0.2415,0.47399 v 0 l 0.0832,0.525 v 0 l -0.0832,0.52501 v 0 l -0.2415,0.47399 v 0 l -0.3761,0.37601 v 0 l -0.4739,0.24199 v 0 l -0.5253,0.083 v 0 l -0.525,-0.083 v 0 l -0.474,-0.24199 v 0 l -0.376,-0.37601 v 0 l -0.242,-0.47399 v 0 l -0.083,-0.52501 v 0 l 0.083,-0.525 v 0 l 0.242,-0.47399 v 0 l 0.376,-0.37601 v 0 z"
           style="fill:none;stroke:#ff0000;stroke-width:0.26499999;stroke-miterlimit:4;stroke-dasharray:none;stroke-opacity:1"
           id="path2912"
           sodipodi:nodetypes="ccccccccccccccccccccccccccccccccccccccccc" />
        <path
           inkscape:connector-curvature="0"
           d="m 131.80833,179.34912 -0.474,-0.24201 v 0 l -0.376,-0.376 v 0 l -0.242,-0.474 v 0 l -0.083,-0.525 v 0 l 0.083,-0.525 v 0 l 0.242,-0.474 v 0 l 0.376,-0.376 v 0 l 0.474,-0.24199 v 0 l 0.525,-0.083 v -1e-5 l 0.5253,0.083 v 1e-5 l 0.4739,0.24199 v 0 l 0.3761,0.376 v 0 l 0.2415,0.474 v 0 l 0.0832,0.525 v 0 l -0.0832,0.525 v 0 l -0.2415,0.474 v 0 l -0.3761,0.376 v 0 l -0.4739,0.24201 v 0 l -0.5253,0.083 v -1e-5 l -0.525,-0.083 z"
           style="fill:none;stroke:#ff0000;stroke-width:0.26499999;stroke-miterlimit:4;stroke-dasharray:none;stroke-opacity:1"
           id="path2936"
           sodipodi:nodetypes="ccccccccccccccccccccccccccccccccccccccccc" />
        <path
           inkscape:connector-curvature="0"
           d="m 116.80833,179.34912 -0.474,-0.24201 v 0 l -0.376,-0.376 v 0 l -0.242,-0.474 v 0 l -0.083,-0.525 v 0 l 0.083,-0.525 v 0 l 0.242,-0.474 v 0 l 0.376,-0.376 v 0 l 0.474,-0.24199 v 0 l 0.525,-0.083 v -1e-5 l 0.525,0.083 v 1e-5 l 0.474,0.24199 v 0 l 0.376,0.376 v 0 l 0.242,0.474 v 0 l 0.083,0.525 v 0 l -0.083,0.525 v 0 l -0.242,0.474 v 0 l -0.376,0.376 v 0 l -0.474,0.24201 v 0 l -0.525,0.083 v -1e-5 l -0.525,-0.083 z"
           style="fill:none;stroke:#ff0000;stroke-width:0.26499999;stroke-miterlimit:4;stroke-dasharray:none;stroke-opacity:1"
           id="path3016"
           sodipodi:nodetypes="ccccccccccccccccccccccccccccccccccccccccc" />
      </g>
      <g
         id="g9227"
         style="stroke-width:0.26499999;stroke-miterlimit:4;stroke-dasharray:none;stroke:#ff0000;stroke-opacity:1">
        <path
           inkscape:connector-curvature="0"
           d="m 331.74193,132.29612 0.0256,-0.43501 v 0 l 0.0427,-0.43399 v 0 l 0.0598,-0.43101 v 0 l 0.0766,-0.429 v 0 l 0.0934,-0.426 v 0 l 0.11,-0.422 v 0 l 0.1266,-0.417 v 0 l 0.1428,-0.41199 v 0 l 0.1588,-0.406 v 0 l 0.1747,-0.399 v 0 l 0.1904,-0.39201 v 0 l 0.205,-0.385 v 0 l 0.221,-0.376 v 0 l 0.235,-0.367 v 0 l 0.249,-0.357 v 0 l 0.263,-0.34799 v 0 l 0.276,-0.337 v 0 l 0.29,-0.32601 v 0 l 0.302,-0.31399 v 0 l 0.314,-0.30201 v 0 l 0.326,-0.28999 v 0 l 0.337,-0.276 v 0 l 0.348,-0.26301 v 0 l 0.357,-0.249 v 0 l 0.367,-0.235 v 0 l 0.376,-0.22099 v 0 l 0.385,-0.20501 v 0 l 0.392,-0.19 v 0 l 0.399,-0.17499 v 0 l 0.406,-0.15901 v 0 l 0.412,-0.14299 v 0 l 0.417,-0.126 v 0 l 0.422,-0.11 v 0 l 0.425,-0.094 v -10e-6 l 0.43,-0.076 v 0 l 0.431,-0.06 v 1e-5 l 0.434,-0.043 v 0 l 0.435,-0.025 v -1e-5 l 0.436,-0.009 v 0 l 0.436,0.009 v 0 l 0.435,0.025 v 1e-5 l 0.434,0.043 v 0 l 0.431,0.06 v -1e-5 l 0.429,0.076 v 0 l 0.426,0.094 v 1e-5 l 0.422,0.11 v 0 l 0.417,0.126 v 0 l 0.412,0.14299 v 0 l 0.406,0.15901 v 0 l 0.399,0.17499 v 0 l 0.392,0.19 v 0 l 0.385,0.20501 v 0 l 0.376,0.22099 v 0 l 0.367,0.235 v 0 l 0.357,0.249 v 0 l 0.348,0.26301 v 0 l 0.337,0.276 v 0 l 0.326,0.28999 v 0 l 0.314,0.30201 v 0 l 0.302,0.31399 v 0 l 0.29,0.32601 v 0 l 0.276,0.337 v 0 l 0.263,0.34799 v 0 l 0.249,0.357 v 0 l 0.235,0.367 v 0 l 0.221,0.376 v 0 l 0.205,0.385 v 0 l 0.19,0.39201 v 0 l 0.175,0.399 v 0 l 0.159,0.406 v 0 l 0.143,0.41199 v 0 l 0.126,0.417 v 0 l 0.11,0.422 v 0 l 0.094,0.426 v 0 l 0.076,0.429 v 0 l 0.06,0.43101 v 0 l 0.043,0.43399 v 0 l 0.025,0.43501 v 0 l 0.009,0.43599 v 0 l -0.009,0.436 v 0 l -0.025,0.43501 v 0 l -0.043,0.43399 v 0 l -0.06,0.431 v 0 l -0.076,0.43001 v 0 l -0.094,0.425 v 0 l -0.11,0.422 v 0 l -0.126,0.41699 v 0 l -0.143,0.412 v 0 l -0.159,0.406 v 0 l -0.175,0.399 v 0 l -0.19,0.392 v 0 l -0.205,0.38501 v 0 l -0.221,0.37599 v 0 l -0.235,0.36701 v 0 l -0.249,0.357 v 0 l -0.263,0.34799 v 0 l -0.276,0.33701 v 0 l -0.29,0.32599 v 0 l -0.302,0.314 v 0 l -0.314,0.302 v 0 l -0.326,0.29 v 0 l -0.337,0.276 v 0 l -0.348,0.26301 v 0 l -0.357,0.24899 v 0 l -0.367,0.235 v 0 l -0.376,0.22101 v 0 l -0.385,0.205 v 0 l -0.392,0.19 v 0 l -0.399,0.175 v 0 l -0.406,0.15899 v 0 l -0.412,0.143 v 0 l -0.417,0.126 v 0 l -0.422,0.11 v 0 l -0.426,0.094 v 1e-5 l -0.429,0.076 v -1e-5 l -0.431,0.06 v 0 l -0.434,0.043 v 0 l -0.435,0.025 v 0 l -0.436,0.009 v 1e-5 l -0.436,-0.009 v -10e-6 l -0.435,-0.025 v 0 l -0.434,-0.043 v 0 l -0.431,-0.06 v 0 l -0.43,-0.076 v 1e-5 l -0.425,-0.094 v -10e-6 l -0.422,-0.11 v 0 l -0.417,-0.126 v 0 l -0.412,-0.143 v 0 l -0.406,-0.15899 v 0 l -0.399,-0.175 v 0 l -0.392,-0.19 v 0 l -0.385,-0.205 v 0 l -0.376,-0.22101 v 0 l -0.367,-0.235 v 0 l -0.357,-0.24899 v 0 l -0.348,-0.26301 v 0 l -0.337,-0.276 v 0 l -0.326,-0.29 v 0 l -0.314,-0.302 v 0 l -0.302,-0.314 v 0 l -0.29,-0.32599 v 0 l -0.276,-0.33701 v 0 l -0.263,-0.34799 v 0 l -0.249,-0.357 v 0 l -0.235,-0.36701 v 0 l -0.221,-0.37599 v 0 l -0.205,-0.38501 v 0 l -0.1904,-0.392 v 0 l -0.1747,-0.399 v 0 l -0.1588,-0.406 v 0 l -0.1428,-0.412 v 0 l -0.1266,-0.41699 v 0 l -0.11,-0.422 v 0 l -0.0934,-0.425 v 0 l -0.0766,-0.43001 v 0 l -0.0598,-0.431 v 0 l -0.0427,-0.43399 v 0 l -0.0256,-0.43501 v 0 l -0.009,-0.436 h 4e-4 l 0.009,-0.43599 z"
           style="fill:none;stroke:#ff0000;stroke-width:0.26499999;stroke-miterlimit:4;stroke-dasharray:none;stroke-opacity:1"
           id="path1576"
           sodipodi:nodetypes="ccccccccccccccccccccccccccccccccccccccccccccccccccccccccccccccccccccccccccccccccccccccccccccccccccccccccccccccccccccccccccccccccccccccccccccccccccccccccccccccccccccccccccccccccccccccccccccccccccccccccccccccccccccccccccccccccccccccccccccccccccccccccccccccccccccccccccccccccccccccccccccccccccccccccccccccccccccccccccccccccc" />
        <path
           inkscape:connector-curvature="0"
           d="m 311.30803,128.84911 -0.4739,-0.24199 v 0 l -0.3761,-0.376 v 0 l -0.2415,-0.47401 v 0 l -0.0832,-0.52499 v 0 l 0.0832,-0.525 v 0 l 0.2415,-0.47401 v 0 l 0.3761,-0.37599 v 0 l 0.4739,-0.24201 v 0 l 0.5253,-0.083 v 0 l 0.5253,0.083 v 0 l 0.4739,0.24201 v 0 l 0.3761,0.37599 v 0 l 0.2415,0.47401 v 0 l 0.0832,0.525 v 0 l -0.0832,0.52499 v 0 l -0.2415,0.47401 v 0 l -0.3761,0.376 v 0 l -0.4739,0.24199 v 0 l -0.5253,0.083 v 1e-5 l -0.5253,-0.083 z"
           style="fill:none;stroke:#ff0000;stroke-width:0.26499999;stroke-miterlimit:4;stroke-dasharray:none;stroke-opacity:1"
           id="path1856"
           sodipodi:nodetypes="ccccccccccccccccccccccccccccccccccccccccc" />
        <path
           inkscape:connector-curvature="0"
           d="m 297.30803,128.84911 -0.4739,-0.24199 v 0 l -0.3761,-0.376 v 0 l -0.2415,-0.47401 v 0 l -0.0832,-0.52499 v 0 l 0.0832,-0.525 v 0 l 0.2415,-0.47401 v 0 l 0.3761,-0.37599 v 0 l 0.4739,-0.24201 v 0 l 0.5253,-0.083 v 0 l 0.5253,0.083 v 0 l 0.4739,0.24201 v 0 l 0.3761,0.37599 v 0 l 0.2415,0.47401 v 0 l 0.0832,0.525 v 0 l -0.0832,0.52499 v 0 l -0.2415,0.47401 v 0 l -0.3761,0.376 v 0 l -0.4739,0.24199 v 0 l -0.5253,0.083 v 1e-5 l -0.5253,-0.083 z"
           style="fill:none;stroke:#ff0000;stroke-width:0.26499999;stroke-miterlimit:4;stroke-dasharray:none;stroke-opacity:1"
           id="path1896"
           sodipodi:nodetypes="ccccccccccccccccccccccccccccccccccccccccc" />
        <path
           inkscape:connector-curvature="0"
           d="m 311.83333,143.93211 -0.5253,-0.083 v 1e-5 l -0.4739,-0.24201 v 0 l -0.3761,-0.376 v 0 l -0.2415,-0.474 v 0 l -0.0832,-0.525 v 0 l 0.0832,-0.525 v 0 l 0.2415,-0.474 v 0 l 0.3761,-0.376 v 0 l 0.4739,-0.24199 v 0 l 0.5253,-0.083 v 0 l 0.5253,0.083 v 0 l 0.4739,0.24199 v 0 l 0.3761,0.376 v 0 l 0.2415,0.474 v 0 l 0.0832,0.525 v 0 l -0.0832,0.525 v 0 l -0.2415,0.474 v 0 l -0.3761,0.376 v 0 l -0.4739,0.24201 v 0 l -0.5253,0.083 z"
           style="fill:none;stroke:#ff0000;stroke-width:0.26499999;stroke-miterlimit:4;stroke-dasharray:none;stroke-opacity:1"
           id="path2014"
           sodipodi:nodetypes="ccccccccccccccccccccccccccccccccccccccccc" />
        <path
           inkscape:connector-curvature="0"
           d="m 297.83333,143.93211 -0.5253,-0.083 v 1e-5 l -0.4739,-0.24201 v 0 l -0.3761,-0.376 v 0 l -0.2415,-0.474 v 0 l -0.0832,-0.525 v 0 l 0.0832,-0.525 v 0 l 0.2415,-0.474 v 0 l 0.3761,-0.376 v 0 l 0.4739,-0.24199 v 0 l 0.5253,-0.083 v 0 l 0.5253,0.083 v 0 l 0.4739,0.24199 v 0 l 0.3761,0.376 v 0 l 0.2415,0.474 v 0 l 0.0832,0.525 v 0 l -0.0832,0.525 v 0 l -0.2415,0.474 v 0 l -0.3761,0.376 v 0 l -0.4739,0.24201 v 0 l -0.5253,0.083 z"
           style="fill:none;stroke:#ff0000;stroke-width:0.26499999;stroke-miterlimit:4;stroke-dasharray:none;stroke-opacity:1"
           id="path2054"
           sodipodi:nodetypes="ccccccccccccccccccccccccccccccccccccccccc" />
        <path
           inkscape:connector-curvature="0"
           d="m 298.30683,165.73111 0.0257,-0.43499 v 0 l 0.0427,-0.43401 v 0 l 0.0597,-0.431 v 0 l 0.0767,-0.42899 v 0 l 0.0934,-0.42601 v 0 l 0.11,-0.422 v 0 l 0.1265,-0.417 v 0 l 0.1428,-0.412 v 0 l 0.1589,-0.406 v 0 l 0.1747,-0.399 v 0 l 0.1902,-0.392 v 0 l 0.2055,-0.38499 v 0 l 0.2204,-0.37601 v 0 l 0.2349,-0.367 v 0 l 0.2493,-0.35699 v 0 l 0.263,-0.34801 v 0 l 0.2766,-0.337 v 0 l 0.2895,-0.326 v 0 l 0.3021,-0.314 v 0 l 0.3142,-0.302 v 0 l 0.3258,-0.289 v 0 l 0.3369,-0.277 v 0 l 0.3475,-0.26299 v 0 l 0.3576,-0.249 v 0 l 0.3671,-0.235 v 0 l 0.3761,-0.22101 v 0 l 0.3844,-0.20499 v 0 l 0.3921,-0.19 v 0 l 0.3994,-0.17501 v 0 l 0.4059,-0.159 v 0 l 0.4118,-0.143 v 0 l 0.4171,-0.126 v 0 l 0.4217,-0.11 v 0 l 0.4258,-0.094 v 1e-5 l 0.429,-0.076 v -1e-5 l 0.4318,-0.06 v 0 l 0.4338,-0.043 v 0 l 0.4351,-0.025 v 0 l 0.4358,-0.009 v 0 l 0.4357,0.009 v 0 l 0.4352,0.025 v 0 l 0.4337,0.043 v 0 l 0.4318,0.06 v 0 l 0.4291,0.076 v 1e-5 l 0.4257,0.094 v -1e-5 l 0.4218,0.11 v 0 l 0.4171,0.126 v 0 l 0.4118,0.143 v 0 l 0.4058,0.159 v 0 l 0.3994,0.17501 v 0 l 0.3922,0.19 v 0 l 0.3844,0.20499 v 0 l 0.376,0.22101 v 0 l 0.3671,0.235 v 0 l 0.3576,0.249 v 0 l 0.3475,0.26299 v 0 l 0.3369,0.277 v 0 l 0.3259,0.289 v 0 l 0.3141,0.302 v 0 l 0.3021,0.314 v 0 l 0.2896,0.326 v 0 l 0.2765,0.337 v 0 l 0.2631,0.34801 v 0 l 0.2492,0.35699 v 0 l 0.235,0.367 v 0 l 0.2204,0.37601 v 0 l 0.2054,0.38499 v 0 l 0.1903,0.392 v 0 l 0.1746,0.399 v 0 l 0.1589,0.406 v 0 l 0.1428,0.412 v 0 l 0.1265,0.417 v 0 l 0.1101,0.422 v 0 l 0.0934,0.42601 v 0 l 0.0766,0.42899 v 0 l 0.0597,0.431 v 0 l 0.0428,0.43401 v 0 l 0.0256,0.43499 v 0 l 0.009,0.436 h -4e-4 l -0.009,0.436 h 4e-4 l -0.0256,0.435 v 0 l -0.0428,0.434 v 0 l -0.0597,0.431 v 0 l -0.0766,0.43 v 0 l -0.0934,0.425 v 0 l -0.1101,0.422 v 0 l -0.1265,0.417 v 0 l -0.1428,0.412 v 0 l -0.1589,0.406 v 0 l -0.1746,0.399 v 0 l -0.1903,0.392 v 0 l -0.2054,0.385 v 0 l -0.2204,0.376 v 0 l -0.235,0.367 v 0 l -0.2492,0.357 v 0 l -0.2631,0.348 v 0 l -0.2765,0.337 v 0 l -0.2896,0.32601 v 0 l -0.3021,0.314 v 0 l -0.3141,0.30199 v 0 l -0.3259,0.29001 v 0 l -0.3369,0.276 v 0 l -0.3475,0.26299 v 0 l -0.3576,0.249 v 0 l -0.3671,0.235 v 0 l -0.376,0.221 v 0 l -0.3844,0.205 v 0 l -0.3922,0.19 v 0 l -0.3994,0.175 v 0 l -0.4058,0.159 v 0 l -0.4118,0.14301 v 0 l -0.4171,0.12599 v 0 l -0.4218,0.11 v 0 l -0.4257,0.094 v 0 l -0.4291,0.076 v 0 l -0.4318,0.06 v 1e-5 l -0.4337,0.043 v 0 l -0.4352,0.025 v -1e-5 l -0.4357,0.009 v 0 l -0.4358,-0.009 v 0 l -0.4351,-0.025 v 1e-5 l -0.4338,-0.043 v 0 l -0.4318,-0.06 v -1e-5 l -0.429,-0.076 v 0 l -0.4258,-0.094 v 0 l -0.4217,-0.11 v 0 l -0.4171,-0.12599 v 0 l -0.4118,-0.14301 v 0 l -0.4059,-0.159 v 0 l -0.3994,-0.175 v 0 l -0.3921,-0.19 v 0 l -0.3844,-0.205 v 0 l -0.3761,-0.221 v 0 l -0.3671,-0.235 v 0 l -0.3576,-0.249 v 0 l -0.3475,-0.26299 v 0 l -0.3369,-0.276 v 0 l -0.3258,-0.29001 v 0 l -0.3142,-0.30199 v 0 l -0.3021,-0.314 v 0 l -0.2895,-0.32601 v 0 l -0.2766,-0.337 v 0 l -0.263,-0.348 v 0 l -0.2493,-0.357 v 0 l -0.2349,-0.367 v 0 l -0.2204,-0.376 v 0 l -0.2055,-0.385 v 0 l -0.1902,-0.392 v 0 l -0.1747,-0.399 v 0 l -0.1589,-0.406 v 0 l -0.1428,-0.412 v 0 l -0.1265,-0.417 v 0 l -0.11,-0.422 v 0 l -0.0934,-0.425 v 0 l -0.0767,-0.43 v 0 l -0.0597,-0.431 v 0 l -0.0427,-0.434 v 0 l -0.0257,-0.435 v 0 l -0.008,-0.436 h -5e-4 l 0.008,-0.436 z"
           style="fill:none;stroke:#ff0000;stroke-width:0.26499999;stroke-miterlimit:4;stroke-dasharray:none;stroke-opacity:1"
           id="path2216"
           sodipodi:nodetypes="ccccccccccccccccccccccccccccccccccccccccccccccccccccccccccccccccccccccccccccccccccccccccccccccccccccccccccccccccccccccccccccccccccccccccccccccccccccccccccccccccccccccccccccccccccccccccccccccccccccccccccccccccccccccccccccccccccccccccccccccccccccccccccccccccccccccccccccccccccccccccccccccccccccccccccccccccccccccccccccccccc" />
        <path
           inkscape:connector-curvature="0"
           d="m 349.95033,164.25712 -0.242,0.47399 v 0 l -0.376,0.37601 v 0 l -0.474,0.24199 v 0 l -0.525,0.083 v 0 l -0.525,-0.083 v 0 l -0.474,-0.24199 v 0 l -0.376,-0.37601 v 0 l -0.242,-0.47399 v 0 l -0.083,-0.52501 v 0 l 0.083,-0.525 v 0 l 0.242,-0.47399 v 0 l 0.376,-0.37601 v 0 l 0.474,-0.242 v 0 l 0.525,-0.083 v 0 l 0.525,0.083 v 0 l 0.474,0.242 v 0 l 0.376,0.37601 v 0 l 0.242,0.47399 v 0 l 0.083,0.525 v 0 z"
           style="fill:none;stroke:#ff0000;stroke-width:0.26499999;stroke-miterlimit:4;stroke-dasharray:none;stroke-opacity:1"
           id="path2846"
           sodipodi:nodetypes="ccccccccccccccccccccccccccccccccccccccccc" />
        <path
           inkscape:connector-curvature="0"
           d="m 332.80803,162.11511 0.5253,-0.083 v 0 l 0.525,0.083 v 0 l 0.474,0.242 v 0 l 0.376,0.37601 v 0 l 0.242,0.47399 v 0 l 0.083,0.525 v 0 l -0.083,0.52501 v 0 l -0.242,0.47399 v 0 l -0.376,0.37601 v 0 l -0.474,0.24199 v 0 l -0.525,0.083 v 0 l -0.5253,-0.083 v 0 l -0.4739,-0.24199 v 0 l -0.3761,-0.37601 v 0 l -0.2415,-0.47399 v 0 l -0.0832,-0.52501 v 0 l 0.0832,-0.525 v 0 l 0.2415,-0.47399 v 0 l 0.3761,-0.37601 v 0 z"
           style="fill:none;stroke:#ff0000;stroke-width:0.26499999;stroke-miterlimit:4;stroke-dasharray:none;stroke-opacity:1"
           id="path2872"
           sodipodi:nodetypes="ccccccccccccccccccccccccccccccccccccccccc" />
        <path
           inkscape:connector-curvature="0"
           d="m 348.33333,179.43211 -0.525,-0.083 v 1e-5 l -0.474,-0.24201 v 0 l -0.376,-0.376 v 0 l -0.242,-0.474 v 0 l -0.083,-0.525 v 0 l 0.083,-0.525 v 0 l 0.242,-0.474 v 0 l 0.376,-0.376 v 0 l 0.474,-0.24199 v 0 l 0.525,-0.083 v -1e-5 l 0.525,0.083 v 1e-5 l 0.474,0.24199 v 0 l 0.376,0.376 v 0 l 0.242,0.474 v 0 l 0.083,0.525 v 0 l -0.083,0.525 v 0 l -0.242,0.474 v 0 l -0.376,0.376 v 0 l -0.474,0.24201 v 0 l -0.525,0.083 z"
           style="fill:none;stroke:#ff0000;stroke-width:0.26499999;stroke-miterlimit:4;stroke-dasharray:none;stroke-opacity:1"
           id="path3014"
           sodipodi:nodetypes="ccccccccccccccccccccccccccccccccccccccccc" />
        <path
           inkscape:connector-curvature="0"
           d="m 333.33333,179.43211 -0.5253,-0.083 v 1e-5 l -0.4739,-0.24201 v 0 l -0.3761,-0.376 v 0 l -0.2415,-0.474 v 0 l -0.0832,-0.525 v 0 l 0.0832,-0.525 v 0 l 0.2415,-0.474 v 0 l 0.3761,-0.376 v 0 l 0.4739,-0.24199 v 0 l 0.5253,-0.083 v -1e-5 l 0.525,0.083 v 1e-5 l 0.474,0.24199 v 0 l 0.376,0.376 v 0 l 0.242,0.474 v 0 l 0.083,0.525 v 0 l -0.083,0.525 v 0 l -0.242,0.474 v 0 l -0.376,0.376 v 0 l -0.474,0.24201 v 0 l -0.525,0.083 z"
           style="fill:none;stroke:#ff0000;stroke-width:0.26499999;stroke-miterlimit:4;stroke-dasharray:none;stroke-opacity:1"
           id="path3094"
           sodipodi:nodetypes="ccccccccccccccccccccccccccccccccccccccccc" />
      </g>
      <g
         id="g9239"
         style="stroke-width:0.26499999;stroke-miterlimit:4;stroke-dasharray:none;stroke:#ff0000;stroke-opacity:1">
        <path
           inkscape:connector-curvature="0"
           d="m 346.95833,412.73112 -0.242,-0.474 v 0 l -0.083,-0.52501 v 0 l 0.083,-0.52499 v 0 l 0.242,-0.474 v 0 l 0.376,-0.376 v 0 l 0.474,-0.24201 v 0 l 0.525,-0.083 v 0 l 0.525,0.083 v 0 l 0.474,0.24201 v 0 l 0.376,0.376 v 0 l 0.242,0.474 v 0 l 0.083,0.52499 v 0 l -0.083,0.52501 v 0 l -0.242,0.474 v 0 l -0.376,0.376 v 0 l -0.474,0.24199 v 0 l -0.525,0.083 v 0 l -0.525,-0.083 v 0 l -0.474,-0.24199 v 0 z"
           style="fill:none;stroke:#ff0000;stroke-width:0.26499999;stroke-miterlimit:4;stroke-dasharray:none;stroke-opacity:1"
           id="path3180"
           sodipodi:nodetypes="ccccccccccccccccccccccccccccccccccccccccc" />
        <path
           inkscape:connector-curvature="0"
           d="m 332.80803,410.11511 0.5253,-0.083 v 0 l 0.525,0.083 v 0 l 0.474,0.24201 v 0 l 0.376,0.376 v 0 l 0.242,0.474 v 0 l 0.083,0.52499 v 0 l -0.083,0.52501 v 0 l -0.242,0.474 v 0 l -0.376,0.376 v 0 l -0.474,0.24199 v 0 l -0.525,0.083 v 0 l -0.5253,-0.083 v 0 l -0.4739,-0.24199 v 0 l -0.3761,-0.376 v 0 l -0.2415,-0.474 v 0 l -0.0832,-0.52501 v 0 l 0.0832,-0.52499 v 0 l 0.2415,-0.474 v 0 l 0.3761,-0.376 v 0 z"
           style="fill:none;stroke:#ff0000;stroke-width:0.26499999;stroke-miterlimit:4;stroke-dasharray:none;stroke-opacity:1"
           id="path3232"
           sodipodi:nodetypes="ccccccccccccccccccccccccccccccccccccccccc" />
        <path
           inkscape:connector-curvature="0"
           d="m 298.29833,423.2971 0.008,-0.43598 h 5e-4 l 0.0257,-0.435 v 0 l 0.0427,-0.434 v 0 l 0.0597,-0.43101 v 0 l 0.0767,-0.43 v 0 l 0.0934,-0.425 v 0 l 0.11,-0.42201 v 0 l 0.1265,-0.41698 v 0 l 0.1428,-0.41201 v 0 l 0.1589,-0.406 v 0 l 0.1747,-0.39899 v 0 l 0.1902,-0.39201 v 0 l 0.2055,-0.385 v 0 l 0.2204,-0.376 v 0 l 0.2349,-0.367 v 0 l 0.2493,-0.357 v 0 l 0.263,-0.34801 v 0 l 0.2766,-0.337 v 0 l 0.2895,-0.32599 v 0 l 0.3021,-0.31401 v 0 l 0.3142,-0.30199 v 0 l 0.3258,-0.28999 v 0 l 0.3369,-0.27601 v 0 l 0.3475,-0.263 v 0 l 0.3576,-0.24899 v 0 l 0.3671,-0.23501 v 0 l 0.3761,-0.221 v 0 l 0.3844,-0.205 v 0 l 0.3921,-0.19 v 0 l 0.3994,-0.175 v 0 l 0.4059,-0.15901 v 0 l 0.4118,-0.14298 v 0 l 0.4171,-0.126 v 0 l 0.4217,-0.11001 v 0 l 0.4258,-0.094 v -10e-6 l 0.429,-0.076 v 2e-5 l 0.4318,-0.06 v -10e-6 l 0.4338,-0.043 v 0 l 0.4351,-0.0249 v -10e-5 l 0.4358,-0.009 v 0 l 0.4357,0.009 v 0 l 0.4352,0.0249 v 10e-5 l 0.4337,0.043 v 0 l 0.4318,0.06 v 10e-6 l 0.4291,0.076 v -2e-5 l 0.4257,0.094 v 1e-5 l 0.4218,0.11001 v 0 l 0.4171,0.126 v 0 l 0.4118,0.14298 v 0 l 0.4058,0.15901 v 0 l 0.3994,0.175 v 0 l 0.3922,0.19 v 0 l 0.3844,0.205 v 0 l 0.376,0.221 v 0 l 0.3671,0.23501 v 0 l 0.3576,0.24899 v 0 l 0.3475,0.263 v 0 l 0.3369,0.27601 v 0 l 0.3259,0.28999 v 0 l 0.3141,0.30199 v 0 l 0.3021,0.31401 v 0 l 0.2896,0.32599 v 0 l 0.2765,0.337 v 0 l 0.2631,0.34801 v 0 l 0.2492,0.357 v 0 l 0.235,0.367 v 0 l 0.2204,0.376 v 0 l 0.2054,0.385 v 0 l 0.1903,0.39201 v 0 l 0.1746,0.39899 v 0 l 0.1589,0.406 v 0 l 0.1428,0.41201 v 0 l 0.1265,0.41698 v 0 l 0.1101,0.42201 v 0 l 0.0934,0.425 v 0 l 0.0766,0.43 v 0 l 0.0597,0.43101 v 0 l 0.0428,0.434 v 0 l 0.0256,0.435 v 0 l 0.009,0.43598 h -4e-4 l -0.009,0.43601 h 4e-4 l -0.0256,0.435 v 0 l -0.0428,0.43399 v 0 l -0.0597,0.43101 v 0 l -0.0766,0.429 v 0 l -0.0934,0.426 v 0 l -0.1101,0.42201 v 0 l -0.1265,0.41698 v 0 l -0.1428,0.41201 v 0 l -0.1589,0.40601 v 0 l -0.1746,0.39899 v 0 l -0.1903,0.39201 v 0 l -0.2054,0.38499 v 0 l -0.2204,0.376 v 0 l -0.235,0.367 v 0 l -0.2492,0.35701 v 0 l -0.2631,0.348 v 0 l -0.2765,0.337 v 0 l -0.2896,0.32599 v 0 l -0.3021,0.31401 v 0 l -0.3141,0.302 v 0 l -0.3259,0.289 v 0 l -0.3369,0.27699 v 0 l -0.3475,0.263 v 0 l -0.3576,0.249 v 0 l -0.3671,0.235 v 0 l -0.376,0.22101 v 0 l -0.3844,0.205 v 0 l -0.3922,0.19 v 0 l -0.3994,0.17499 v 0 l -0.4058,0.15899 v 0 l -0.4118,0.14301 v 0 l -0.4171,0.12599 v 0 l -0.4218,0.11001 v 0 l -0.4257,0.094 v 1e-5 l -0.4291,0.076 v -10e-6 l -0.4318,0.06 v 10e-6 l -0.4337,0.043 v -10e-6 l -0.4352,0.0249 v 10e-5 l -0.4357,0.009 v 0 l -0.4358,-0.009 v 0 l -0.4351,-0.0249 v -10e-5 l -0.4338,-0.043 v 10e-6 l -0.4318,-0.06 v -10e-6 l -0.429,-0.076 v 1e-5 l -0.4258,-0.094 v -1e-5 l -0.4217,-0.11001 v 0 l -0.4171,-0.12599 v 0 l -0.4118,-0.14301 v 0 l -0.4059,-0.15899 v 0 l -0.3994,-0.17499 v 0 l -0.3921,-0.19 v 0 l -0.3844,-0.205 v 0 l -0.3761,-0.22101 v 0 l -0.3671,-0.235 v 0 l -0.3576,-0.249 v 0 l -0.3475,-0.263 v 0 l -0.3369,-0.27699 v 0 l -0.3258,-0.289 v 0 l -0.3142,-0.302 v 0 l -0.3021,-0.31401 v 0 l -0.2895,-0.32599 v 0 l -0.2766,-0.337 v 0 l -0.263,-0.348 v 0 l -0.2493,-0.35701 v 0 l -0.2349,-0.367 v 0 l -0.2204,-0.376 v 0 l -0.2055,-0.38499 v 0 l -0.1902,-0.39201 v 0 l -0.1747,-0.39899 v 0 l -0.1589,-0.40601 v 0 l -0.1428,-0.41201 v 0 l -0.1265,-0.41698 v 0 l -0.11,-0.42201 v 0 l -0.0934,-0.426 v 0 l -0.0767,-0.429 v 0 l -0.0597,-0.43101 v 0 l -0.0427,-0.43399 v 0 l -0.0257,-0.435 v 0 l -0.008,-0.43601 z"
           style="fill:none;stroke:#ff0000;stroke-width:0.26499999;stroke-miterlimit:4;stroke-dasharray:none;stroke-opacity:1"
           id="path3334"
           sodipodi:nodetypes="ccccccccccccccccccccccccccccccccccccccccccccccccccccccccccccccccccccccccccccccccccccccccccccccccccccccccccccccccccccccccccccccccccccccccccccccccccccccccccccccccccccccccccccccccccccccccccccccccccccccccccccccccccccccccccccccccccccccccccccccccccccccccccccccccccccccccccccccccccccccccccccccccccccccccccccccccccccccccccccccccc" />
        <path
           inkscape:connector-curvature="0"
           d="m 335.03333,425.73211 -0.083,0.52499 v 0 l -0.242,0.474 v 0 l -0.376,0.376 v 0 l -0.474,0.24201 v 0 l -0.525,0.083 v 0 l -0.5253,-0.083 v 0 l -0.4739,-0.24201 v 0 l -0.3761,-0.376 v 0 l -0.2415,-0.474 v 0 l -0.0832,-0.52499 v 0 l 0.0832,-0.52501 v 0 l 0.2415,-0.474 v 0 l 0.3761,-0.376 v 0 l 0.4739,-0.24199 v 0 l 0.5253,-0.083 v 0 l 0.525,0.083 v 0 l 0.474,0.24199 v 0 l 0.376,0.376 v 0 l 0.242,0.474 v 0 z"
           style="fill:none;stroke:#ff0000;stroke-width:0.26499999;stroke-miterlimit:4;stroke-dasharray:none;stroke-opacity:1"
           id="path3924"
           sodipodi:nodetypes="ccccccccccccccccccccccccccccccccccccccccc" />
        <path
           inkscape:connector-curvature="0"
           d="m 350.03333,425.73211 -0.083,0.52499 v 0 l -0.242,0.474 v 0 l -0.376,0.376 v 0 l -0.474,0.24201 v 0 l -0.525,0.083 v 0 l -0.525,-0.083 v 0 l -0.474,-0.24201 v 0 l -0.376,-0.376 v 0 l -0.242,-0.474 v 0 l -0.083,-0.52499 v 0 l 0.083,-0.52501 v 0 l 0.242,-0.474 v 0 l 0.376,-0.376 v 0 l 0.474,-0.24199 v 0 l 0.525,-0.083 v 0 l 0.525,0.083 v 0 l 0.474,0.24199 v 0 l 0.376,0.376 v 0 l 0.242,0.474 v 0 z"
           style="fill:none;stroke:#ff0000;stroke-width:0.26499999;stroke-miterlimit:4;stroke-dasharray:none;stroke-opacity:1"
           id="path3964"
           sodipodi:nodetypes="ccccccccccccccccccccccccccccccccccccccccc" />
        <path
           inkscape:connector-curvature="0"
           d="m 310.83413,448.60711 -0.3761,-0.376 v 0 l -0.2415,-0.474 v 0 l -0.0832,-0.52501 v 0 l 0.0832,-0.52499 v 0 l 0.2415,-0.474 v 0 l 0.3761,-0.376 v 0 l 0.4739,-0.24201 v 0 l 0.5253,-0.083 v 0 l 0.5253,0.083 v 0 l 0.4739,0.24201 v 0 l 0.3761,0.376 v 0 l 0.2415,0.474 v 0 l 0.0832,0.52499 v 0 l -0.0832,0.52501 v 0 l -0.2415,0.474 v 0 l -0.3761,0.376 v 0 l -0.4739,0.24199 v 0 l -0.5253,0.083 v 0 l -0.5253,-0.083 v 0 z"
           style="fill:none;stroke:#ff0000;stroke-width:0.26499999;stroke-miterlimit:4;stroke-dasharray:none;stroke-opacity:1"
           id="path4058"
           sodipodi:nodetypes="ccccccccccccccccccccccccccccccccccccccccc" />
        <path
           inkscape:connector-curvature="0"
           d="m 296.83413,448.60711 -0.3761,-0.376 v 0 l -0.2415,-0.474 v 0 l -0.0832,-0.52501 v 0 l 0.0832,-0.52499 v 0 l 0.2415,-0.474 v 0 l 0.3761,-0.376 v 0 l 0.4739,-0.24201 v 0 l 0.5253,-0.083 v 0 l 0.5253,0.083 v 0 l 0.4739,0.24201 v 0 l 0.3761,0.376 v 0 l 0.2415,0.474 v 0 l 0.0832,0.52499 v 0 l -0.0832,0.52501 v 0 l -0.2415,0.474 v 0 l -0.3761,0.376 v 0 l -0.4739,0.24199 v 0 l -0.5253,0.083 v 0 l -0.5253,-0.083 v 0 z"
           style="fill:none;stroke:#ff0000;stroke-width:0.26499999;stroke-miterlimit:4;stroke-dasharray:none;stroke-opacity:1"
           id="path4098"
           sodipodi:nodetypes="ccccccccccccccccccccccccccccccccccccccccc" />
        <path
           inkscape:connector-curvature="0"
           d="m 331.73333,456.73212 0.009,-0.436 h -4e-4 l 0.0256,-0.435 v 0 l 0.0427,-0.434 v 0 l 0.0598,-0.43101 v 0 l 0.0766,-0.43 v 0 l 0.0934,-0.425 v 0 l 0.11,-0.42201 v 0 l 0.1266,-0.41698 v 0 l 0.1428,-0.41201 v 0 l 0.1588,-0.406 v 0 l 0.1747,-0.399 v 0 l 0.1904,-0.392 v 0 l 0.205,-0.385 v 0 l 0.221,-0.376 v 0 l 0.235,-0.367 v 0 l 0.249,-0.357 v 0 l 0.263,-0.34801 v 0 l 0.276,-0.337 v 0 l 0.29,-0.32599 v 0 l 0.302,-0.31401 v 0 l 0.314,-0.30199 v 0 l 0.326,-0.28999 v 0 l 0.337,-0.27601 v 0 l 0.348,-0.263 v 0 l 0.357,-0.249 v 0 l 0.367,-0.235 v 0 l 0.376,-0.22101 v 0 l 0.385,-0.20499 v 0 l 0.392,-0.19 v 0 l 0.399,-0.175 v 0 l 0.406,-0.15899 v 0 l 0.412,-0.143 v 0 l 0.417,-0.126 v 0 l 0.422,-0.11001 v 0 l 0.425,-0.094 v -10e-6 l 0.43,-0.076 v 1e-5 l 0.431,-0.06 v 0 l 0.434,-0.043 v 0 l 0.435,-0.0251 v 1e-4 l 0.436,-0.009 v 0 l 0.436,0.009 v 0 l 0.435,0.0251 v -10e-5 l 0.434,0.043 v 0 l 0.431,0.06 v 0 l 0.429,0.076 v -10e-6 l 0.426,0.094 v 1e-5 l 0.422,0.11001 v 0 l 0.417,0.126 v 0 l 0.412,0.143 v 0 l 0.406,0.15899 v 0 l 0.399,0.175 v 0 l 0.392,0.19 v 0 l 0.385,0.20499 v 0 l 0.376,0.22101 v 0 l 0.367,0.235 v 0 l 0.357,0.249 v 0 l 0.348,0.263 v 0 l 0.337,0.27601 v 0 l 0.326,0.28999 v 0 l 0.314,0.30199 v 0 l 0.302,0.31401 v 0 l 0.29,0.32599 v 0 l 0.276,0.337 v 0 l 0.263,0.34801 v 0 l 0.249,0.357 v 0 l 0.235,0.367 v 0 l 0.221,0.376 v 0 l 0.205,0.385 v 0 l 0.19,0.392 v 0 l 0.175,0.399 v 0 l 0.159,0.406 v 0 l 0.143,0.41201 v 0 l 0.126,0.41698 v 0 l 0.11,0.42201 v 0 l 0.094,0.425 v 0 l 0.076,0.43 v 0 l 0.06,0.43101 v 0 l 0.043,0.434 v 0 l 0.025,0.435 v 0 l 0.009,0.436 v 0 l -0.009,0.43598 v 0 l -0.025,0.43501 v 0 l -0.043,0.43399 v 0 l -0.06,0.43101 v 0 l -0.076,0.42899 v 0 l -0.094,0.42601 v 0 l -0.11,0.42201 v 0 l -0.126,0.41698 v 0 l -0.143,0.41201 v 0 l -0.159,0.40601 v 0 l -0.175,0.39899 v 0 l -0.19,0.392 v 0 l -0.205,0.385 v 0 l -0.221,0.376 v 0 l -0.235,0.367 v 0 l -0.249,0.357 v 0 l -0.263,0.34801 v 0 l -0.276,0.337 v 0 l -0.29,0.32599 v 0 l -0.302,0.31401 v 0 l -0.314,0.302 v 0 l -0.326,0.28998 v 0 l -0.337,0.27601 v 0 l -0.348,0.263 v 0 l -0.357,0.249 v 0 l -0.367,0.235 v 0 l -0.376,0.22101 v 0 l -0.385,0.205 v 0 l -0.392,0.18999 v 0 l -0.399,0.175 v 0 l -0.406,0.15901 v 0 l -0.412,0.14298 v 0 l -0.417,0.126 v 0 l -0.422,0.11001 v 0 l -0.426,0.094 v 1e-5 l -0.429,0.076 v -10e-6 l -0.431,0.06 v 10e-6 l -0.434,0.043 v -10e-6 l -0.435,0.0249 v 10e-5 l -0.436,0.009 v 0 l -0.436,-0.009 v 0 l -0.435,-0.0249 v -10e-5 l -0.434,-0.043 v 10e-6 l -0.431,-0.06 v -10e-6 l -0.43,-0.076 v 1e-5 l -0.425,-0.094 v -1e-5 l -0.422,-0.11001 v 0 l -0.417,-0.126 v 0 l -0.412,-0.14298 v 0 l -0.406,-0.15901 v 0 l -0.399,-0.175 v 0 l -0.392,-0.18999 v 0 l -0.385,-0.205 v 0 l -0.376,-0.22101 v 0 l -0.367,-0.235 v 0 l -0.357,-0.249 v 0 l -0.348,-0.263 v 0 l -0.337,-0.27601 v 0 l -0.326,-0.28998 v 0 l -0.314,-0.302 v 0 l -0.302,-0.31401 v 0 l -0.29,-0.32599 v 0 l -0.276,-0.337 v 0 l -0.263,-0.34801 v 0 l -0.249,-0.357 v 0 l -0.235,-0.367 v 0 l -0.221,-0.376 v 0 l -0.205,-0.385 v 0 l -0.1904,-0.392 v 0 l -0.1747,-0.39899 v 0 l -0.1588,-0.40601 v 0 l -0.1428,-0.41201 v 0 l -0.1266,-0.41698 v 0 l -0.11,-0.42201 v 0 l -0.0934,-0.42601 v 0 l -0.0766,-0.42899 v 0 l -0.0598,-0.43101 v 0 l -0.0427,-0.43399 v 0 l -0.0256,-0.43501 v 0 l -0.009,-0.43598 z"
           style="fill:none;stroke:#ff0000;stroke-width:0.26499999;stroke-miterlimit:4;stroke-dasharray:none;stroke-opacity:1"
           id="path4294"
           sodipodi:nodetypes="ccccccccccccccccccccccccccccccccccccccccccccccccccccccccccccccccccccccccccccccccccccccccccccccccccccccccccccccccccccccccccccccccccccccccccccccccccccccccccccccccccccccccccccccccccccccccccccccccccccccccccccccccccccccccccccccccccccccccccccccccccccccccccccccccccccccccccccccccccccccccccccccccccccccccccccccccccccccccccccccccc" />
        <path
           inkscape:connector-curvature="0"
           d="m 310.83413,463.60711 -0.3761,-0.376 v 0 l -0.2415,-0.474 v 0 l -0.0832,-0.52499 v 0 l 0.0832,-0.52501 v 0 l 0.2415,-0.474 v 0 l 0.3761,-0.376 v 0 l 0.4739,-0.24199 v 0 l 0.5253,-0.083 v 0 l 0.5253,0.083 v 0 l 0.4739,0.24199 v 0 l 0.3761,0.376 v 0 l 0.2415,0.474 v 0 l 0.0832,0.52501 v 0 l -0.0832,0.52499 v 0 l -0.2415,0.474 v 0 l -0.3761,0.376 v 0 l -0.4739,0.24199 v 0 l -0.5253,0.083 v 0 l -0.5253,-0.083 v 0 z"
           style="fill:none;stroke:#ff0000;stroke-width:0.26499999;stroke-miterlimit:4;stroke-dasharray:none;stroke-opacity:1"
           id="path4858"
           sodipodi:nodetypes="ccccccccccccccccccccccccccccccccccccccccc" />
        <path
           inkscape:connector-curvature="0"
           d="m 296.83413,463.60711 -0.3761,-0.376 v 0 l -0.2415,-0.474 v 0 l -0.0832,-0.52499 v 0 l 0.0832,-0.52501 v 0 l 0.2415,-0.474 v 0 l 0.3761,-0.376 v 0 l 0.4739,-0.24199 v 0 l 0.5253,-0.083 v 0 l 0.5253,0.083 v 0 l 0.4739,0.24199 v 0 l 0.3761,0.376 v 0 l 0.2415,0.474 v 0 l 0.0832,0.52501 v 0 l -0.0832,0.52499 v 0 l -0.2415,0.474 v 0 l -0.3761,0.376 v 0 l -0.4739,0.24199 v 0 l -0.5253,0.083 v 0 l -0.5253,-0.083 v 0 z"
           style="fill:none;stroke:#ff0000;stroke-width:0.26499999;stroke-miterlimit:4;stroke-dasharray:none;stroke-opacity:1"
           id="path4898"
           sodipodi:nodetypes="ccccccccccccccccccccccccccccccccccccccccc" />
      </g>
      <g
         id="g9251"
         style="stroke-width:0.26499999;stroke-miterlimit:4;stroke-dasharray:none;stroke:#ff0000;stroke-opacity:1">
        <path
           inkscape:connector-curvature="0"
           d="m 133.33253,413.10712 -0.4739,0.24199 v 0 l -0.5253,0.083 v 0 l -0.525,-0.083 v 0 l -0.474,-0.24199 v 0 l -0.376,-0.376 v 0 l -0.242,-0.474 v 0 l -0.083,-0.52501 v 0 l 0.083,-0.52499 v 0 l 0.242,-0.474 v 0 l 0.376,-0.376 v 0 l 0.474,-0.24201 v 0 l 0.525,-0.083 v 0 l 0.5253,0.083 v 0 l 0.4739,0.24201 v 0 l 0.3761,0.376 v 0 l 0.2415,0.474 v 0 l 0.0832,0.52499 v 0 l -0.0832,0.52501 v 0 l -0.2415,0.474 v 0 z"
           style="fill:none;stroke:#ff0000;stroke-width:0.26499999;stroke-miterlimit:4;stroke-dasharray:none;stroke-opacity:1"
           id="path3130"
           sodipodi:nodetypes="ccccccccccccccccccccccccccccccccccccccccc" />
        <path
           inkscape:connector-curvature="0"
           d="m 115.95833,412.73112 -0.242,-0.474 v 0 l -0.083,-0.52501 v 0 l 0.083,-0.52499 v 0 l 0.242,-0.474 v 0 l 0.376,-0.376 v 0 l 0.474,-0.24201 v 0 l 0.525,-0.083 v 0 l 0.525,0.083 v 0 l 0.474,0.24201 v 0 l 0.376,0.376 v 0 l 0.242,0.474 v 0 l 0.083,0.52499 v 0 l -0.083,0.52501 v 0 l -0.242,0.474 v 0 l -0.376,0.376 v 0 l -0.474,0.24199 v 0 l -0.525,0.083 v 0 l -0.525,-0.083 v 0 l -0.474,-0.24199 v 0 z"
           style="fill:none;stroke:#ff0000;stroke-width:0.26499999;stroke-miterlimit:4;stroke-dasharray:none;stroke-opacity:1"
           id="path3140"
           sodipodi:nodetypes="ccccccccccccccccccccccccccccccccccccccccc" />
        <path
           inkscape:connector-curvature="0"
           d="m 167.36833,423.2971 -0.008,0.43601 h -5e-4 l -0.0257,0.435 v 0 l -0.0427,0.43399 v 0 l -0.0597,0.43101 v 0 l -0.0767,0.429 v 0 l -0.0934,0.426 v 0 l -0.11,0.42201 v 0 l -0.1265,0.41698 v 0 l -0.1428,0.41201 v 0 l -0.1589,0.40601 v 0 l -0.1747,0.39899 v 0 l -0.1902,0.39201 v 0 l -0.2055,0.38499 v 0 l -0.2204,0.376 v 0 l -0.2349,0.367 v 0 l -0.2493,0.35701 v 0 l -0.263,0.348 v 0 l -0.2766,0.337 v 0 l -0.2895,0.32599 v 0 l -0.3021,0.31401 v 0 l -0.3142,0.302 v 0 l -0.3258,0.289 v 0 l -0.3369,0.27699 v 0 l -0.3475,0.263 v 0 l -0.3576,0.249 v 0 l -0.3671,0.235 v 0 l -0.3761,0.22101 v 0 l -0.3844,0.205 v 0 l -0.3921,0.19 v 0 l -0.3994,0.17499 v 0 l -0.4059,0.15899 v 0 l -0.4118,0.14301 v 0 l -0.4171,0.12599 v 0 l -0.4217,0.11001 v 0 l -0.4258,0.094 v 1e-5 l -0.429,0.076 v -10e-6 l -0.4318,0.06 v 10e-6 l -0.4338,0.043 v -10e-6 l -0.4351,0.0249 v 10e-5 l -0.4358,0.009 v 0 l -0.4357,-0.009 v 0 l -0.4352,-0.0249 v -10e-5 l -0.4337,-0.043 v 10e-6 l -0.4318,-0.06 v -10e-6 l -0.4291,-0.076 v 1e-5 l -0.4257,-0.094 v -1e-5 l -0.4218,-0.11001 v 0 l -0.4171,-0.12599 v 0 l -0.4118,-0.14301 v 0 l -0.4058,-0.15899 v 0 l -0.3994,-0.17499 v 0 l -0.3922,-0.19 v 0 l -0.3844,-0.205 v 0 l -0.376,-0.22101 v 0 l -0.3671,-0.235 v 0 l -0.3576,-0.249 v 0 l -0.3475,-0.263 v 0 l -0.3369,-0.27699 v 0 l -0.3259,-0.289 v 0 l -0.3141,-0.302 v 0 l -0.3021,-0.31401 v 0 l -0.2896,-0.32599 v 0 l -0.2765,-0.337 v 0 l -0.2631,-0.348 v 0 l -0.2492,-0.35701 v 0 l -0.235,-0.367 v 0 l -0.2204,-0.376 v 0 l -0.2054,-0.38499 v 0 l -0.1903,-0.39201 v 0 l -0.1746,-0.39899 v 0 l -0.1589,-0.40601 v 0 l -0.1428,-0.41201 v 0 l -0.1265,-0.41698 v 0 l -0.1101,-0.42201 v 0 l -0.0934,-0.426 v 0 l -0.0766,-0.429 v 0 l -0.0597,-0.43101 v 0 l -0.0428,-0.43399 v 0 l -0.0256,-0.435 v 0 l -0.009,-0.43601 h 4e-4 l 0.009,-0.43598 h -4e-4 l 0.0256,-0.435 v 0 l 0.0428,-0.434 v 0 l 0.0597,-0.43101 v 0 l 0.0766,-0.43 v 0 l 0.0934,-0.425 v 0 l 0.1101,-0.42201 v 0 l 0.1265,-0.41698 v 0 l 0.1428,-0.41201 v 0 l 0.1589,-0.406 v 0 l 0.1746,-0.39899 v 0 l 0.1903,-0.39201 v 0 l 0.2054,-0.385 v 0 l 0.2204,-0.376 v 0 l 0.235,-0.367 v 0 l 0.2492,-0.357 v 0 l 0.2631,-0.34801 v 0 l 0.2765,-0.337 v 0 l 0.2896,-0.32599 v 0 l 0.3021,-0.31401 v 0 l 0.3141,-0.30199 v 0 l 0.3259,-0.28999 v 0 l 0.3369,-0.27601 v 0 l 0.3475,-0.263 v 0 l 0.3576,-0.24899 v 0 l 0.3671,-0.23501 v 0 l 0.376,-0.221 v 0 l 0.3844,-0.205 v 0 l 0.3922,-0.19 v 0 l 0.3994,-0.175 v 0 l 0.4058,-0.15901 v 0 l 0.4118,-0.14298 v 0 l 0.4171,-0.126 v 0 l 0.4218,-0.11001 v 0 l 0.4257,-0.094 v -10e-6 l 0.4291,-0.076 v 2e-5 l 0.4318,-0.06 v -10e-6 l 0.4337,-0.043 v 0 l 0.4352,-0.0249 v -10e-5 l 0.4357,-0.009 v 0 l 0.4358,0.009 v 0 l 0.4351,0.0249 v 10e-5 l 0.4338,0.043 v 0 l 0.4318,0.06 v 10e-6 l 0.429,0.076 v -2e-5 l 0.4258,0.094 v 1e-5 l 0.4217,0.11001 v 0 l 0.4171,0.126 v 0 l 0.4118,0.14298 v 0 l 0.4059,0.15901 v 0 l 0.3994,0.175 v 0 l 0.3921,0.19 v 0 l 0.3844,0.205 v 0 l 0.3761,0.221 v 0 l 0.3671,0.23501 v 0 l 0.3576,0.24899 v 0 l 0.3475,0.263 v 0 l 0.3369,0.27601 v 0 l 0.3258,0.28999 v 0 l 0.3142,0.30199 v 0 l 0.3021,0.31401 v 0 l 0.2895,0.32599 v 0 l 0.2766,0.337 v 0 l 0.263,0.34801 v 0 l 0.2493,0.357 v 0 l 0.2349,0.367 v 0 l 0.2204,0.376 v 0 l 0.2055,0.385 v 0 l 0.1902,0.39201 v 0 l 0.1747,0.39899 v 0 l 0.1589,0.406 v 0 l 0.1428,0.41201 v 0 l 0.1265,0.41698 v 0 l 0.11,0.42201 v 0 l 0.0934,0.425 v 0 l 0.0767,0.43 v 0 l 0.0597,0.43101 v 0 l 0.0427,0.434 v 0 l 0.0257,0.435 v 0 l 0.008,0.43598 z"
           style="fill:none;stroke:#ff0000;stroke-width:0.26499999;stroke-miterlimit:4;stroke-dasharray:none;stroke-opacity:1"
           id="path3814"
           sodipodi:nodetypes="ccccccccccccccccccccccccccccccccccccccccccccccccccccccccccccccccccccccccccccccccccccccccccccccccccccccccccccccccccccccccccccccccccccccccccccccccccccccccccccccccccccccccccccccccccccccccccccccccccccccccccccccccccccccccccccccccccccccccccccccccccccccccccccccccccccccccccccccccccccccccccccccccccccccccccccccccccccccccccccccccc" />
        <path
           inkscape:connector-curvature="0"
           d="m 118.70833,426.7311 -0.376,0.376 v 0 l -0.474,0.24201 v 0 l -0.525,0.083 v 0 l -0.525,-0.083 v 0 l -0.474,-0.24201 v 0 l -0.376,-0.376 v 0 l -0.242,-0.474 v 0 l -0.083,-0.52499 v 0 l 0.083,-0.52501 v 0 l 0.242,-0.474 v 0 l 0.376,-0.376 v 0 l 0.474,-0.24199 v 0 l 0.525,-0.083 v 0 l 0.525,0.083 v 0 l 0.474,0.24199 v 0 l 0.376,0.376 v 0 l 0.242,0.474 v 0 l 0.083,0.52501 v 0 l -0.083,0.52499 v 0 z"
           style="fill:none;stroke:#ff0000;stroke-width:0.26499999;stroke-miterlimit:4;stroke-dasharray:none;stroke-opacity:1"
           id="path4008"
           sodipodi:nodetypes="ccccccccccccccccccccccccccccccccccccccccc" />
        <path
           inkscape:connector-curvature="0"
           d="m 133.95013,425.2071 0.0832,0.52501 v 0 l -0.0832,0.52499 v 0 l -0.2415,0.474 v 0 l -0.3761,0.376 v 0 l -0.4739,0.24201 v 0 l -0.5253,0.083 v 0 l -0.525,-0.083 v 0 l -0.474,-0.24201 v 0 l -0.376,-0.376 v 0 l -0.242,-0.474 v 0 l -0.083,-0.52499 v 0 l 0.083,-0.52501 v 0 l 0.242,-0.474 v 0 l 0.376,-0.376 v 0 l 0.474,-0.24199 v 0 l 0.525,-0.083 v 0 l 0.5253,0.083 v 0 l 0.4739,0.24199 v 0 l 0.3761,0.376 v 0 z"
           style="fill:none;stroke:#ff0000;stroke-width:0.26499999;stroke-miterlimit:4;stroke-dasharray:none;stroke-opacity:1"
           id="path4042"
           sodipodi:nodetypes="ccccccccccccccccccccccccccccccccccccccccc" />
        <path
           inkscape:connector-curvature="0"
           d="m 167.83333,448.9321 -0.5253,-0.083 v 0 l -0.4739,-0.24199 v 0 l -0.3761,-0.376 v 0 l -0.2415,-0.474 v 0 l -0.0832,-0.52501 v 0 l 0.0832,-0.52499 v 0 l 0.2415,-0.474 v 0 l 0.3761,-0.376 v 0 l 0.4739,-0.24201 v 0 l 0.5253,-0.083 v 0 l 0.5253,0.083 v 0 l 0.4739,0.24201 v 0 l 0.3761,0.376 v 0 l 0.2415,0.474 v 0 l 0.0832,0.52499 v 0 l -0.0832,0.52501 v 0 l -0.2415,0.474 v 0 l -0.3761,0.376 v 0 l -0.4739,0.24199 v 0 z"
           style="fill:none;stroke:#ff0000;stroke-width:0.26499999;stroke-miterlimit:4;stroke-dasharray:none;stroke-opacity:1"
           id="path4174"
           sodipodi:nodetypes="ccccccccccccccccccccccccccccccccccccccccc" />
        <path
           inkscape:connector-curvature="0"
           d="m 153.83333,448.9321 -0.5253,-0.083 v 0 l -0.4739,-0.24199 v 0 l -0.3761,-0.376 v 0 l -0.2415,-0.474 v 0 l -0.0832,-0.52501 v 0 l 0.0832,-0.52499 v 0 l 0.2415,-0.474 v 0 l 0.3761,-0.376 v 0 l 0.4739,-0.24201 v 0 l 0.5253,-0.083 v 0 l 0.5253,0.083 v 0 l 0.4739,0.24201 v 0 l 0.3761,0.376 v 0 l 0.2415,0.474 v 0 l 0.0832,0.52499 v 0 l -0.0832,0.52501 v 0 l -0.2415,0.474 v 0 l -0.3761,0.376 v 0 l -0.4739,0.24199 v 0 z"
           style="fill:none;stroke:#ff0000;stroke-width:0.26499999;stroke-miterlimit:4;stroke-dasharray:none;stroke-opacity:1"
           id="path4214"
           sodipodi:nodetypes="ccccccccccccccccccccccccccccccccccccccccc" />
        <path
           inkscape:connector-curvature="0"
           d="m 133.93333,456.73212 -0.009,0.43598 h 4e-4 l -0.0256,0.43501 v 0 l -0.0427,0.43399 v 0 l -0.0598,0.43101 v 0 l -0.0766,0.42899 v 0 l -0.0934,0.42601 v 0 l -0.11,0.42201 v 0 l -0.1266,0.41698 v 0 l -0.1428,0.41201 v 0 l -0.1588,0.40601 v 0 l -0.1747,0.39899 v 0 l -0.1904,0.392 v 0 l -0.205,0.385 v 0 l -0.221,0.376 v 0 l -0.235,0.367 v 0 l -0.249,0.357 v 0 l -0.263,0.34801 v 0 l -0.276,0.337 v 0 l -0.29,0.32599 v 0 l -0.302,0.31401 v 0 l -0.314,0.302 v 0 l -0.326,0.28998 v 0 l -0.337,0.27601 v 0 l -0.348,0.263 v 0 l -0.357,0.249 v 0 l -0.367,0.235 v 0 l -0.376,0.22101 v 0 l -0.385,0.205 v 0 l -0.392,0.18999 v 0 l -0.399,0.175 v 0 l -0.406,0.15901 v 0 l -0.412,0.14298 v 0 l -0.417,0.126 v 0 l -0.422,0.11001 v 0 l -0.425,0.094 v 1e-5 l -0.43,0.076 v -10e-6 l -0.431,0.06 v 10e-6 l -0.434,0.043 v -10e-6 l -0.435,0.0249 v 10e-5 l -0.436,0.009 v 0 l -0.436,-0.009 v 0 l -0.435,-0.0249 v -10e-5 l -0.434,-0.043 v 10e-6 l -0.431,-0.06 v -10e-6 l -0.429,-0.076 v 1e-5 l -0.426,-0.094 v -1e-5 l -0.422,-0.11001 v 0 l -0.417,-0.126 v 0 l -0.412,-0.14298 v 0 l -0.406,-0.15901 v 0 l -0.399,-0.175 v 0 l -0.392,-0.18999 v 0 l -0.385,-0.205 v 0 l -0.376,-0.22101 v 0 l -0.367,-0.235 v 0 l -0.357,-0.249 v 0 l -0.348,-0.263 v 0 l -0.337,-0.27601 v 0 l -0.326,-0.28998 v 0 l -0.314,-0.302 v 0 l -0.302,-0.31401 v 0 l -0.29,-0.32599 v 0 l -0.276,-0.337 v 0 l -0.263,-0.34801 v 0 l -0.249,-0.357 v 0 l -0.235,-0.367 v 0 l -0.221,-0.376 v 0 l -0.205,-0.385 v 0 l -0.19,-0.392 v 0 l -0.175,-0.39899 v 0 l -0.159,-0.40601 v 0 l -0.143,-0.41201 v 0 l -0.126,-0.41698 v 0 l -0.11,-0.42201 v 0 l -0.094,-0.42601 v 0 l -0.076,-0.42899 v 0 l -0.06,-0.43101 v 0 l -0.043,-0.43399 v 0 l -0.025,-0.43501 v 0 l -0.009,-0.43598 v 0 l 0.009,-0.436 v 0 l 0.025,-0.435 v 0 l 0.043,-0.434 v 0 l 0.06,-0.43101 v 0 l 0.076,-0.43 v 0 l 0.094,-0.425 v 0 l 0.11,-0.42201 v 0 l 0.126,-0.41698 v 0 l 0.143,-0.41201 v 0 l 0.159,-0.406 v 0 l 0.175,-0.399 v 0 l 0.19,-0.392 v 0 l 0.205,-0.385 v 0 l 0.221,-0.376 v 0 l 0.235,-0.367 v 0 l 0.249,-0.357 v 0 l 0.263,-0.34801 v 0 l 0.276,-0.337 v 0 l 0.29,-0.32599 v 0 l 0.302,-0.31401 v 0 l 0.314,-0.30199 v 0 l 0.326,-0.28999 v 0 l 0.337,-0.27601 v 0 l 0.348,-0.263 v 0 l 0.357,-0.249 v 0 l 0.367,-0.235 v 0 l 0.376,-0.22101 v 0 l 0.385,-0.20499 v 0 l 0.392,-0.19 v 0 l 0.399,-0.175 v 0 l 0.406,-0.15899 v 0 l 0.412,-0.143 v 0 l 0.417,-0.126 v 0 l 0.422,-0.11001 v 0 l 0.426,-0.094 v -10e-6 l 0.429,-0.076 v 1e-5 l 0.431,-0.06 v 0 l 0.434,-0.043 v 0 l 0.435,-0.0251 v 1e-4 l 0.436,-0.009 v 0 l 0.436,0.009 v 0 l 0.435,0.0251 v -10e-5 l 0.434,0.043 v 0 l 0.431,0.06 v 0 l 0.43,0.076 v -10e-6 l 0.425,0.094 v 1e-5 l 0.422,0.11001 v 0 l 0.417,0.126 v 0 l 0.412,0.143 v 0 l 0.406,0.15899 v 0 l 0.399,0.175 v 0 l 0.392,0.19 v 0 l 0.385,0.20499 v 0 l 0.376,0.22101 v 0 l 0.367,0.235 v 0 l 0.357,0.249 v 0 l 0.348,0.263 v 0 l 0.337,0.27601 v 0 l 0.326,0.28999 v 0 l 0.314,0.30199 v 0 l 0.302,0.31401 v 0 l 0.29,0.32599 v 0 l 0.276,0.337 v 0 l 0.263,0.34801 v 0 l 0.249,0.357 v 0 l 0.235,0.367 v 0 l 0.221,0.376 v 0 l 0.205,0.385 v 0 l 0.1904,0.392 v 0 l 0.1747,0.399 v 0 l 0.1588,0.406 v 0 l 0.1428,0.41201 v 0 l 0.1266,0.41698 v 0 l 0.11,0.42201 v 0 l 0.0934,0.425 v 0 l 0.0766,0.43 v 0 l 0.0598,0.43101 v 0 l 0.0427,0.434 v 0 l 0.0256,0.435 v 0 l 0.009,0.436 z"
           style="fill:none;stroke:#ff0000;stroke-width:0.26499999;stroke-miterlimit:4;stroke-dasharray:none;stroke-opacity:1"
           id="path4774"
           sodipodi:nodetypes="ccccccccccccccccccccccccccccccccccccccccccccccccccccccccccccccccccccccccccccccccccccccccccccccccccccccccccccccccccccccccccccccccccccccccccccccccccccccccccccccccccccccccccccccccccccccccccccccccccccccccccccccccccccccccccccccccccccccccccccccccccccccccccccccccccccccccccccccccccccccccccccccccccccccccccccccccccccccccccccccccc" />
        <path
           inkscape:connector-curvature="0"
           d="m 168.35863,460.61512 0.4739,0.24199 v 0 l 0.3761,0.376 v 0 l 0.2415,0.474 v 0 l 0.0832,0.52501 v 0 l -0.0832,0.52499 v 0 l -0.2415,0.474 v 0 l -0.3761,0.376 v 0 l -0.4739,0.24199 v 0 l -0.5253,0.083 v 0 l -0.5253,-0.083 v 0 l -0.4739,-0.24199 v 0 l -0.3761,-0.376 v 0 l -0.2415,-0.474 v 0 l -0.0832,-0.52499 v 0 l 0.0832,-0.52501 v 0 l 0.2415,-0.474 v 0 l 0.3761,-0.376 v 0 l 0.4739,-0.24199 v 0 l 0.5253,-0.083 v 0 z"
           style="fill:none;stroke:#ff0000;stroke-width:0.26499999;stroke-miterlimit:4;stroke-dasharray:none;stroke-opacity:1"
           id="path4956"
           sodipodi:nodetypes="ccccccccccccccccccccccccccccccccccccccccc" />
        <path
           inkscape:connector-curvature="0"
           d="m 152.83413,460.85711 0.4739,-0.24199 v 0 l 0.5253,-0.083 v 0 l 0.5253,0.083 v 0 l 0.4739,0.24199 v 0 l 0.3761,0.376 v 0 l 0.2415,0.474 v 0 l 0.0832,0.52501 v 0 l -0.0832,0.52499 v 0 l -0.2415,0.474 v 0 l -0.3761,0.376 v 0 l -0.4739,0.24199 v 0 l -0.5253,0.083 v 0 l -0.5253,-0.083 v 0 l -0.4739,-0.24199 v 0 l -0.3761,-0.376 v 0 l -0.2415,-0.474 v 0 l -0.0832,-0.52499 v 0 l 0.0832,-0.52501 v 0 l 0.2415,-0.474 v 0 z"
           style="fill:none;stroke:#ff0000;stroke-width:0.26499999;stroke-miterlimit:4;stroke-dasharray:none;stroke-opacity:1"
           id="path4990"
           sodipodi:nodetypes="ccccccccccccccccccccccccccccccccccccccccc" />
      </g>
    </g>
  </g>
</svg>
