  0
SECTION
  2
BLOCKS
  0
ENDSEC
  0
SECTION
  2
ENTITIES
  0
LINE
  8
0
 10
36.5322
 20
-166.688
 11
37.2951
 21
-166.505
  0
LINE
  8
0
 10
37.2951
 20
-166.505
 11
38.0199
 21
-166.205
  0
LINE
  8
0
 10
38.0199
 20
-166.205
 11
38.6889
 21
-165.795
  0
LINE
  8
0
 10
38.6889
 20
-165.795
 11
39.2855
 21
-165.286
  0
LINE
  8
0
 10
39.2855
 20
-165.286
 11
113.286
 21
-90.7855
  0
LINE
  8
0
 10
113.286
 20
-90.7855
 11
113.795
 21
-90.1889
  0
LINE
  8
0
 10
113.795
 20
-90.1889
 11
114.205
 21
-89.5199
  0
LINE
  8
0
 10
114.205
 20
-89.5199
 11
114.505
 21
-88.7951
  0
LINE
  8
0
 10
114.505
 20
-88.7951
 11
114.688
 21
-88.0322
  0
LINE
  8
0
 10
114.688
 20
-88.0322
 11
114.75
 21
-87.25
  0
LINE
  8
0
 10
114.75
 20
-87.25
 11
114.75
 21
87.25
  0
LINE
  8
0
 10
114.75
 20
87.25
 11
114.688
 21
88.0322
  0
LINE
  8
0
 10
114.688
 20
88.0322
 11
114.505
 21
88.7951
  0
LINE
  8
0
 10
114.505
 20
88.7951
 11
114.205
 21
89.5199
  0
LINE
  8
0
 10
114.205
 20
89.5199
 11
113.795
 21
90.1889
  0
LINE
  8
0
 10
113.795
 20
90.1889
 11
113.286
 21
90.7855
  0
LINE
  8
0
 10
113.286
 20
90.7855
 11
39.2855
 21
165.286
  0
LINE
  8
0
 10
39.2855
 20
165.286
 11
38.6889
 21
165.795
  0
LINE
  8
0
 10
38.6889
 20
165.795
 11
38.0199
 21
166.205
  0
LINE
  8
0
 10
38.0199
 20
166.205
 11
37.2951
 21
166.505
  0
LINE
  8
0
 10
37.2951
 20
166.505
 11
36.5322
 21
166.688
  0
LINE
  8
0
 10
36.5322
 20
166.688
 11
35.75
 21
166.75
  0
LINE
  8
0
 10
35.75
 20
166.75
 11
-35.75
 21
166.75
  0
LINE
  8
0
 10
-35.75
 20
166.75
 11
-36.5322
 21
166.688
  0
LINE
  8
0
 10
-36.5322
 20
166.688
 11
-37.2951
 21
166.505
  0
LINE
  8
0
 10
-37.2951
 20
166.505
 11
-38.0199
 21
166.205
  0
LINE
  8
0
 10
-38.0199
 20
166.205
 11
-38.6889
 21
165.795
  0
LINE
  8
0
 10
-38.6889
 20
165.795
 11
-39.2855
 21
165.286
  0
LINE
  8
0
 10
-39.2855
 20
165.286
 11
-113.286
 21
90.7855
  0
LINE
  8
0
 10
-113.286
 20
90.7855
 11
-113.795
 21
90.1889
  0
LINE
  8
0
 10
-113.795
 20
90.1889
 11
-114.205
 21
89.5199
  0
LINE
  8
0
 10
-114.205
 20
89.5199
 11
-114.505
 21
88.7951
  0
LINE
  8
0
 10
-114.505
 20
88.7951
 11
-114.688
 21
88.0322
  0
LINE
  8
0
 10
-114.688
 20
88.0322
 11
-114.75
 21
87.25
  0
LINE
  8
0
 10
-114.75
 20
87.25
 11
-114.75
 21
-87.25
  0
LINE
  8
0
 10
-114.75
 20
-87.25
 11
-114.688
 21
-88.0322
  0
LINE
  8
0
 10
-114.688
 20
-88.0322
 11
-114.505
 21
-88.7951
  0
LINE
  8
0
 10
-114.505
 20
-88.7951
 11
-114.205
 21
-89.5199
  0
LINE
  8
0
 10
-114.205
 20
-89.5199
 11
-113.795
 21
-90.1889
  0
LINE
  8
0
 10
-113.795
 20
-90.1889
 11
-113.286
 21
-90.7855
  0
LINE
  8
0
 10
-113.286
 20
-90.7855
 11
-39.2855
 21
-165.286
  0
LINE
  8
0
 10
-39.2855
 20
-165.286
 11
-38.6889
 21
-165.795
  0
LINE
  8
0
 10
-38.6889
 20
-165.795
 11
-38.0199
 21
-166.205
  0
LINE
  8
0
 10
-38.0199
 20
-166.205
 11
-37.2951
 21
-166.505
  0
LINE
  8
0
 10
-37.2951
 20
-166.505
 11
-36.5322
 21
-166.688
  0
LINE
  8
0
 10
-36.5322
 20
-166.688
 11
-35.75
 21
-166.75
  0
LINE
  8
0
 10
-35.75
 20
-166.75
 11
35.75
 21
-166.75
  0
LINE
  8
0
 10
35.75
 20
-166.75
 11
36.5322
 21
-166.688
  0
LINE
  8
0
 10
83.9379
 20
-107.947
 11
83.2227
 21
-107.714
  0
LINE
  8
0
 10
83.2227
 20
-107.714
 11
82.5877
 21
-107.312
  0
LINE
  8
0
 10
82.5877
 20
-107.312
 11
82.0729
 21
-106.763
  0
LINE
  8
0
 10
82.0729
 20
-106.763
 11
81.7107
 21
-106.104
  0
LINE
  8
0
 10
81.7107
 20
-106.104
 11
81.5237
 21
-105.376
  0
LINE
  8
0
 10
81.5237
 20
-105.376
 11
81.5237
 21
-105
  0
LINE
  8
0
 10
81.5237
 20
-105
 11
-81.5
 21
-105
  0
LINE
  8
0
 10
-81.5
 20
-105
 11
-81.5942
 21
-105.746
  0
LINE
  8
0
 10
-81.5942
 20
-105.746
 11
-81.8711
 21
-106.445
  0
LINE
  8
0
 10
-81.8711
 20
-106.445
 11
-82.3131
 21
-107.054
  0
LINE
  8
0
 10
-82.3131
 20
-107.054
 11
-82.8925
 21
-107.533
  0
LINE
  8
0
 10
-82.8925
 20
-107.533
 11
-83.5729
 21
-107.853
  0
LINE
  8
0
 10
-83.5729
 20
-107.853
 11
-84.3116
 21
-107.994
  0
LINE
  8
0
 10
-84.3116
 20
-107.994
 11
-85.0621
 21
-107.947
  0
LINE
  8
0
 10
-85.0621
 20
-107.947
 11
-85.7773
 21
-107.714
  0
LINE
  8
0
 10
-85.7773
 20
-107.714
 11
-86.4123
 21
-107.312
  0
LINE
  8
0
 10
-86.4123
 20
-107.312
 11
-86.927
 21
-106.763
  0
LINE
  8
0
 10
-86.927
 20
-106.763
 11
-87.2893
 21
-106.104
  0
LINE
  8
0
 10
-87.2893
 20
-106.104
 11
-87.4763
 21
-105.376
  0
LINE
  8
0
 10
-87.4763
 20
-105.376
 11
-87.4763
 21
-104.624
  0
LINE
  8
0
 10
-87.4763
 20
-104.624
 11
-87.2893
 21
-103.896
  0
LINE
  8
0
 10
-87.2893
 20
-103.896
 11
-86.927
 21
-103.237
  0
LINE
  8
0
 10
-86.927
 20
-103.237
 11
-86.4123
 21
-102.688
  0
LINE
  8
0
 10
-86.4123
 20
-102.688
 11
-85.7773
 21
-102.286
  0
LINE
  8
0
 10
-85.7773
 20
-102.286
 11
-85.0621
 21
-102.053
  0
LINE
  8
0
 10
-85.0621
 20
-102.053
 11
-84.5
 21
-102.018
  0
LINE
  8
0
 10
-84.5
 20
-102.018
 11
-84.5
 21
102.018
  0
LINE
  8
0
 10
-84.5
 20
102.018
 11
-85.0621
 21
102.053
  0
LINE
  8
0
 10
-85.0621
 20
102.053
 11
-85.7773
 21
102.286
  0
LINE
  8
0
 10
-85.7773
 20
102.286
 11
-86.4123
 21
102.688
  0
LINE
  8
0
 10
-86.4123
 20
102.688
 11
-86.927
 21
103.237
  0
LINE
  8
0
 10
-86.927
 20
103.237
 11
-87.2893
 21
103.896
  0
LINE
  8
0
 10
-87.2893
 20
103.896
 11
-87.4763
 21
104.624
  0
LINE
  8
0
 10
-87.4763
 20
104.624
 11
-87.4763
 21
105.376
  0
LINE
  8
0
 10
-87.4763
 20
105.376
 11
-87.2893
 21
106.104
  0
LINE
  8
0
 10
-87.2893
 20
106.104
 11
-86.927
 21
106.763
  0
LINE
  8
0
 10
-86.927
 20
106.763
 11
-86.4123
 21
107.312
  0
LINE
  8
0
 10
-86.4123
 20
107.312
 11
-85.7773
 21
107.714
  0
LINE
  8
0
 10
-85.7773
 20
107.714
 11
-85.0621
 21
107.947
  0
LINE
  8
0
 10
-85.0621
 20
107.947
 11
-84.3116
 21
107.994
  0
LINE
  8
0
 10
-84.3116
 20
107.994
 11
-83.5729
 21
107.853
  0
LINE
  8
0
 10
-83.5729
 20
107.853
 11
-82.8925
 21
107.533
  0
LINE
  8
0
 10
-82.8925
 20
107.533
 11
-82.3131
 21
107.054
  0
LINE
  8
0
 10
-82.3131
 20
107.054
 11
-81.8711
 21
106.445
  0
LINE
  8
0
 10
-81.8711
 20
106.445
 11
-81.5942
 21
105.746
  0
LINE
  8
0
 10
-81.5942
 20
105.746
 11
-81.5
 21
105
  0
LINE
  8
0
 10
-81.5
 20
105
 11
81.5237
 21
105
  0
LINE
  8
0
 10
81.5237
 20
105
 11
81.5237
 21
105.376
  0
LINE
  8
0
 10
81.5237
 20
105.376
 11
81.7107
 21
106.104
  0
LINE
  8
0
 10
81.7107
 20
106.104
 11
82.0729
 21
106.763
  0
LINE
  8
0
 10
82.0729
 20
106.763
 11
82.5877
 21
107.312
  0
LINE
  8
0
 10
82.5877
 20
107.312
 11
83.2227
 21
107.714
  0
LINE
  8
0
 10
83.2227
 20
107.714
 11
83.9379
 21
107.947
  0
LINE
  8
0
 10
83.9379
 20
107.947
 11
84.6884
 21
107.994
  0
LINE
  8
0
 10
84.6884
 20
107.994
 11
85.427
 21
107.853
  0
LINE
  8
0
 10
85.427
 20
107.853
 11
86.1075
 21
107.533
  0
LINE
  8
0
 10
86.1075
 20
107.533
 11
86.6869
 21
107.054
  0
LINE
  8
0
 10
86.6869
 20
107.054
 11
87.1289
 21
106.445
  0
LINE
  8
0
 10
87.1289
 20
106.445
 11
87.4057
 21
105.746
  0
LINE
  8
0
 10
87.4057
 20
105.746
 11
87.5
 21
105
  0
LINE
  8
0
 10
87.5
 20
105
 11
87.4057
 21
104.254
  0
LINE
  8
0
 10
87.4057
 20
104.254
 11
87.1289
 21
103.555
  0
LINE
  8
0
 10
87.1289
 20
103.555
 11
86.6869
 21
102.946
  0
LINE
  8
0
 10
86.6869
 20
102.946
 11
86.1075
 21
102.467
  0
LINE
  8
0
 10
86.1075
 20
102.467
 11
85.427
 21
102.147
  0
LINE
  8
0
 10
85.427
 20
102.147
 11
84.6884
 21
102.006
  0
LINE
  8
0
 10
84.6884
 20
102.006
 11
84.5
 21
102.018
  0
LINE
  8
0
 10
84.5
 20
102.018
 11
84.5
 21
-102.018
  0
LINE
  8
0
 10
84.5
 20
-102.018
 11
84.6884
 21
-102.006
  0
LINE
  8
0
 10
84.6884
 20
-102.006
 11
85.427
 21
-102.147
  0
LINE
  8
0
 10
85.427
 20
-102.147
 11
86.1075
 21
-102.467
  0
LINE
  8
0
 10
86.1075
 20
-102.467
 11
86.6869
 21
-102.946
  0
LINE
  8
0
 10
86.6869
 20
-102.946
 11
87.1289
 21
-103.555
  0
LINE
  8
0
 10
87.1289
 20
-103.555
 11
87.4057
 21
-104.254
  0
LINE
  8
0
 10
87.4057
 20
-104.254
 11
87.5
 21
-105
  0
LINE
  8
0
 10
87.5
 20
-105
 11
87.4057
 21
-105.746
  0
LINE
  8
0
 10
87.4057
 20
-105.746
 11
87.1289
 21
-106.445
  0
LINE
  8
0
 10
87.1289
 20
-106.445
 11
86.6869
 21
-107.054
  0
LINE
  8
0
 10
86.6869
 20
-107.054
 11
86.1075
 21
-107.533
  0
LINE
  8
0
 10
86.1075
 20
-107.533
 11
85.427
 21
-107.853
  0
LINE
  8
0
 10
85.427
 20
-107.853
 11
84.6884
 21
-107.994
  0
LINE
  8
0
 10
84.6884
 20
-107.994
 11
83.9379
 21
-107.947
  0
ENDSEC
  0
SECTION
  2
OBJECTS
  0
DICTIONARY
  0
ENDSEC
  0
EOF
