  0
SECTION
  2
BLOCKS
  0
ENDSEC
  0
SECTION
  2
ENTITIES
  0
LINE
  8
0
 10
110.746
 20
-180.985
 11
111.491
 21
-180.941
  0
LINE
  8
0
 10
111.491
 20
-180.941
 11
112.233
 21
-180.868
  0
LINE
  8
0
 10
112.233
 20
-180.868
 11
112.972
 21
-180.766
  0
LINE
  8
0
 10
112.972
 20
-180.766
 11
113.707
 21
-180.635
  0
LINE
  8
0
 10
113.707
 20
-180.635
 11
114.435
 21
-180.475
  0
LINE
  8
0
 10
114.435
 20
-180.475
 11
115.157
 21
-180.287
  0
LINE
  8
0
 10
115.157
 20
-180.287
 11
115.871
 21
-180.07
  0
LINE
  8
0
 10
115.871
 20
-180.07
 11
116.576
 21
-179.826
  0
LINE
  8
0
 10
116.576
 20
-179.826
 11
117.271
 21
-179.554
  0
LINE
  8
0
 10
117.271
 20
-179.554
 11
117.955
 21
-179.255
  0
LINE
  8
0
 10
117.955
 20
-179.255
 11
118.626
 21
-178.929
  0
LINE
  8
0
 10
118.626
 20
-178.929
 11
119.284
 21
-178.577
  0
LINE
  8
0
 10
119.284
 20
-178.577
 11
119.927
 21
-178.2
  0
LINE
  8
0
 10
119.927
 20
-178.2
 11
120.556
 21
-177.798
  0
LINE
  8
0
 10
120.556
 20
-177.798
 11
121.168
 21
-177.371
  0
LINE
  8
0
 10
121.168
 20
-177.371
 11
121.763
 21
-176.921
  0
LINE
  8
0
 10
121.763
 20
-176.921
 11
122.34
 21
-176.448
  0
LINE
  8
0
 10
122.34
 20
-176.448
 11
122.897
 21
-175.952
  0
LINE
  8
0
 10
122.897
 20
-175.952
 11
123.435
 21
-175.435
  0
LINE
  8
0
 10
123.435
 20
-175.435
 11
123.952
 21
-174.897
  0
LINE
  8
0
 10
123.952
 20
-174.897
 11
124.448
 21
-174.34
  0
LINE
  8
0
 10
124.448
 20
-174.34
 11
124.921
 21
-173.763
  0
LINE
  8
0
 10
124.921
 20
-173.763
 11
125.371
 21
-173.168
  0
LINE
  8
0
 10
125.371
 20
-173.168
 11
125.798
 21
-172.556
  0
LINE
  8
0
 10
125.798
 20
-172.556
 11
126.2
 21
-171.927
  0
LINE
  8
0
 10
126.2
 20
-171.927
 11
126.577
 21
-171.284
  0
LINE
  8
0
 10
126.577
 20
-171.284
 11
126.929
 21
-170.626
  0
LINE
  8
0
 10
126.929
 20
-170.626
 11
127.255
 21
-169.955
  0
LINE
  8
0
 10
127.255
 20
-169.955
 11
127.554
 21
-169.271
  0
LINE
  8
0
 10
127.554
 20
-169.271
 11
127.826
 21
-168.576
  0
LINE
  8
0
 10
127.826
 20
-168.576
 11
128.07
 21
-167.871
  0
LINE
  8
0
 10
128.07
 20
-167.871
 11
128.287
 21
-167.157
  0
LINE
  8
0
 10
128.287
 20
-167.157
 11
128.475
 21
-166.435
  0
LINE
  8
0
 10
128.475
 20
-166.435
 11
128.635
 21
-165.707
  0
LINE
  8
0
 10
128.635
 20
-165.707
 11
128.766
 21
-164.972
  0
LINE
  8
0
 10
128.766
 20
-164.972
 11
128.868
 21
-164.233
  0
LINE
  8
0
 10
128.868
 20
-164.233
 11
128.941
 21
-163.491
  0
LINE
  8
0
 10
128.941
 20
-163.491
 11
128.985
 21
-162.746
  0
LINE
  8
0
 10
128.985
 20
-162.746
 11
129
 21
-162
  0
LINE
  8
0
 10
129
 20
-162
 11
129
 21
162
  0
LINE
  8
0
 10
129
 20
162
 11
128.985
 21
162.746
  0
LINE
  8
0
 10
128.985
 20
162.746
 11
128.941
 21
163.491
  0
LINE
  8
0
 10
128.941
 20
163.491
 11
128.868
 21
164.233
  0
LINE
  8
0
 10
128.868
 20
164.233
 11
128.766
 21
164.972
  0
LINE
  8
0
 10
128.766
 20
164.972
 11
128.635
 21
165.707
  0
LINE
  8
0
 10
128.635
 20
165.707
 11
128.475
 21
166.435
  0
LINE
  8
0
 10
128.475
 20
166.435
 11
128.287
 21
167.157
  0
LINE
  8
0
 10
128.287
 20
167.157
 11
128.07
 21
167.871
  0
LINE
  8
0
 10
128.07
 20
167.871
 11
127.826
 21
168.576
  0
LINE
  8
0
 10
127.826
 20
168.576
 11
127.554
 21
169.271
  0
LINE
  8
0
 10
127.554
 20
169.271
 11
127.255
 21
169.955
  0
LINE
  8
0
 10
127.255
 20
169.955
 11
126.929
 21
170.626
  0
LINE
  8
0
 10
126.929
 20
170.626
 11
126.577
 21
171.284
  0
LINE
  8
0
 10
126.577
 20
171.284
 11
126.2
 21
171.927
  0
LINE
  8
0
 10
126.2
 20
171.927
 11
125.798
 21
172.556
  0
LINE
  8
0
 10
125.798
 20
172.556
 11
125.371
 21
173.168
  0
LINE
  8
0
 10
125.371
 20
173.168
 11
124.921
 21
173.763
  0
LINE
  8
0
 10
124.921
 20
173.763
 11
124.448
 21
174.34
  0
LINE
  8
0
 10
124.448
 20
174.34
 11
123.952
 21
174.897
  0
LINE
  8
0
 10
123.952
 20
174.897
 11
123.435
 21
175.435
  0
LINE
  8
0
 10
123.435
 20
175.435
 11
122.897
 21
175.952
  0
LINE
  8
0
 10
122.897
 20
175.952
 11
122.34
 21
176.448
  0
LINE
  8
0
 10
122.34
 20
176.448
 11
121.763
 21
176.921
  0
LINE
  8
0
 10
121.763
 20
176.921
 11
121.168
 21
177.371
  0
LINE
  8
0
 10
121.168
 20
177.371
 11
120.556
 21
177.798
  0
LINE
  8
0
 10
120.556
 20
177.798
 11
119.927
 21
178.2
  0
LINE
  8
0
 10
119.927
 20
178.2
 11
119.284
 21
178.577
  0
LINE
  8
0
 10
119.284
 20
178.577
 11
118.626
 21
178.929
  0
LINE
  8
0
 10
118.626
 20
178.929
 11
117.955
 21
179.255
  0
LINE
  8
0
 10
117.955
 20
179.255
 11
117.271
 21
179.554
  0
LINE
  8
0
 10
117.271
 20
179.554
 11
116.576
 21
179.826
  0
LINE
  8
0
 10
116.576
 20
179.826
 11
115.871
 21
180.07
  0
LINE
  8
0
 10
115.871
 20
180.07
 11
115.157
 21
180.287
  0
LINE
  8
0
 10
115.157
 20
180.287
 11
114.435
 21
180.475
  0
LINE
  8
0
 10
114.435
 20
180.475
 11
113.707
 21
180.635
  0
LINE
  8
0
 10
113.707
 20
180.635
 11
112.972
 21
180.766
  0
LINE
  8
0
 10
112.972
 20
180.766
 11
112.233
 21
180.868
  0
LINE
  8
0
 10
112.233
 20
180.868
 11
111.491
 21
180.941
  0
LINE
  8
0
 10
111.491
 20
180.941
 11
110.746
 21
180.985
  0
LINE
  8
0
 10
110.746
 20
180.985
 11
110
 21
181
  0
LINE
  8
0
 10
110
 20
181
 11
-110
 21
181
  0
LINE
  8
0
 10
-110
 20
181
 11
-110.746
 21
180.985
  0
LINE
  8
0
 10
-110.746
 20
180.985
 11
-111.491
 21
180.941
  0
LINE
  8
0
 10
-111.491
 20
180.941
 11
-112.233
 21
180.868
  0
LINE
  8
0
 10
-112.233
 20
180.868
 11
-112.972
 21
180.766
  0
LINE
  8
0
 10
-112.972
 20
180.766
 11
-113.707
 21
180.635
  0
LINE
  8
0
 10
-113.707
 20
180.635
 11
-114.435
 21
180.475
  0
LINE
  8
0
 10
-114.435
 20
180.475
 11
-115.157
 21
180.287
  0
LINE
  8
0
 10
-115.157
 20
180.287
 11
-115.871
 21
180.07
  0
LINE
  8
0
 10
-115.871
 20
180.07
 11
-116.576
 21
179.826
  0
LINE
  8
0
 10
-116.576
 20
179.826
 11
-117.271
 21
179.554
  0
LINE
  8
0
 10
-117.271
 20
179.554
 11
-117.955
 21
179.255
  0
LINE
  8
0
 10
-117.955
 20
179.255
 11
-118.626
 21
178.929
  0
LINE
  8
0
 10
-118.626
 20
178.929
 11
-119.284
 21
178.577
  0
LINE
  8
0
 10
-119.284
 20
178.577
 11
-119.927
 21
178.2
  0
LINE
  8
0
 10
-119.927
 20
178.2
 11
-120.556
 21
177.798
  0
LINE
  8
0
 10
-120.556
 20
177.798
 11
-121.168
 21
177.371
  0
LINE
  8
0
 10
-121.168
 20
177.371
 11
-121.763
 21
176.921
  0
LINE
  8
0
 10
-121.763
 20
176.921
 11
-122.34
 21
176.448
  0
LINE
  8
0
 10
-122.34
 20
176.448
 11
-122.897
 21
175.952
  0
LINE
  8
0
 10
-122.897
 20
175.952
 11
-123.435
 21
175.435
  0
LINE
  8
0
 10
-123.435
 20
175.435
 11
-123.952
 21
174.897
  0
LINE
  8
0
 10
-123.952
 20
174.897
 11
-124.448
 21
174.34
  0
LINE
  8
0
 10
-124.448
 20
174.34
 11
-124.921
 21
173.763
  0
LINE
  8
0
 10
-124.921
 20
173.763
 11
-125.371
 21
173.168
  0
LINE
  8
0
 10
-125.371
 20
173.168
 11
-125.798
 21
172.556
  0
LINE
  8
0
 10
-125.798
 20
172.556
 11
-126.2
 21
171.927
  0
LINE
  8
0
 10
-126.2
 20
171.927
 11
-126.577
 21
171.284
  0
LINE
  8
0
 10
-126.577
 20
171.284
 11
-126.929
 21
170.626
  0
LINE
  8
0
 10
-126.929
 20
170.626
 11
-127.255
 21
169.955
  0
LINE
  8
0
 10
-127.255
 20
169.955
 11
-127.554
 21
169.271
  0
LINE
  8
0
 10
-127.554
 20
169.271
 11
-127.826
 21
168.576
  0
LINE
  8
0
 10
-127.826
 20
168.576
 11
-128.07
 21
167.871
  0
LINE
  8
0
 10
-128.07
 20
167.871
 11
-128.287
 21
167.157
  0
LINE
  8
0
 10
-128.287
 20
167.157
 11
-128.475
 21
166.435
  0
LINE
  8
0
 10
-128.475
 20
166.435
 11
-128.635
 21
165.707
  0
LINE
  8
0
 10
-128.635
 20
165.707
 11
-128.766
 21
164.972
  0
LINE
  8
0
 10
-128.766
 20
164.972
 11
-128.868
 21
164.233
  0
LINE
  8
0
 10
-128.868
 20
164.233
 11
-128.941
 21
163.491
  0
LINE
  8
0
 10
-128.941
 20
163.491
 11
-128.985
 21
162.746
  0
LINE
  8
0
 10
-128.985
 20
162.746
 11
-129
 21
162
  0
LINE
  8
0
 10
-129
 20
162
 11
-129
 21
-162
  0
LINE
  8
0
 10
-129
 20
-162
 11
-128.985
 21
-162.746
  0
LINE
  8
0
 10
-128.985
 20
-162.746
 11
-128.941
 21
-163.491
  0
LINE
  8
0
 10
-128.941
 20
-163.491
 11
-128.868
 21
-164.233
  0
LINE
  8
0
 10
-128.868
 20
-164.233
 11
-128.766
 21
-164.972
  0
LINE
  8
0
 10
-128.766
 20
-164.972
 11
-128.635
 21
-165.707
  0
LINE
  8
0
 10
-128.635
 20
-165.707
 11
-128.475
 21
-166.435
  0
LINE
  8
0
 10
-128.475
 20
-166.435
 11
-128.287
 21
-167.157
  0
LINE
  8
0
 10
-128.287
 20
-167.157
 11
-128.07
 21
-167.871
  0
LINE
  8
0
 10
-128.07
 20
-167.871
 11
-127.826
 21
-168.576
  0
LINE
  8
0
 10
-127.826
 20
-168.576
 11
-127.554
 21
-169.271
  0
LINE
  8
0
 10
-127.554
 20
-169.271
 11
-127.255
 21
-169.955
  0
LINE
  8
0
 10
-127.255
 20
-169.955
 11
-126.929
 21
-170.626
  0
LINE
  8
0
 10
-126.929
 20
-170.626
 11
-126.577
 21
-171.284
  0
LINE
  8
0
 10
-126.577
 20
-171.284
 11
-126.2
 21
-171.927
  0
LINE
  8
0
 10
-126.2
 20
-171.927
 11
-125.798
 21
-172.556
  0
LINE
  8
0
 10
-125.798
 20
-172.556
 11
-125.371
 21
-173.168
  0
LINE
  8
0
 10
-125.371
 20
-173.168
 11
-124.921
 21
-173.763
  0
LINE
  8
0
 10
-124.921
 20
-173.763
 11
-124.448
 21
-174.34
  0
LINE
  8
0
 10
-124.448
 20
-174.34
 11
-123.952
 21
-174.897
  0
LINE
  8
0
 10
-123.952
 20
-174.897
 11
-123.435
 21
-175.435
  0
LINE
  8
0
 10
-123.435
 20
-175.435
 11
-122.897
 21
-175.952
  0
LINE
  8
0
 10
-122.897
 20
-175.952
 11
-122.34
 21
-176.448
  0
LINE
  8
0
 10
-122.34
 20
-176.448
 11
-121.763
 21
-176.921
  0
LINE
  8
0
 10
-121.763
 20
-176.921
 11
-121.168
 21
-177.371
  0
LINE
  8
0
 10
-121.168
 20
-177.371
 11
-120.556
 21
-177.798
  0
LINE
  8
0
 10
-120.556
 20
-177.798
 11
-119.927
 21
-178.2
  0
LINE
  8
0
 10
-119.927
 20
-178.2
 11
-119.284
 21
-178.577
  0
LINE
  8
0
 10
-119.284
 20
-178.577
 11
-118.626
 21
-178.929
  0
LINE
  8
0
 10
-118.626
 20
-178.929
 11
-117.955
 21
-179.255
  0
LINE
  8
0
 10
-117.955
 20
-179.255
 11
-117.271
 21
-179.554
  0
LINE
  8
0
 10
-117.271
 20
-179.554
 11
-116.576
 21
-179.826
  0
LINE
  8
0
 10
-116.576
 20
-179.826
 11
-115.871
 21
-180.07
  0
LINE
  8
0
 10
-115.871
 20
-180.07
 11
-115.157
 21
-180.287
  0
LINE
  8
0
 10
-115.157
 20
-180.287
 11
-114.435
 21
-180.475
  0
LINE
  8
0
 10
-114.435
 20
-180.475
 11
-113.707
 21
-180.635
  0
LINE
  8
0
 10
-113.707
 20
-180.635
 11
-112.972
 21
-180.766
  0
LINE
  8
0
 10
-112.972
 20
-180.766
 11
-112.233
 21
-180.868
  0
LINE
  8
0
 10
-112.233
 20
-180.868
 11
-111.491
 21
-180.941
  0
LINE
  8
0
 10
-111.491
 20
-180.941
 11
-110.746
 21
-180.985
  0
LINE
  8
0
 10
-110.746
 20
-180.985
 11
-110
 21
-181
  0
LINE
  8
0
 10
-110
 20
-181
 11
110
 21
-181
  0
LINE
  8
0
 10
110
 20
-181
 11
110.746
 21
-180.985
  0
LINE
  8
0
 10
-76.9968
 20
117.573
 11
-77.428
 21
117.599
  0
LINE
  8
0
 10
-77.428
 20
117.599
 11
-77.8579
 21
117.641
  0
LINE
  8
0
 10
-77.8579
 20
117.641
 11
-78.2857
 21
117.7
  0
LINE
  8
0
 10
-78.2857
 20
117.7
 11
-78.711
 21
117.776
  0
LINE
  8
0
 10
-78.711
 20
117.776
 11
-79.1329
 21
117.869
  0
LINE
  8
0
 10
-79.1329
 20
117.869
 11
-79.5508
 21
117.978
  0
LINE
  8
0
 10
-79.5508
 20
117.978
 11
-79.9642
 21
118.103
  0
LINE
  8
0
 10
-79.9642
 20
118.103
 11
-80.3723
 21
118.245
  0
LINE
  8
0
 10
-80.3723
 20
118.245
 11
-80.7745
 21
118.402
  0
LINE
  8
0
 10
-80.7745
 20
118.402
 11
-81.1702
 21
118.575
  0
LINE
  8
0
 10
-81.1702
 20
118.575
 11
-81.5589
 21
118.764
  0
LINE
  8
0
 10
-81.5589
 20
118.764
 11
-81.9398
 21
118.968
  0
LINE
  8
0
 10
-81.9398
 20
118.968
 11
-82.3125
 21
119.186
  0
LINE
  8
0
 10
-82.3125
 20
119.186
 11
-82.6762
 21
119.419
  0
LINE
  8
0
 10
-82.6762
 20
119.419
 11
-83.0306
 21
119.666
  0
LINE
  8
0
 10
-83.0306
 20
119.666
 11
-83.375
 21
119.926
  0
LINE
  8
0
 10
-83.375
 20
119.926
 11
-83.7089
 21
120.201
  0
LINE
  8
0
 10
-83.7089
 20
120.201
 11
-84.0318
 21
120.487
  0
LINE
  8
0
 10
-84.0318
 20
120.487
 11
-84.3431
 21
120.787
  0
LINE
  8
0
 10
-84.3431
 20
120.787
 11
-117.778
 21
154.222
  0
LINE
  8
0
 10
-117.778
 20
154.222
 11
-118.078
 21
154.533
  0
LINE
  8
0
 10
-118.078
 20
154.533
 11
-118.364
 21
154.856
  0
LINE
  8
0
 10
-118.364
 20
154.856
 11
-118.638
 21
155.19
  0
LINE
  8
0
 10
-118.638
 20
155.19
 11
-118.899
 21
155.534
  0
LINE
  8
0
 10
-118.899
 20
155.534
 11
-119.146
 21
155.889
  0
LINE
  8
0
 10
-119.146
 20
155.889
 11
-119.379
 21
156.253
  0
LINE
  8
0
 10
-119.379
 20
156.253
 11
-119.597
 21
156.625
  0
LINE
  8
0
 10
-119.597
 20
156.625
 11
-119.801
 21
157.006
  0
LINE
  8
0
 10
-119.801
 20
157.006
 11
-119.99
 21
157.395
  0
LINE
  8
0
 10
-119.99
 20
157.395
 11
-120.163
 21
157.79
  0
LINE
  8
0
 10
-120.163
 20
157.79
 11
-120.32
 21
158.193
  0
LINE
  8
0
 10
-120.32
 20
158.193
 11
-120.462
 21
158.601
  0
LINE
  8
0
 10
-120.462
 20
158.601
 11
-120.587
 21
159.014
  0
LINE
  8
0
 10
-120.587
 20
159.014
 11
-120.696
 21
159.432
  0
LINE
  8
0
 10
-120.696
 20
159.432
 11
-120.789
 21
159.854
  0
LINE
  8
0
 10
-120.789
 20
159.854
 11
-120.865
 21
160.279
  0
LINE
  8
0
 10
-120.865
 20
160.279
 11
-120.924
 21
160.707
  0
LINE
  8
0
 10
-120.924
 20
160.707
 11
-120.966
 21
161.137
  0
LINE
  8
0
 10
-120.966
 20
161.137
 11
-120.992
 21
161.568
  0
LINE
  8
0
 10
-120.992
 20
161.568
 11
-121
 21
162
  0
LINE
  8
0
 10
-121
 20
162
 11
-120.992
 21
162.432
  0
LINE
  8
0
 10
-120.992
 20
162.432
 11
-120.966
 21
162.863
  0
LINE
  8
0
 10
-120.966
 20
162.863
 11
-120.924
 21
163.293
  0
LINE
  8
0
 10
-120.924
 20
163.293
 11
-120.865
 21
163.721
  0
LINE
  8
0
 10
-120.865
 20
163.721
 11
-120.789
 21
164.146
  0
LINE
  8
0
 10
-120.789
 20
164.146
 11
-120.696
 21
164.568
  0
LINE
  8
0
 10
-120.696
 20
164.568
 11
-120.587
 21
164.986
  0
LINE
  8
0
 10
-120.587
 20
164.986
 11
-120.462
 21
165.399
  0
LINE
  8
0
 10
-120.462
 20
165.399
 11
-120.32
 21
165.807
  0
LINE
  8
0
 10
-120.32
 20
165.807
 11
-120.163
 21
166.21
  0
LINE
  8
0
 10
-120.163
 20
166.21
 11
-119.99
 21
166.605
  0
LINE
  8
0
 10
-119.99
 20
166.605
 11
-119.801
 21
166.994
  0
LINE
  8
0
 10
-119.801
 20
166.994
 11
-119.597
 21
167.375
  0
LINE
  8
0
 10
-119.597
 20
167.375
 11
-119.379
 21
167.747
  0
LINE
  8
0
 10
-119.379
 20
167.747
 11
-119.146
 21
168.111
  0
LINE
  8
0
 10
-119.146
 20
168.111
 11
-118.899
 21
168.466
  0
LINE
  8
0
 10
-118.899
 20
168.466
 11
-118.638
 21
168.81
  0
LINE
  8
0
 10
-118.638
 20
168.81
 11
-118.364
 21
169.144
  0
LINE
  8
0
 10
-118.364
 20
169.144
 11
-118.078
 21
169.467
  0
LINE
  8
0
 10
-118.078
 20
169.467
 11
-117.778
 21
169.778
  0
LINE
  8
0
 10
-117.778
 20
169.778
 11
-117.467
 21
170.078
  0
LINE
  8
0
 10
-117.467
 20
170.078
 11
-117.144
 21
170.364
  0
LINE
  8
0
 10
-117.144
 20
170.364
 11
-116.81
 21
170.638
  0
LINE
  8
0
 10
-116.81
 20
170.638
 11
-116.466
 21
170.899
  0
LINE
  8
0
 10
-116.466
 20
170.899
 11
-116.111
 21
171.146
  0
LINE
  8
0
 10
-116.111
 20
171.146
 11
-115.747
 21
171.379
  0
LINE
  8
0
 10
-115.747
 20
171.379
 11
-115.375
 21
171.597
  0
LINE
  8
0
 10
-115.375
 20
171.597
 11
-114.994
 21
171.801
  0
LINE
  8
0
 10
-114.994
 20
171.801
 11
-114.605
 21
171.99
  0
LINE
  8
0
 10
-114.605
 20
171.99
 11
-114.21
 21
172.163
  0
LINE
  8
0
 10
-114.21
 20
172.163
 11
-113.807
 21
172.32
  0
LINE
  8
0
 10
-113.807
 20
172.32
 11
-113.399
 21
172.462
  0
LINE
  8
0
 10
-113.399
 20
172.462
 11
-112.986
 21
172.587
  0
LINE
  8
0
 10
-112.986
 20
172.587
 11
-112.568
 21
172.696
  0
LINE
  8
0
 10
-112.568
 20
172.696
 11
-112.146
 21
172.789
  0
LINE
  8
0
 10
-112.146
 20
172.789
 11
-111.721
 21
172.865
  0
LINE
  8
0
 10
-111.721
 20
172.865
 11
-111.293
 21
172.924
  0
LINE
  8
0
 10
-111.293
 20
172.924
 11
-110.863
 21
172.966
  0
LINE
  8
0
 10
-110.863
 20
172.966
 11
-110.432
 21
172.992
  0
LINE
  8
0
 10
-110.432
 20
172.992
 11
-110
 21
173
  0
LINE
  8
0
 10
-110
 20
173
 11
-109.568
 21
172.992
  0
LINE
  8
0
 10
-109.568
 20
172.992
 11
-109.137
 21
172.966
  0
LINE
  8
0
 10
-109.137
 20
172.966
 11
-108.707
 21
172.924
  0
LINE
  8
0
 10
-108.707
 20
172.924
 11
-108.279
 21
172.865
  0
LINE
  8
0
 10
-108.279
 20
172.865
 11
-107.854
 21
172.789
  0
LINE
  8
0
 10
-107.854
 20
172.789
 11
-107.432
 21
172.696
  0
LINE
  8
0
 10
-107.432
 20
172.696
 11
-107.014
 21
172.587
  0
LINE
  8
0
 10
-107.014
 20
172.587
 11
-106.601
 21
172.462
  0
LINE
  8
0
 10
-106.601
 20
172.462
 11
-106.193
 21
172.32
  0
LINE
  8
0
 10
-106.193
 20
172.32
 11
-105.79
 21
172.163
  0
LINE
  8
0
 10
-105.79
 20
172.163
 11
-105.395
 21
171.99
  0
LINE
  8
0
 10
-105.395
 20
171.99
 11
-105.006
 21
171.801
  0
LINE
  8
0
 10
-105.006
 20
171.801
 11
-104.625
 21
171.597
  0
LINE
  8
0
 10
-104.625
 20
171.597
 11
-104.253
 21
171.379
  0
LINE
  8
0
 10
-104.253
 20
171.379
 11
-103.889
 21
171.146
  0
LINE
  8
0
 10
-103.889
 20
171.146
 11
-103.534
 21
170.899
  0
LINE
  8
0
 10
-103.534
 20
170.899
 11
-103.19
 21
170.638
  0
LINE
  8
0
 10
-103.19
 20
170.638
 11
-102.856
 21
170.364
  0
LINE
  8
0
 10
-102.856
 20
170.364
 11
-102.533
 21
170.078
  0
LINE
  8
0
 10
-102.533
 20
170.078
 11
-102.222
 21
169.778
  0
LINE
  8
0
 10
-102.222
 20
169.778
 11
-68.7868
 21
136.343
  0
LINE
  8
0
 10
-68.7868
 20
136.343
 11
-68.4874
 21
136.032
  0
LINE
  8
0
 10
-68.4874
 20
136.032
 11
-68.2005
 21
135.709
  0
LINE
  8
0
 10
-68.2005
 20
135.709
 11
-67.9265
 21
135.375
  0
LINE
  8
0
 10
-67.9265
 20
135.375
 11
-67.6658
 21
135.031
  0
LINE
  8
0
 10
-67.6658
 20
135.031
 11
-67.4188
 21
134.676
  0
LINE
  8
0
 10
-67.4188
 20
134.676
 11
-67.1859
 21
134.312
  0
LINE
  8
0
 10
-67.1859
 20
134.312
 11
-66.9675
 21
133.94
  0
LINE
  8
0
 10
-66.9675
 20
133.94
 11
-66.7639
 21
133.559
  0
LINE
  8
0
 10
-66.7639
 20
133.559
 11
-66.5754
 21
133.17
  0
LINE
  8
0
 10
-66.5754
 20
133.17
 11
-66.4023
 21
132.774
  0
LINE
  8
0
 10
-66.4023
 20
132.774
 11
-66.2449
 21
132.372
  0
LINE
  8
0
 10
-66.2449
 20
132.372
 11
-66.1033
 21
131.964
  0
LINE
  8
0
 10
-66.1033
 20
131.964
 11
-65.978
 21
131.551
  0
LINE
  8
0
 10
-65.978
 20
131.551
 11
-65.8689
 21
131.133
  0
LINE
  8
0
 10
-65.8689
 20
131.133
 11
-65.7763
 21
130.711
  0
LINE
  8
0
 10
-65.7763
 20
130.711
 11
-65.7004
 21
130.286
  0
LINE
  8
0
 10
-65.7004
 20
130.286
 11
-65.6412
 21
129.858
  0
LINE
  8
0
 10
-65.6412
 20
129.858
 11
-65.5989
 21
129.428
  0
LINE
  8
0
 10
-65.5989
 20
129.428
 11
-65.5734
 21
128.997
  0
LINE
  8
0
 10
-65.5734
 20
128.997
 11
-65.565
 21
128.565
  0
LINE
  8
0
 10
-65.565
 20
128.565
 11
-65.5734
 21
128.133
  0
LINE
  8
0
 10
-65.5734
 20
128.133
 11
-65.5989
 21
127.702
  0
LINE
  8
0
 10
-65.5989
 20
127.702
 11
-65.6412
 21
127.272
  0
LINE
  8
0
 10
-65.6412
 20
127.272
 11
-65.7004
 21
126.844
  0
LINE
  8
0
 10
-65.7004
 20
126.844
 11
-65.7763
 21
126.419
  0
LINE
  8
0
 10
-65.7763
 20
126.419
 11
-65.8689
 21
125.997
  0
LINE
  8
0
 10
-65.8689
 20
125.997
 11
-65.978
 21
125.579
  0
LINE
  8
0
 10
-65.978
 20
125.579
 11
-66.1033
 21
125.166
  0
LINE
  8
0
 10
-66.1033
 20
125.166
 11
-66.2449
 21
124.758
  0
LINE
  8
0
 10
-66.2449
 20
124.758
 11
-66.4023
 21
124.355
  0
LINE
  8
0
 10
-66.4023
 20
124.355
 11
-66.5754
 21
123.96
  0
LINE
  8
0
 10
-66.5754
 20
123.96
 11
-66.7639
 21
123.571
  0
LINE
  8
0
 10
-66.7639
 20
123.571
 11
-66.9675
 21
123.19
  0
LINE
  8
0
 10
-66.9675
 20
123.19
 11
-67.1859
 21
122.817
  0
LINE
  8
0
 10
-67.1859
 20
122.817
 11
-67.4188
 21
122.454
  0
LINE
  8
0
 10
-67.4188
 20
122.454
 11
-67.6658
 21
122.099
  0
LINE
  8
0
 10
-67.6658
 20
122.099
 11
-67.9265
 21
121.755
  0
LINE
  8
0
 10
-67.9265
 20
121.755
 11
-68.2005
 21
121.421
  0
LINE
  8
0
 10
-68.2005
 20
121.421
 11
-68.4874
 21
121.098
  0
LINE
  8
0
 10
-68.4874
 20
121.098
 11
-68.7868
 21
120.787
  0
LINE
  8
0
 10
-68.7868
 20
120.787
 11
-69.0982
 21
120.487
  0
LINE
  8
0
 10
-69.0982
 20
120.487
 11
-69.421
 21
120.201
  0
LINE
  8
0
 10
-69.421
 20
120.201
 11
-69.7549
 21
119.926
  0
LINE
  8
0
 10
-69.7549
 20
119.926
 11
-70.0993
 21
119.666
  0
LINE
  8
0
 10
-70.0993
 20
119.666
 11
-70.4537
 21
119.419
  0
LINE
  8
0
 10
-70.4537
 20
119.419
 11
-70.8175
 21
119.186
  0
LINE
  8
0
 10
-70.8175
 20
119.186
 11
-71.1901
 21
118.968
  0
LINE
  8
0
 10
-71.1901
 20
118.968
 11
-71.5711
 21
118.764
  0
LINE
  8
0
 10
-71.5711
 20
118.764
 11
-71.9597
 21
118.575
  0
LINE
  8
0
 10
-71.9597
 20
118.575
 11
-72.3554
 21
118.402
  0
LINE
  8
0
 10
-72.3554
 20
118.402
 11
-72.7577
 21
118.245
  0
LINE
  8
0
 10
-72.7577
 20
118.245
 11
-73.1658
 21
118.103
  0
LINE
  8
0
 10
-73.1658
 20
118.103
 11
-73.5791
 21
117.978
  0
LINE
  8
0
 10
-73.5791
 20
117.978
 11
-73.9971
 21
117.869
  0
LINE
  8
0
 10
-73.9971
 20
117.869
 11
-74.419
 21
117.776
  0
LINE
  8
0
 10
-74.419
 20
117.776
 11
-74.8442
 21
117.7
  0
LINE
  8
0
 10
-74.8442
 20
117.7
 11
-75.272
 21
117.641
  0
LINE
  8
0
 10
-75.272
 20
117.641
 11
-75.7019
 21
117.599
  0
LINE
  8
0
 10
-75.7019
 20
117.599
 11
-76.1331
 21
117.573
  0
LINE
  8
0
 10
-76.1331
 20
117.573
 11
-76.565
 21
117.565
  0
LINE
  8
0
 10
-76.565
 20
117.565
 11
-76.9968
 21
117.573
  0
LINE
  8
0
 10
76.1331
 20
117.573
 11
75.7019
 21
117.599
  0
LINE
  8
0
 10
75.7019
 20
117.599
 11
75.272
 21
117.641
  0
LINE
  8
0
 10
75.272
 20
117.641
 11
74.8442
 21
117.7
  0
LINE
  8
0
 10
74.8442
 20
117.7
 11
74.419
 21
117.776
  0
LINE
  8
0
 10
74.419
 20
117.776
 11
73.9971
 21
117.869
  0
LINE
  8
0
 10
73.9971
 20
117.869
 11
73.5791
 21
117.978
  0
LINE
  8
0
 10
73.5791
 20
117.978
 11
73.1658
 21
118.103
  0
LINE
  8
0
 10
73.1658
 20
118.103
 11
72.7577
 21
118.245
  0
LINE
  8
0
 10
72.7577
 20
118.245
 11
72.3554
 21
118.402
  0
LINE
  8
0
 10
72.3554
 20
118.402
 11
71.9597
 21
118.575
  0
LINE
  8
0
 10
71.9597
 20
118.575
 11
71.5711
 21
118.764
  0
LINE
  8
0
 10
71.5711
 20
118.764
 11
71.1901
 21
118.968
  0
LINE
  8
0
 10
71.1901
 20
118.968
 11
70.8175
 21
119.186
  0
LINE
  8
0
 10
70.8175
 20
119.186
 11
70.4537
 21
119.419
  0
LINE
  8
0
 10
70.4537
 20
119.419
 11
70.0993
 21
119.666
  0
LINE
  8
0
 10
70.0993
 20
119.666
 11
69.7549
 21
119.926
  0
LINE
  8
0
 10
69.7549
 20
119.926
 11
69.421
 21
120.201
  0
LINE
  8
0
 10
69.421
 20
120.201
 11
69.0982
 21
120.487
  0
LINE
  8
0
 10
69.0982
 20
120.487
 11
68.7868
 21
120.787
  0
LINE
  8
0
 10
68.7868
 20
120.787
 11
68.4874
 21
121.098
  0
LINE
  8
0
 10
68.4874
 20
121.098
 11
68.2005
 21
121.421
  0
LINE
  8
0
 10
68.2005
 20
121.421
 11
67.9265
 21
121.755
  0
LINE
  8
0
 10
67.9265
 20
121.755
 11
67.6658
 21
122.099
  0
LINE
  8
0
 10
67.6658
 20
122.099
 11
67.4188
 21
122.454
  0
LINE
  8
0
 10
67.4188
 20
122.454
 11
67.1859
 21
122.817
  0
LINE
  8
0
 10
67.1859
 20
122.817
 11
66.9675
 21
123.19
  0
LINE
  8
0
 10
66.9675
 20
123.19
 11
66.7639
 21
123.571
  0
LINE
  8
0
 10
66.7639
 20
123.571
 11
66.5754
 21
123.96
  0
LINE
  8
0
 10
66.5754
 20
123.96
 11
66.4023
 21
124.355
  0
LINE
  8
0
 10
66.4023
 20
124.355
 11
66.2449
 21
124.758
  0
LINE
  8
0
 10
66.2449
 20
124.758
 11
66.1033
 21
125.166
  0
LINE
  8
0
 10
66.1033
 20
125.166
 11
65.978
 21
125.579
  0
LINE
  8
0
 10
65.978
 20
125.579
 11
65.8689
 21
125.997
  0
LINE
  8
0
 10
65.8689
 20
125.997
 11
65.7763
 21
126.419
  0
LINE
  8
0
 10
65.7763
 20
126.419
 11
65.7004
 21
126.844
  0
LINE
  8
0
 10
65.7004
 20
126.844
 11
65.6412
 21
127.272
  0
LINE
  8
0
 10
65.6412
 20
127.272
 11
65.5989
 21
127.702
  0
LINE
  8
0
 10
65.5989
 20
127.702
 11
65.5734
 21
128.133
  0
LINE
  8
0
 10
65.5734
 20
128.133
 11
65.565
 21
128.565
  0
LINE
  8
0
 10
65.565
 20
128.565
 11
65.5734
 21
128.997
  0
LINE
  8
0
 10
65.5734
 20
128.997
 11
65.5989
 21
129.428
  0
LINE
  8
0
 10
65.5989
 20
129.428
 11
65.6412
 21
129.858
  0
LINE
  8
0
 10
65.6412
 20
129.858
 11
65.7004
 21
130.286
  0
LINE
  8
0
 10
65.7004
 20
130.286
 11
65.7763
 21
130.711
  0
LINE
  8
0
 10
65.7763
 20
130.711
 11
65.8689
 21
131.133
  0
LINE
  8
0
 10
65.8689
 20
131.133
 11
65.978
 21
131.551
  0
LINE
  8
0
 10
65.978
 20
131.551
 11
66.1033
 21
131.964
  0
LINE
  8
0
 10
66.1033
 20
131.964
 11
66.2449
 21
132.372
  0
LINE
  8
0
 10
66.2449
 20
132.372
 11
66.4023
 21
132.774
  0
LINE
  8
0
 10
66.4023
 20
132.774
 11
66.5754
 21
133.17
  0
LINE
  8
0
 10
66.5754
 20
133.17
 11
66.7639
 21
133.559
  0
LINE
  8
0
 10
66.7639
 20
133.559
 11
66.9675
 21
133.94
  0
LINE
  8
0
 10
66.9675
 20
133.94
 11
67.1859
 21
134.312
  0
LINE
  8
0
 10
67.1859
 20
134.312
 11
67.4188
 21
134.676
  0
LINE
  8
0
 10
67.4188
 20
134.676
 11
67.6658
 21
135.031
  0
LINE
  8
0
 10
67.6658
 20
135.031
 11
67.9265
 21
135.375
  0
LINE
  8
0
 10
67.9265
 20
135.375
 11
68.2005
 21
135.709
  0
LINE
  8
0
 10
68.2005
 20
135.709
 11
68.4874
 21
136.032
  0
LINE
  8
0
 10
68.4874
 20
136.032
 11
68.7868
 21
136.343
  0
LINE
  8
0
 10
68.7868
 20
136.343
 11
102.222
 21
169.778
  0
LINE
  8
0
 10
102.222
 20
169.778
 11
102.533
 21
170.078
  0
LINE
  8
0
 10
102.533
 20
170.078
 11
102.856
 21
170.364
  0
LINE
  8
0
 10
102.856
 20
170.364
 11
103.19
 21
170.638
  0
LINE
  8
0
 10
103.19
 20
170.638
 11
103.534
 21
170.899
  0
LINE
  8
0
 10
103.534
 20
170.899
 11
103.889
 21
171.146
  0
LINE
  8
0
 10
103.889
 20
171.146
 11
104.253
 21
171.379
  0
LINE
  8
0
 10
104.253
 20
171.379
 11
104.625
 21
171.597
  0
LINE
  8
0
 10
104.625
 20
171.597
 11
105.006
 21
171.801
  0
LINE
  8
0
 10
105.006
 20
171.801
 11
105.395
 21
171.99
  0
LINE
  8
0
 10
105.395
 20
171.99
 11
105.79
 21
172.163
  0
LINE
  8
0
 10
105.79
 20
172.163
 11
106.193
 21
172.32
  0
LINE
  8
0
 10
106.193
 20
172.32
 11
106.601
 21
172.462
  0
LINE
  8
0
 10
106.601
 20
172.462
 11
107.014
 21
172.587
  0
LINE
  8
0
 10
107.014
 20
172.587
 11
107.432
 21
172.696
  0
LINE
  8
0
 10
107.432
 20
172.696
 11
107.854
 21
172.789
  0
LINE
  8
0
 10
107.854
 20
172.789
 11
108.279
 21
172.865
  0
LINE
  8
0
 10
108.279
 20
172.865
 11
108.707
 21
172.924
  0
LINE
  8
0
 10
108.707
 20
172.924
 11
109.137
 21
172.966
  0
LINE
  8
0
 10
109.137
 20
172.966
 11
109.568
 21
172.992
  0
LINE
  8
0
 10
109.568
 20
172.992
 11
110
 21
173
  0
LINE
  8
0
 10
110
 20
173
 11
110.432
 21
172.992
  0
LINE
  8
0
 10
110.432
 20
172.992
 11
110.863
 21
172.966
  0
LINE
  8
0
 10
110.863
 20
172.966
 11
111.293
 21
172.924
  0
LINE
  8
0
 10
111.293
 20
172.924
 11
111.721
 21
172.865
  0
LINE
  8
0
 10
111.721
 20
172.865
 11
112.146
 21
172.789
  0
LINE
  8
0
 10
112.146
 20
172.789
 11
112.568
 21
172.696
  0
LINE
  8
0
 10
112.568
 20
172.696
 11
112.986
 21
172.587
  0
LINE
  8
0
 10
112.986
 20
172.587
 11
113.399
 21
172.462
  0
LINE
  8
0
 10
113.399
 20
172.462
 11
113.807
 21
172.32
  0
LINE
  8
0
 10
113.807
 20
172.32
 11
114.21
 21
172.163
  0
LINE
  8
0
 10
114.21
 20
172.163
 11
114.605
 21
171.99
  0
LINE
  8
0
 10
114.605
 20
171.99
 11
114.994
 21
171.801
  0
LINE
  8
0
 10
114.994
 20
171.801
 11
115.375
 21
171.597
  0
LINE
  8
0
 10
115.375
 20
171.597
 11
115.747
 21
171.379
  0
LINE
  8
0
 10
115.747
 20
171.379
 11
116.111
 21
171.146
  0
LINE
  8
0
 10
116.111
 20
171.146
 11
116.466
 21
170.899
  0
LINE
  8
0
 10
116.466
 20
170.899
 11
116.81
 21
170.638
  0
LINE
  8
0
 10
116.81
 20
170.638
 11
117.144
 21
170.364
  0
LINE
  8
0
 10
117.144
 20
170.364
 11
117.467
 21
170.078
  0
LINE
  8
0
 10
117.467
 20
170.078
 11
117.778
 21
169.778
  0
LINE
  8
0
 10
117.778
 20
169.778
 11
118.078
 21
169.467
  0
LINE
  8
0
 10
118.078
 20
169.467
 11
118.364
 21
169.144
  0
LINE
  8
0
 10
118.364
 20
169.144
 11
118.638
 21
168.81
  0
LINE
  8
0
 10
118.638
 20
168.81
 11
118.899
 21
168.466
  0
LINE
  8
0
 10
118.899
 20
168.466
 11
119.146
 21
168.111
  0
LINE
  8
0
 10
119.146
 20
168.111
 11
119.379
 21
167.747
  0
LINE
  8
0
 10
119.379
 20
167.747
 11
119.597
 21
167.375
  0
LINE
  8
0
 10
119.597
 20
167.375
 11
119.801
 21
166.994
  0
LINE
  8
0
 10
119.801
 20
166.994
 11
119.99
 21
166.605
  0
LINE
  8
0
 10
119.99
 20
166.605
 11
120.163
 21
166.21
  0
LINE
  8
0
 10
120.163
 20
166.21
 11
120.32
 21
165.807
  0
LINE
  8
0
 10
120.32
 20
165.807
 11
120.462
 21
165.399
  0
LINE
  8
0
 10
120.462
 20
165.399
 11
120.587
 21
164.986
  0
LINE
  8
0
 10
120.587
 20
164.986
 11
120.696
 21
164.568
  0
LINE
  8
0
 10
120.696
 20
164.568
 11
120.789
 21
164.146
  0
LINE
  8
0
 10
120.789
 20
164.146
 11
120.865
 21
163.721
  0
LINE
  8
0
 10
120.865
 20
163.721
 11
120.924
 21
163.293
  0
LINE
  8
0
 10
120.924
 20
163.293
 11
120.966
 21
162.863
  0
LINE
  8
0
 10
120.966
 20
162.863
 11
120.992
 21
162.432
  0
LINE
  8
0
 10
120.992
 20
162.432
 11
121
 21
162
  0
LINE
  8
0
 10
121
 20
162
 11
120.992
 21
161.568
  0
LINE
  8
0
 10
120.992
 20
161.568
 11
120.966
 21
161.137
  0
LINE
  8
0
 10
120.966
 20
161.137
 11
120.924
 21
160.707
  0
LINE
  8
0
 10
120.924
 20
160.707
 11
120.865
 21
160.279
  0
LINE
  8
0
 10
120.865
 20
160.279
 11
120.789
 21
159.854
  0
LINE
  8
0
 10
120.789
 20
159.854
 11
120.696
 21
159.432
  0
LINE
  8
0
 10
120.696
 20
159.432
 11
120.587
 21
159.014
  0
LINE
  8
0
 10
120.587
 20
159.014
 11
120.462
 21
158.601
  0
LINE
  8
0
 10
120.462
 20
158.601
 11
120.32
 21
158.193
  0
LINE
  8
0
 10
120.32
 20
158.193
 11
120.163
 21
157.79
  0
LINE
  8
0
 10
120.163
 20
157.79
 11
119.99
 21
157.395
  0
LINE
  8
0
 10
119.99
 20
157.395
 11
119.801
 21
157.006
  0
LINE
  8
0
 10
119.801
 20
157.006
 11
119.597
 21
156.625
  0
LINE
  8
0
 10
119.597
 20
156.625
 11
119.379
 21
156.253
  0
LINE
  8
0
 10
119.379
 20
156.253
 11
119.146
 21
155.889
  0
LINE
  8
0
 10
119.146
 20
155.889
 11
118.899
 21
155.534
  0
LINE
  8
0
 10
118.899
 20
155.534
 11
118.638
 21
155.19
  0
LINE
  8
0
 10
118.638
 20
155.19
 11
118.364
 21
154.856
  0
LINE
  8
0
 10
118.364
 20
154.856
 11
118.078
 21
154.533
  0
LINE
  8
0
 10
118.078
 20
154.533
 11
117.778
 21
154.222
  0
LINE
  8
0
 10
117.778
 20
154.222
 11
84.3431
 21
120.787
  0
LINE
  8
0
 10
84.3431
 20
120.787
 11
84.0318
 21
120.487
  0
LINE
  8
0
 10
84.0318
 20
120.487
 11
83.7089
 21
120.201
  0
LINE
  8
0
 10
83.7089
 20
120.201
 11
83.375
 21
119.926
  0
LINE
  8
0
 10
83.375
 20
119.926
 11
83.0306
 21
119.666
  0
LINE
  8
0
 10
83.0306
 20
119.666
 11
82.6762
 21
119.419
  0
LINE
  8
0
 10
82.6762
 20
119.419
 11
82.3125
 21
119.186
  0
LINE
  8
0
 10
82.3125
 20
119.186
 11
81.9398
 21
118.968
  0
LINE
  8
0
 10
81.9398
 20
118.968
 11
81.5589
 21
118.764
  0
LINE
  8
0
 10
81.5589
 20
118.764
 11
81.1702
 21
118.575
  0
LINE
  8
0
 10
81.1702
 20
118.575
 11
80.7745
 21
118.402
  0
LINE
  8
0
 10
80.7745
 20
118.402
 11
80.3723
 21
118.245
  0
LINE
  8
0
 10
80.3723
 20
118.245
 11
79.9642
 21
118.103
  0
LINE
  8
0
 10
79.9642
 20
118.103
 11
79.5508
 21
117.978
  0
LINE
  8
0
 10
79.5508
 20
117.978
 11
79.1329
 21
117.869
  0
LINE
  8
0
 10
79.1329
 20
117.869
 11
78.711
 21
117.776
  0
LINE
  8
0
 10
78.711
 20
117.776
 11
78.2857
 21
117.7
  0
LINE
  8
0
 10
78.2857
 20
117.7
 11
77.8579
 21
117.641
  0
LINE
  8
0
 10
77.8579
 20
117.641
 11
77.428
 21
117.599
  0
LINE
  8
0
 10
77.428
 20
117.599
 11
76.9968
 21
117.573
  0
LINE
  8
0
 10
76.9968
 20
117.573
 11
76.565
 21
117.565
  0
LINE
  8
0
 10
76.565
 20
117.565
 11
76.1331
 21
117.573
  0
LINE
  8
0
 10
-110.432
 20
-172.992
 11
-110.863
 21
-172.966
  0
LINE
  8
0
 10
-110.863
 20
-172.966
 11
-111.293
 21
-172.924
  0
LINE
  8
0
 10
-111.293
 20
-172.924
 11
-111.721
 21
-172.865
  0
LINE
  8
0
 10
-111.721
 20
-172.865
 11
-112.146
 21
-172.789
  0
LINE
  8
0
 10
-112.146
 20
-172.789
 11
-112.568
 21
-172.696
  0
LINE
  8
0
 10
-112.568
 20
-172.696
 11
-112.986
 21
-172.587
  0
LINE
  8
0
 10
-112.986
 20
-172.587
 11
-113.399
 21
-172.462
  0
LINE
  8
0
 10
-113.399
 20
-172.462
 11
-113.807
 21
-172.32
  0
LINE
  8
0
 10
-113.807
 20
-172.32
 11
-114.21
 21
-172.163
  0
LINE
  8
0
 10
-114.21
 20
-172.163
 11
-114.605
 21
-171.99
  0
LINE
  8
0
 10
-114.605
 20
-171.99
 11
-114.994
 21
-171.801
  0
LINE
  8
0
 10
-114.994
 20
-171.801
 11
-115.375
 21
-171.597
  0
LINE
  8
0
 10
-115.375
 20
-171.597
 11
-115.747
 21
-171.379
  0
LINE
  8
0
 10
-115.747
 20
-171.379
 11
-116.111
 21
-171.146
  0
LINE
  8
0
 10
-116.111
 20
-171.146
 11
-116.466
 21
-170.899
  0
LINE
  8
0
 10
-116.466
 20
-170.899
 11
-116.81
 21
-170.638
  0
LINE
  8
0
 10
-116.81
 20
-170.638
 11
-117.144
 21
-170.364
  0
LINE
  8
0
 10
-117.144
 20
-170.364
 11
-117.467
 21
-170.078
  0
LINE
  8
0
 10
-117.467
 20
-170.078
 11
-117.778
 21
-169.778
  0
LINE
  8
0
 10
-117.778
 20
-169.778
 11
-118.078
 21
-169.467
  0
LINE
  8
0
 10
-118.078
 20
-169.467
 11
-118.364
 21
-169.144
  0
LINE
  8
0
 10
-118.364
 20
-169.144
 11
-118.638
 21
-168.81
  0
LINE
  8
0
 10
-118.638
 20
-168.81
 11
-118.899
 21
-168.466
  0
LINE
  8
0
 10
-118.899
 20
-168.466
 11
-119.146
 21
-168.111
  0
LINE
  8
0
 10
-119.146
 20
-168.111
 11
-119.379
 21
-167.747
  0
LINE
  8
0
 10
-119.379
 20
-167.747
 11
-119.597
 21
-167.375
  0
LINE
  8
0
 10
-119.597
 20
-167.375
 11
-119.801
 21
-166.994
  0
LINE
  8
0
 10
-119.801
 20
-166.994
 11
-119.99
 21
-166.605
  0
LINE
  8
0
 10
-119.99
 20
-166.605
 11
-120.163
 21
-166.21
  0
LINE
  8
0
 10
-120.163
 20
-166.21
 11
-120.32
 21
-165.807
  0
LINE
  8
0
 10
-120.32
 20
-165.807
 11
-120.462
 21
-165.399
  0
LINE
  8
0
 10
-120.462
 20
-165.399
 11
-120.587
 21
-164.986
  0
LINE
  8
0
 10
-120.587
 20
-164.986
 11
-120.696
 21
-164.568
  0
LINE
  8
0
 10
-120.696
 20
-164.568
 11
-120.789
 21
-164.146
  0
LINE
  8
0
 10
-120.789
 20
-164.146
 11
-120.865
 21
-163.721
  0
LINE
  8
0
 10
-120.865
 20
-163.721
 11
-120.924
 21
-163.293
  0
LINE
  8
0
 10
-120.924
 20
-163.293
 11
-120.966
 21
-162.863
  0
LINE
  8
0
 10
-120.966
 20
-162.863
 11
-120.992
 21
-162.432
  0
LINE
  8
0
 10
-120.992
 20
-162.432
 11
-121
 21
-162
  0
LINE
  8
0
 10
-121
 20
-162
 11
-120.992
 21
-161.568
  0
LINE
  8
0
 10
-120.992
 20
-161.568
 11
-120.966
 21
-161.137
  0
LINE
  8
0
 10
-120.966
 20
-161.137
 11
-120.924
 21
-160.707
  0
LINE
  8
0
 10
-120.924
 20
-160.707
 11
-120.865
 21
-160.279
  0
LINE
  8
0
 10
-120.865
 20
-160.279
 11
-120.789
 21
-159.854
  0
LINE
  8
0
 10
-120.789
 20
-159.854
 11
-120.696
 21
-159.432
  0
LINE
  8
0
 10
-120.696
 20
-159.432
 11
-120.587
 21
-159.014
  0
LINE
  8
0
 10
-120.587
 20
-159.014
 11
-120.462
 21
-158.601
  0
LINE
  8
0
 10
-120.462
 20
-158.601
 11
-120.32
 21
-158.193
  0
LINE
  8
0
 10
-120.32
 20
-158.193
 11
-120.163
 21
-157.79
  0
LINE
  8
0
 10
-120.163
 20
-157.79
 11
-119.99
 21
-157.395
  0
LINE
  8
0
 10
-119.99
 20
-157.395
 11
-119.801
 21
-157.006
  0
LINE
  8
0
 10
-119.801
 20
-157.006
 11
-119.597
 21
-156.625
  0
LINE
  8
0
 10
-119.597
 20
-156.625
 11
-119.379
 21
-156.253
  0
LINE
  8
0
 10
-119.379
 20
-156.253
 11
-119.146
 21
-155.889
  0
LINE
  8
0
 10
-119.146
 20
-155.889
 11
-118.899
 21
-155.534
  0
LINE
  8
0
 10
-118.899
 20
-155.534
 11
-118.638
 21
-155.19
  0
LINE
  8
0
 10
-118.638
 20
-155.19
 11
-118.364
 21
-154.856
  0
LINE
  8
0
 10
-118.364
 20
-154.856
 11
-118.078
 21
-154.533
  0
LINE
  8
0
 10
-118.078
 20
-154.533
 11
-117.778
 21
-154.222
  0
LINE
  8
0
 10
-117.778
 20
-154.222
 11
-84.3431
 21
-120.787
  0
LINE
  8
0
 10
-84.3431
 20
-120.787
 11
-84.0318
 21
-120.487
  0
LINE
  8
0
 10
-84.0318
 20
-120.487
 11
-83.7089
 21
-120.201
  0
LINE
  8
0
 10
-83.7089
 20
-120.201
 11
-83.375
 21
-119.926
  0
LINE
  8
0
 10
-83.375
 20
-119.926
 11
-83.0306
 21
-119.666
  0
LINE
  8
0
 10
-83.0306
 20
-119.666
 11
-82.6762
 21
-119.419
  0
LINE
  8
0
 10
-82.6762
 20
-119.419
 11
-82.3125
 21
-119.186
  0
LINE
  8
0
 10
-82.3125
 20
-119.186
 11
-81.9398
 21
-118.968
  0
LINE
  8
0
 10
-81.9398
 20
-118.968
 11
-81.5589
 21
-118.764
  0
LINE
  8
0
 10
-81.5589
 20
-118.764
 11
-81.1702
 21
-118.575
  0
LINE
  8
0
 10
-81.1702
 20
-118.575
 11
-80.7745
 21
-118.402
  0
LINE
  8
0
 10
-80.7745
 20
-118.402
 11
-80.3723
 21
-118.245
  0
LINE
  8
0
 10
-80.3723
 20
-118.245
 11
-79.9642
 21
-118.103
  0
LINE
  8
0
 10
-79.9642
 20
-118.103
 11
-79.5508
 21
-117.978
  0
LINE
  8
0
 10
-79.5508
 20
-117.978
 11
-79.1329
 21
-117.869
  0
LINE
  8
0
 10
-79.1329
 20
-117.869
 11
-78.711
 21
-117.776
  0
LINE
  8
0
 10
-78.711
 20
-117.776
 11
-78.2857
 21
-117.7
  0
LINE
  8
0
 10
-78.2857
 20
-117.7
 11
-77.8579
 21
-117.641
  0
LINE
  8
0
 10
-77.8579
 20
-117.641
 11
-77.428
 21
-117.599
  0
LINE
  8
0
 10
-77.428
 20
-117.599
 11
-76.9968
 21
-117.573
  0
LINE
  8
0
 10
-76.9968
 20
-117.573
 11
-76.565
 21
-117.565
  0
LINE
  8
0
 10
-76.565
 20
-117.565
 11
-76.1331
 21
-117.573
  0
LINE
  8
0
 10
-76.1331
 20
-117.573
 11
-75.7019
 21
-117.599
  0
LINE
  8
0
 10
-75.7019
 20
-117.599
 11
-75.272
 21
-117.641
  0
LINE
  8
0
 10
-75.272
 20
-117.641
 11
-74.8442
 21
-117.7
  0
LINE
  8
0
 10
-74.8442
 20
-117.7
 11
-74.419
 21
-117.776
  0
LINE
  8
0
 10
-74.419
 20
-117.776
 11
-73.9971
 21
-117.869
  0
LINE
  8
0
 10
-73.9971
 20
-117.869
 11
-73.5791
 21
-117.978
  0
LINE
  8
0
 10
-73.5791
 20
-117.978
 11
-73.1658
 21
-118.103
  0
LINE
  8
0
 10
-73.1658
 20
-118.103
 11
-72.7577
 21
-118.245
  0
LINE
  8
0
 10
-72.7577
 20
-118.245
 11
-72.3554
 21
-118.402
  0
LINE
  8
0
 10
-72.3554
 20
-118.402
 11
-71.9597
 21
-118.575
  0
LINE
  8
0
 10
-71.9597
 20
-118.575
 11
-71.5711
 21
-118.764
  0
LINE
  8
0
 10
-71.5711
 20
-118.764
 11
-71.1901
 21
-118.968
  0
LINE
  8
0
 10
-71.1901
 20
-118.968
 11
-70.8175
 21
-119.186
  0
LINE
  8
0
 10
-70.8175
 20
-119.186
 11
-70.4537
 21
-119.419
  0
LINE
  8
0
 10
-70.4537
 20
-119.419
 11
-70.0993
 21
-119.666
  0
LINE
  8
0
 10
-70.0993
 20
-119.666
 11
-69.7549
 21
-119.926
  0
LINE
  8
0
 10
-69.7549
 20
-119.926
 11
-69.421
 21
-120.201
  0
LINE
  8
0
 10
-69.421
 20
-120.201
 11
-69.0982
 21
-120.487
  0
LINE
  8
0
 10
-69.0982
 20
-120.487
 11
-68.7868
 21
-120.787
  0
LINE
  8
0
 10
-68.7868
 20
-120.787
 11
-68.4874
 21
-121.098
  0
LINE
  8
0
 10
-68.4874
 20
-121.098
 11
-68.2005
 21
-121.421
  0
LINE
  8
0
 10
-68.2005
 20
-121.421
 11
-67.9265
 21
-121.755
  0
LINE
  8
0
 10
-67.9265
 20
-121.755
 11
-67.6658
 21
-122.099
  0
LINE
  8
0
 10
-67.6658
 20
-122.099
 11
-67.4188
 21
-122.454
  0
LINE
  8
0
 10
-67.4188
 20
-122.454
 11
-67.1859
 21
-122.817
  0
LINE
  8
0
 10
-67.1859
 20
-122.817
 11
-66.9675
 21
-123.19
  0
LINE
  8
0
 10
-66.9675
 20
-123.19
 11
-66.7639
 21
-123.571
  0
LINE
  8
0
 10
-66.7639
 20
-123.571
 11
-66.5754
 21
-123.96
  0
LINE
  8
0
 10
-66.5754
 20
-123.96
 11
-66.4023
 21
-124.355
  0
LINE
  8
0
 10
-66.4023
 20
-124.355
 11
-66.2449
 21
-124.758
  0
LINE
  8
0
 10
-66.2449
 20
-124.758
 11
-66.1033
 21
-125.166
  0
LINE
  8
0
 10
-66.1033
 20
-125.166
 11
-65.978
 21
-125.579
  0
LINE
  8
0
 10
-65.978
 20
-125.579
 11
-65.8689
 21
-125.997
  0
LINE
  8
0
 10
-65.8689
 20
-125.997
 11
-65.7763
 21
-126.419
  0
LINE
  8
0
 10
-65.7763
 20
-126.419
 11
-65.7004
 21
-126.844
  0
LINE
  8
0
 10
-65.7004
 20
-126.844
 11
-65.6412
 21
-127.272
  0
LINE
  8
0
 10
-65.6412
 20
-127.272
 11
-65.5989
 21
-127.702
  0
LINE
  8
0
 10
-65.5989
 20
-127.702
 11
-65.5734
 21
-128.133
  0
LINE
  8
0
 10
-65.5734
 20
-128.133
 11
-65.565
 21
-128.565
  0
LINE
  8
0
 10
-65.565
 20
-128.565
 11
-65.5734
 21
-128.997
  0
LINE
  8
0
 10
-65.5734
 20
-128.997
 11
-65.5989
 21
-129.428
  0
LINE
  8
0
 10
-65.5989
 20
-129.428
 11
-65.6412
 21
-129.858
  0
LINE
  8
0
 10
-65.6412
 20
-129.858
 11
-65.7004
 21
-130.286
  0
LINE
  8
0
 10
-65.7004
 20
-130.286
 11
-65.7763
 21
-130.711
  0
LINE
  8
0
 10
-65.7763
 20
-130.711
 11
-65.8689
 21
-131.133
  0
LINE
  8
0
 10
-65.8689
 20
-131.133
 11
-65.978
 21
-131.551
  0
LINE
  8
0
 10
-65.978
 20
-131.551
 11
-66.1033
 21
-131.964
  0
LINE
  8
0
 10
-66.1033
 20
-131.964
 11
-66.2449
 21
-132.372
  0
LINE
  8
0
 10
-66.2449
 20
-132.372
 11
-66.4023
 21
-132.774
  0
LINE
  8
0
 10
-66.4023
 20
-132.774
 11
-66.5754
 21
-133.17
  0
LINE
  8
0
 10
-66.5754
 20
-133.17
 11
-66.7639
 21
-133.559
  0
LINE
  8
0
 10
-66.7639
 20
-133.559
 11
-66.9675
 21
-133.94
  0
LINE
  8
0
 10
-66.9675
 20
-133.94
 11
-67.1859
 21
-134.312
  0
LINE
  8
0
 10
-67.1859
 20
-134.312
 11
-67.4188
 21
-134.676
  0
LINE
  8
0
 10
-67.4188
 20
-134.676
 11
-67.6658
 21
-135.031
  0
LINE
  8
0
 10
-67.6658
 20
-135.031
 11
-67.9265
 21
-135.375
  0
LINE
  8
0
 10
-67.9265
 20
-135.375
 11
-68.2005
 21
-135.709
  0
LINE
  8
0
 10
-68.2005
 20
-135.709
 11
-68.4874
 21
-136.032
  0
LINE
  8
0
 10
-68.4874
 20
-136.032
 11
-68.7868
 21
-136.343
  0
LINE
  8
0
 10
-68.7868
 20
-136.343
 11
-102.222
 21
-169.778
  0
LINE
  8
0
 10
-102.222
 20
-169.778
 11
-102.533
 21
-170.078
  0
LINE
  8
0
 10
-102.533
 20
-170.078
 11
-102.856
 21
-170.364
  0
LINE
  8
0
 10
-102.856
 20
-170.364
 11
-103.19
 21
-170.638
  0
LINE
  8
0
 10
-103.19
 20
-170.638
 11
-103.534
 21
-170.899
  0
LINE
  8
0
 10
-103.534
 20
-170.899
 11
-103.889
 21
-171.146
  0
LINE
  8
0
 10
-103.889
 20
-171.146
 11
-104.253
 21
-171.379
  0
LINE
  8
0
 10
-104.253
 20
-171.379
 11
-104.625
 21
-171.597
  0
LINE
  8
0
 10
-104.625
 20
-171.597
 11
-105.006
 21
-171.801
  0
LINE
  8
0
 10
-105.006
 20
-171.801
 11
-105.395
 21
-171.99
  0
LINE
  8
0
 10
-105.395
 20
-171.99
 11
-105.79
 21
-172.163
  0
LINE
  8
0
 10
-105.79
 20
-172.163
 11
-106.193
 21
-172.32
  0
LINE
  8
0
 10
-106.193
 20
-172.32
 11
-106.601
 21
-172.462
  0
LINE
  8
0
 10
-106.601
 20
-172.462
 11
-107.014
 21
-172.587
  0
LINE
  8
0
 10
-107.014
 20
-172.587
 11
-107.432
 21
-172.696
  0
LINE
  8
0
 10
-107.432
 20
-172.696
 11
-107.854
 21
-172.789
  0
LINE
  8
0
 10
-107.854
 20
-172.789
 11
-108.279
 21
-172.865
  0
LINE
  8
0
 10
-108.279
 20
-172.865
 11
-108.707
 21
-172.924
  0
LINE
  8
0
 10
-108.707
 20
-172.924
 11
-109.137
 21
-172.966
  0
LINE
  8
0
 10
-109.137
 20
-172.966
 11
-109.568
 21
-172.992
  0
LINE
  8
0
 10
-109.568
 20
-172.992
 11
-110
 21
-173
  0
LINE
  8
0
 10
-110
 20
-173
 11
-110.432
 21
-172.992
  0
LINE
  8
0
 10
109.568
 20
-172.992
 11
109.137
 21
-172.966
  0
LINE
  8
0
 10
109.137
 20
-172.966
 11
108.707
 21
-172.924
  0
LINE
  8
0
 10
108.707
 20
-172.924
 11
108.279
 21
-172.865
  0
LINE
  8
0
 10
108.279
 20
-172.865
 11
107.854
 21
-172.789
  0
LINE
  8
0
 10
107.854
 20
-172.789
 11
107.432
 21
-172.696
  0
LINE
  8
0
 10
107.432
 20
-172.696
 11
107.014
 21
-172.587
  0
LINE
  8
0
 10
107.014
 20
-172.587
 11
106.601
 21
-172.462
  0
LINE
  8
0
 10
106.601
 20
-172.462
 11
106.193
 21
-172.32
  0
LINE
  8
0
 10
106.193
 20
-172.32
 11
105.79
 21
-172.163
  0
LINE
  8
0
 10
105.79
 20
-172.163
 11
105.395
 21
-171.99
  0
LINE
  8
0
 10
105.395
 20
-171.99
 11
105.006
 21
-171.801
  0
LINE
  8
0
 10
105.006
 20
-171.801
 11
104.625
 21
-171.597
  0
LINE
  8
0
 10
104.625
 20
-171.597
 11
104.253
 21
-171.379
  0
LINE
  8
0
 10
104.253
 20
-171.379
 11
103.889
 21
-171.146
  0
LINE
  8
0
 10
103.889
 20
-171.146
 11
103.534
 21
-170.899
  0
LINE
  8
0
 10
103.534
 20
-170.899
 11
103.19
 21
-170.638
  0
LINE
  8
0
 10
103.19
 20
-170.638
 11
102.856
 21
-170.364
  0
LINE
  8
0
 10
102.856
 20
-170.364
 11
102.533
 21
-170.078
  0
LINE
  8
0
 10
102.533
 20
-170.078
 11
102.222
 21
-169.778
  0
LINE
  8
0
 10
102.222
 20
-169.778
 11
68.7868
 21
-136.343
  0
LINE
  8
0
 10
68.7868
 20
-136.343
 11
68.4874
 21
-136.032
  0
LINE
  8
0
 10
68.4874
 20
-136.032
 11
68.2005
 21
-135.709
  0
LINE
  8
0
 10
68.2005
 20
-135.709
 11
67.9265
 21
-135.375
  0
LINE
  8
0
 10
67.9265
 20
-135.375
 11
67.6658
 21
-135.031
  0
LINE
  8
0
 10
67.6658
 20
-135.031
 11
67.4188
 21
-134.676
  0
LINE
  8
0
 10
67.4188
 20
-134.676
 11
67.1859
 21
-134.312
  0
LINE
  8
0
 10
67.1859
 20
-134.312
 11
66.9675
 21
-133.94
  0
LINE
  8
0
 10
66.9675
 20
-133.94
 11
66.7639
 21
-133.559
  0
LINE
  8
0
 10
66.7639
 20
-133.559
 11
66.5754
 21
-133.17
  0
LINE
  8
0
 10
66.5754
 20
-133.17
 11
66.4023
 21
-132.774
  0
LINE
  8
0
 10
66.4023
 20
-132.774
 11
66.2449
 21
-132.372
  0
LINE
  8
0
 10
66.2449
 20
-132.372
 11
66.1033
 21
-131.964
  0
LINE
  8
0
 10
66.1033
 20
-131.964
 11
65.978
 21
-131.551
  0
LINE
  8
0
 10
65.978
 20
-131.551
 11
65.8689
 21
-131.133
  0
LINE
  8
0
 10
65.8689
 20
-131.133
 11
65.7763
 21
-130.711
  0
LINE
  8
0
 10
65.7763
 20
-130.711
 11
65.7004
 21
-130.286
  0
LINE
  8
0
 10
65.7004
 20
-130.286
 11
65.6412
 21
-129.858
  0
LINE
  8
0
 10
65.6412
 20
-129.858
 11
65.5989
 21
-129.428
  0
LINE
  8
0
 10
65.5989
 20
-129.428
 11
65.5734
 21
-128.997
  0
LINE
  8
0
 10
65.5734
 20
-128.997
 11
65.565
 21
-128.565
  0
LINE
  8
0
 10
65.565
 20
-128.565
 11
65.5734
 21
-128.133
  0
LINE
  8
0
 10
65.5734
 20
-128.133
 11
65.5989
 21
-127.702
  0
LINE
  8
0
 10
65.5989
 20
-127.702
 11
65.6412
 21
-127.272
  0
LINE
  8
0
 10
65.6412
 20
-127.272
 11
65.7004
 21
-126.844
  0
LINE
  8
0
 10
65.7004
 20
-126.844
 11
65.7763
 21
-126.419
  0
LINE
  8
0
 10
65.7763
 20
-126.419
 11
65.8689
 21
-125.997
  0
LINE
  8
0
 10
65.8689
 20
-125.997
 11
65.978
 21
-125.579
  0
LINE
  8
0
 10
65.978
 20
-125.579
 11
66.1033
 21
-125.166
  0
LINE
  8
0
 10
66.1033
 20
-125.166
 11
66.2449
 21
-124.758
  0
LINE
  8
0
 10
66.2449
 20
-124.758
 11
66.4023
 21
-124.355
  0
LINE
  8
0
 10
66.4023
 20
-124.355
 11
66.5754
 21
-123.96
  0
LINE
  8
0
 10
66.5754
 20
-123.96
 11
66.7639
 21
-123.571
  0
LINE
  8
0
 10
66.7639
 20
-123.571
 11
66.9675
 21
-123.19
  0
LINE
  8
0
 10
66.9675
 20
-123.19
 11
67.1859
 21
-122.817
  0
LINE
  8
0
 10
67.1859
 20
-122.817
 11
67.4188
 21
-122.454
  0
LINE
  8
0
 10
67.4188
 20
-122.454
 11
67.6658
 21
-122.099
  0
LINE
  8
0
 10
67.6658
 20
-122.099
 11
67.9265
 21
-121.755
  0
LINE
  8
0
 10
67.9265
 20
-121.755
 11
68.2005
 21
-121.421
  0
LINE
  8
0
 10
68.2005
 20
-121.421
 11
68.4874
 21
-121.098
  0
LINE
  8
0
 10
68.4874
 20
-121.098
 11
68.7868
 21
-120.787
  0
LINE
  8
0
 10
68.7868
 20
-120.787
 11
69.0982
 21
-120.487
  0
LINE
  8
0
 10
69.0982
 20
-120.487
 11
69.421
 21
-120.201
  0
LINE
  8
0
 10
69.421
 20
-120.201
 11
69.7549
 21
-119.926
  0
LINE
  8
0
 10
69.7549
 20
-119.926
 11
70.0993
 21
-119.666
  0
LINE
  8
0
 10
70.0993
 20
-119.666
 11
70.4537
 21
-119.419
  0
LINE
  8
0
 10
70.4537
 20
-119.419
 11
70.8175
 21
-119.186
  0
LINE
  8
0
 10
70.8175
 20
-119.186
 11
71.1901
 21
-118.968
  0
LINE
  8
0
 10
71.1901
 20
-118.968
 11
71.5711
 21
-118.764
  0
LINE
  8
0
 10
71.5711
 20
-118.764
 11
71.9597
 21
-118.575
  0
LINE
  8
0
 10
71.9597
 20
-118.575
 11
72.3554
 21
-118.402
  0
LINE
  8
0
 10
72.3554
 20
-118.402
 11
72.7577
 21
-118.245
  0
LINE
  8
0
 10
72.7577
 20
-118.245
 11
73.1658
 21
-118.103
  0
LINE
  8
0
 10
73.1658
 20
-118.103
 11
73.5791
 21
-117.978
  0
LINE
  8
0
 10
73.5791
 20
-117.978
 11
73.9971
 21
-117.869
  0
LINE
  8
0
 10
73.9971
 20
-117.869
 11
74.419
 21
-117.776
  0
LINE
  8
0
 10
74.419
 20
-117.776
 11
74.8442
 21
-117.7
  0
LINE
  8
0
 10
74.8442
 20
-117.7
 11
75.272
 21
-117.641
  0
LINE
  8
0
 10
75.272
 20
-117.641
 11
75.7019
 21
-117.599
  0
LINE
  8
0
 10
75.7019
 20
-117.599
 11
76.1331
 21
-117.573
  0
LINE
  8
0
 10
76.1331
 20
-117.573
 11
76.565
 21
-117.565
  0
LINE
  8
0
 10
76.565
 20
-117.565
 11
76.9968
 21
-117.573
  0
LINE
  8
0
 10
76.9968
 20
-117.573
 11
77.428
 21
-117.599
  0
LINE
  8
0
 10
77.428
 20
-117.599
 11
77.8579
 21
-117.641
  0
LINE
  8
0
 10
77.8579
 20
-117.641
 11
78.2857
 21
-117.7
  0
LINE
  8
0
 10
78.2857
 20
-117.7
 11
78.711
 21
-117.776
  0
LINE
  8
0
 10
78.711
 20
-117.776
 11
79.1329
 21
-117.869
  0
LINE
  8
0
 10
79.1329
 20
-117.869
 11
79.5508
 21
-117.978
  0
LINE
  8
0
 10
79.5508
 20
-117.978
 11
79.9642
 21
-118.103
  0
LINE
  8
0
 10
79.9642
 20
-118.103
 11
80.3723
 21
-118.245
  0
LINE
  8
0
 10
80.3723
 20
-118.245
 11
80.7745
 21
-118.402
  0
LINE
  8
0
 10
80.7745
 20
-118.402
 11
81.1702
 21
-118.575
  0
LINE
  8
0
 10
81.1702
 20
-118.575
 11
81.5589
 21
-118.764
  0
LINE
  8
0
 10
81.5589
 20
-118.764
 11
81.9398
 21
-118.968
  0
LINE
  8
0
 10
81.9398
 20
-118.968
 11
82.3125
 21
-119.186
  0
LINE
  8
0
 10
82.3125
 20
-119.186
 11
82.6762
 21
-119.419
  0
LINE
  8
0
 10
82.6762
 20
-119.419
 11
83.0306
 21
-119.666
  0
LINE
  8
0
 10
83.0306
 20
-119.666
 11
83.375
 21
-119.926
  0
LINE
  8
0
 10
83.375
 20
-119.926
 11
83.7089
 21
-120.201
  0
LINE
  8
0
 10
83.7089
 20
-120.201
 11
84.0318
 21
-120.487
  0
LINE
  8
0
 10
84.0318
 20
-120.487
 11
84.3431
 21
-120.787
  0
LINE
  8
0
 10
84.3431
 20
-120.787
 11
117.778
 21
-154.222
  0
LINE
  8
0
 10
117.778
 20
-154.222
 11
118.078
 21
-154.533
  0
LINE
  8
0
 10
118.078
 20
-154.533
 11
118.364
 21
-154.856
  0
LINE
  8
0
 10
118.364
 20
-154.856
 11
118.638
 21
-155.19
  0
LINE
  8
0
 10
118.638
 20
-155.19
 11
118.899
 21
-155.534
  0
LINE
  8
0
 10
118.899
 20
-155.534
 11
119.146
 21
-155.889
  0
LINE
  8
0
 10
119.146
 20
-155.889
 11
119.379
 21
-156.253
  0
LINE
  8
0
 10
119.379
 20
-156.253
 11
119.597
 21
-156.625
  0
LINE
  8
0
 10
119.597
 20
-156.625
 11
119.801
 21
-157.006
  0
LINE
  8
0
 10
119.801
 20
-157.006
 11
119.99
 21
-157.395
  0
LINE
  8
0
 10
119.99
 20
-157.395
 11
120.163
 21
-157.79
  0
LINE
  8
0
 10
120.163
 20
-157.79
 11
120.32
 21
-158.193
  0
LINE
  8
0
 10
120.32
 20
-158.193
 11
120.462
 21
-158.601
  0
LINE
  8
0
 10
120.462
 20
-158.601
 11
120.587
 21
-159.014
  0
LINE
  8
0
 10
120.587
 20
-159.014
 11
120.696
 21
-159.432
  0
LINE
  8
0
 10
120.696
 20
-159.432
 11
120.789
 21
-159.854
  0
LINE
  8
0
 10
120.789
 20
-159.854
 11
120.865
 21
-160.279
  0
LINE
  8
0
 10
120.865
 20
-160.279
 11
120.924
 21
-160.707
  0
LINE
  8
0
 10
120.924
 20
-160.707
 11
120.966
 21
-161.137
  0
LINE
  8
0
 10
120.966
 20
-161.137
 11
120.992
 21
-161.568
  0
LINE
  8
0
 10
120.992
 20
-161.568
 11
121
 21
-162
  0
LINE
  8
0
 10
121
 20
-162
 11
120.992
 21
-162.432
  0
LINE
  8
0
 10
120.992
 20
-162.432
 11
120.966
 21
-162.863
  0
LINE
  8
0
 10
120.966
 20
-162.863
 11
120.924
 21
-163.293
  0
LINE
  8
0
 10
120.924
 20
-163.293
 11
120.865
 21
-163.721
  0
LINE
  8
0
 10
120.865
 20
-163.721
 11
120.789
 21
-164.146
  0
LINE
  8
0
 10
120.789
 20
-164.146
 11
120.696
 21
-164.568
  0
LINE
  8
0
 10
120.696
 20
-164.568
 11
120.587
 21
-164.986
  0
LINE
  8
0
 10
120.587
 20
-164.986
 11
120.462
 21
-165.399
  0
LINE
  8
0
 10
120.462
 20
-165.399
 11
120.32
 21
-165.807
  0
LINE
  8
0
 10
120.32
 20
-165.807
 11
120.163
 21
-166.21
  0
LINE
  8
0
 10
120.163
 20
-166.21
 11
119.99
 21
-166.605
  0
LINE
  8
0
 10
119.99
 20
-166.605
 11
119.801
 21
-166.994
  0
LINE
  8
0
 10
119.801
 20
-166.994
 11
119.597
 21
-167.375
  0
LINE
  8
0
 10
119.597
 20
-167.375
 11
119.379
 21
-167.747
  0
LINE
  8
0
 10
119.379
 20
-167.747
 11
119.146
 21
-168.111
  0
LINE
  8
0
 10
119.146
 20
-168.111
 11
118.899
 21
-168.466
  0
LINE
  8
0
 10
118.899
 20
-168.466
 11
118.638
 21
-168.81
  0
LINE
  8
0
 10
118.638
 20
-168.81
 11
118.364
 21
-169.144
  0
LINE
  8
0
 10
118.364
 20
-169.144
 11
118.078
 21
-169.467
  0
LINE
  8
0
 10
118.078
 20
-169.467
 11
117.778
 21
-169.778
  0
LINE
  8
0
 10
117.778
 20
-169.778
 11
117.467
 21
-170.078
  0
LINE
  8
0
 10
117.467
 20
-170.078
 11
117.144
 21
-170.364
  0
LINE
  8
0
 10
117.144
 20
-170.364
 11
116.81
 21
-170.638
  0
LINE
  8
0
 10
116.81
 20
-170.638
 11
116.466
 21
-170.899
  0
LINE
  8
0
 10
116.466
 20
-170.899
 11
116.111
 21
-171.146
  0
LINE
  8
0
 10
116.111
 20
-171.146
 11
115.747
 21
-171.379
  0
LINE
  8
0
 10
115.747
 20
-171.379
 11
115.375
 21
-171.597
  0
LINE
  8
0
 10
115.375
 20
-171.597
 11
114.994
 21
-171.801
  0
LINE
  8
0
 10
114.994
 20
-171.801
 11
114.605
 21
-171.99
  0
LINE
  8
0
 10
114.605
 20
-171.99
 11
114.21
 21
-172.163
  0
LINE
  8
0
 10
114.21
 20
-172.163
 11
113.807
 21
-172.32
  0
LINE
  8
0
 10
113.807
 20
-172.32
 11
113.399
 21
-172.462
  0
LINE
  8
0
 10
113.399
 20
-172.462
 11
112.986
 21
-172.587
  0
LINE
  8
0
 10
112.986
 20
-172.587
 11
112.568
 21
-172.696
  0
LINE
  8
0
 10
112.568
 20
-172.696
 11
112.146
 21
-172.789
  0
LINE
  8
0
 10
112.146
 20
-172.789
 11
111.721
 21
-172.865
  0
LINE
  8
0
 10
111.721
 20
-172.865
 11
111.293
 21
-172.924
  0
LINE
  8
0
 10
111.293
 20
-172.924
 11
110.863
 21
-172.966
  0
LINE
  8
0
 10
110.863
 20
-172.966
 11
110.432
 21
-172.992
  0
LINE
  8
0
 10
110.432
 20
-172.992
 11
110
 21
-173
  0
LINE
  8
0
 10
110
 20
-173
 11
109.568
 21
-172.992
  0
ENDSEC
  0
SECTION
  2
OBJECTS
  0
DICTIONARY
  0
ENDSEC
  0
EOF
