  0
SECTION
  2
BLOCKS
  0
ENDSEC
  0
SECTION
  2
ENTITIES
  0
LINE
  8
0
 10
110.746
 20
-180.985
 11
111.491
 21
-180.941
  0
LINE
  8
0
 10
111.491
 20
-180.941
 11
112.233
 21
-180.868
  0
LINE
  8
0
 10
112.233
 20
-180.868
 11
112.972
 21
-180.766
  0
LINE
  8
0
 10
112.972
 20
-180.766
 11
113.707
 21
-180.635
  0
LINE
  8
0
 10
113.707
 20
-180.635
 11
114.435
 21
-180.475
  0
LINE
  8
0
 10
114.435
 20
-180.475
 11
115.157
 21
-180.287
  0
LINE
  8
0
 10
115.157
 20
-180.287
 11
115.871
 21
-180.07
  0
LINE
  8
0
 10
115.871
 20
-180.07
 11
116.576
 21
-179.826
  0
LINE
  8
0
 10
116.576
 20
-179.826
 11
117.271
 21
-179.554
  0
LINE
  8
0
 10
117.271
 20
-179.554
 11
117.955
 21
-179.255
  0
LINE
  8
0
 10
117.955
 20
-179.255
 11
118.626
 21
-178.929
  0
LINE
  8
0
 10
118.626
 20
-178.929
 11
119.284
 21
-178.577
  0
LINE
  8
0
 10
119.284
 20
-178.577
 11
119.927
 21
-178.2
  0
LINE
  8
0
 10
119.927
 20
-178.2
 11
120.556
 21
-177.798
  0
LINE
  8
0
 10
120.556
 20
-177.798
 11
121.168
 21
-177.371
  0
LINE
  8
0
 10
121.168
 20
-177.371
 11
121.763
 21
-176.921
  0
LINE
  8
0
 10
121.763
 20
-176.921
 11
122.34
 21
-176.448
  0
LINE
  8
0
 10
122.34
 20
-176.448
 11
122.897
 21
-175.952
  0
LINE
  8
0
 10
122.897
 20
-175.952
 11
123.435
 21
-175.435
  0
LINE
  8
0
 10
123.435
 20
-175.435
 11
123.952
 21
-174.897
  0
LINE
  8
0
 10
123.952
 20
-174.897
 11
124.448
 21
-174.34
  0
LINE
  8
0
 10
124.448
 20
-174.34
 11
124.921
 21
-173.763
  0
LINE
  8
0
 10
124.921
 20
-173.763
 11
125.371
 21
-173.168
  0
LINE
  8
0
 10
125.371
 20
-173.168
 11
125.798
 21
-172.556
  0
LINE
  8
0
 10
125.798
 20
-172.556
 11
126.2
 21
-171.927
  0
LINE
  8
0
 10
126.2
 20
-171.927
 11
126.577
 21
-171.284
  0
LINE
  8
0
 10
126.577
 20
-171.284
 11
126.929
 21
-170.626
  0
LINE
  8
0
 10
126.929
 20
-170.626
 11
127.255
 21
-169.955
  0
LINE
  8
0
 10
127.255
 20
-169.955
 11
127.554
 21
-169.271
  0
LINE
  8
0
 10
127.554
 20
-169.271
 11
127.826
 21
-168.576
  0
LINE
  8
0
 10
127.826
 20
-168.576
 11
128.07
 21
-167.871
  0
LINE
  8
0
 10
128.07
 20
-167.871
 11
128.287
 21
-167.157
  0
LINE
  8
0
 10
128.287
 20
-167.157
 11
128.475
 21
-166.435
  0
LINE
  8
0
 10
128.475
 20
-166.435
 11
128.635
 21
-165.707
  0
LINE
  8
0
 10
128.635
 20
-165.707
 11
128.766
 21
-164.972
  0
LINE
  8
0
 10
128.766
 20
-164.972
 11
128.868
 21
-164.233
  0
LINE
  8
0
 10
128.868
 20
-164.233
 11
128.941
 21
-163.491
  0
LINE
  8
0
 10
128.941
 20
-163.491
 11
128.985
 21
-162.746
  0
LINE
  8
0
 10
128.985
 20
-162.746
 11
129
 21
-162
  0
LINE
  8
0
 10
129
 20
-162
 11
129
 21
162
  0
LINE
  8
0
 10
129
 20
162
 11
128.985
 21
162.746
  0
LINE
  8
0
 10
128.985
 20
162.746
 11
128.941
 21
163.491
  0
LINE
  8
0
 10
128.941
 20
163.491
 11
128.868
 21
164.233
  0
LINE
  8
0
 10
128.868
 20
164.233
 11
128.766
 21
164.972
  0
LINE
  8
0
 10
128.766
 20
164.972
 11
128.635
 21
165.707
  0
LINE
  8
0
 10
128.635
 20
165.707
 11
128.475
 21
166.435
  0
LINE
  8
0
 10
128.475
 20
166.435
 11
128.287
 21
167.157
  0
LINE
  8
0
 10
128.287
 20
167.157
 11
128.07
 21
167.871
  0
LINE
  8
0
 10
128.07
 20
167.871
 11
127.826
 21
168.576
  0
LINE
  8
0
 10
127.826
 20
168.576
 11
127.554
 21
169.271
  0
LINE
  8
0
 10
127.554
 20
169.271
 11
127.255
 21
169.955
  0
LINE
  8
0
 10
127.255
 20
169.955
 11
126.929
 21
170.626
  0
LINE
  8
0
 10
126.929
 20
170.626
 11
126.577
 21
171.284
  0
LINE
  8
0
 10
126.577
 20
171.284
 11
126.2
 21
171.927
  0
LINE
  8
0
 10
126.2
 20
171.927
 11
125.798
 21
172.556
  0
LINE
  8
0
 10
125.798
 20
172.556
 11
125.371
 21
173.168
  0
LINE
  8
0
 10
125.371
 20
173.168
 11
124.921
 21
173.763
  0
LINE
  8
0
 10
124.921
 20
173.763
 11
124.448
 21
174.34
  0
LINE
  8
0
 10
124.448
 20
174.34
 11
123.952
 21
174.897
  0
LINE
  8
0
 10
123.952
 20
174.897
 11
123.435
 21
175.435
  0
LINE
  8
0
 10
123.435
 20
175.435
 11
122.897
 21
175.952
  0
LINE
  8
0
 10
122.897
 20
175.952
 11
122.34
 21
176.448
  0
LINE
  8
0
 10
122.34
 20
176.448
 11
121.763
 21
176.921
  0
LINE
  8
0
 10
121.763
 20
176.921
 11
121.168
 21
177.371
  0
LINE
  8
0
 10
121.168
 20
177.371
 11
120.556
 21
177.798
  0
LINE
  8
0
 10
120.556
 20
177.798
 11
119.927
 21
178.2
  0
LINE
  8
0
 10
119.927
 20
178.2
 11
119.284
 21
178.577
  0
LINE
  8
0
 10
119.284
 20
178.577
 11
118.626
 21
178.929
  0
LINE
  8
0
 10
118.626
 20
178.929
 11
117.955
 21
179.255
  0
LINE
  8
0
 10
117.955
 20
179.255
 11
117.271
 21
179.554
  0
LINE
  8
0
 10
117.271
 20
179.554
 11
116.576
 21
179.826
  0
LINE
  8
0
 10
116.576
 20
179.826
 11
115.871
 21
180.07
  0
LINE
  8
0
 10
115.871
 20
180.07
 11
115.157
 21
180.287
  0
LINE
  8
0
 10
115.157
 20
180.287
 11
114.435
 21
180.475
  0
LINE
  8
0
 10
114.435
 20
180.475
 11
113.707
 21
180.635
  0
LINE
  8
0
 10
113.707
 20
180.635
 11
112.972
 21
180.766
  0
LINE
  8
0
 10
112.972
 20
180.766
 11
112.233
 21
180.868
  0
LINE
  8
0
 10
112.233
 20
180.868
 11
111.491
 21
180.941
  0
LINE
  8
0
 10
111.491
 20
180.941
 11
110.746
 21
180.985
  0
LINE
  8
0
 10
110.746
 20
180.985
 11
110
 21
181
  0
LINE
  8
0
 10
110
 20
181
 11
-110
 21
181
  0
LINE
  8
0
 10
-110
 20
181
 11
-110.746
 21
180.985
  0
LINE
  8
0
 10
-110.746
 20
180.985
 11
-111.491
 21
180.941
  0
LINE
  8
0
 10
-111.491
 20
180.941
 11
-112.233
 21
180.868
  0
LINE
  8
0
 10
-112.233
 20
180.868
 11
-112.972
 21
180.766
  0
LINE
  8
0
 10
-112.972
 20
180.766
 11
-113.707
 21
180.635
  0
LINE
  8
0
 10
-113.707
 20
180.635
 11
-114.435
 21
180.475
  0
LINE
  8
0
 10
-114.435
 20
180.475
 11
-115.157
 21
180.287
  0
LINE
  8
0
 10
-115.157
 20
180.287
 11
-115.871
 21
180.07
  0
LINE
  8
0
 10
-115.871
 20
180.07
 11
-116.576
 21
179.826
  0
LINE
  8
0
 10
-116.576
 20
179.826
 11
-117.271
 21
179.554
  0
LINE
  8
0
 10
-117.271
 20
179.554
 11
-117.955
 21
179.255
  0
LINE
  8
0
 10
-117.955
 20
179.255
 11
-118.626
 21
178.929
  0
LINE
  8
0
 10
-118.626
 20
178.929
 11
-119.284
 21
178.577
  0
LINE
  8
0
 10
-119.284
 20
178.577
 11
-119.927
 21
178.2
  0
LINE
  8
0
 10
-119.927
 20
178.2
 11
-120.556
 21
177.798
  0
LINE
  8
0
 10
-120.556
 20
177.798
 11
-121.168
 21
177.371
  0
LINE
  8
0
 10
-121.168
 20
177.371
 11
-121.763
 21
176.921
  0
LINE
  8
0
 10
-121.763
 20
176.921
 11
-122.34
 21
176.448
  0
LINE
  8
0
 10
-122.34
 20
176.448
 11
-122.897
 21
175.952
  0
LINE
  8
0
 10
-122.897
 20
175.952
 11
-123.435
 21
175.435
  0
LINE
  8
0
 10
-123.435
 20
175.435
 11
-123.952
 21
174.897
  0
LINE
  8
0
 10
-123.952
 20
174.897
 11
-124.448
 21
174.34
  0
LINE
  8
0
 10
-124.448
 20
174.34
 11
-124.921
 21
173.763
  0
LINE
  8
0
 10
-124.921
 20
173.763
 11
-125.371
 21
173.168
  0
LINE
  8
0
 10
-125.371
 20
173.168
 11
-125.798
 21
172.556
  0
LINE
  8
0
 10
-125.798
 20
172.556
 11
-126.2
 21
171.927
  0
LINE
  8
0
 10
-126.2
 20
171.927
 11
-126.577
 21
171.284
  0
LINE
  8
0
 10
-126.577
 20
171.284
 11
-126.929
 21
170.626
  0
LINE
  8
0
 10
-126.929
 20
170.626
 11
-127.255
 21
169.955
  0
LINE
  8
0
 10
-127.255
 20
169.955
 11
-127.554
 21
169.271
  0
LINE
  8
0
 10
-127.554
 20
169.271
 11
-127.826
 21
168.576
  0
LINE
  8
0
 10
-127.826
 20
168.576
 11
-128.07
 21
167.871
  0
LINE
  8
0
 10
-128.07
 20
167.871
 11
-128.287
 21
167.157
  0
LINE
  8
0
 10
-128.287
 20
167.157
 11
-128.475
 21
166.435
  0
LINE
  8
0
 10
-128.475
 20
166.435
 11
-128.635
 21
165.707
  0
LINE
  8
0
 10
-128.635
 20
165.707
 11
-128.766
 21
164.972
  0
LINE
  8
0
 10
-128.766
 20
164.972
 11
-128.868
 21
164.233
  0
LINE
  8
0
 10
-128.868
 20
164.233
 11
-128.941
 21
163.491
  0
LINE
  8
0
 10
-128.941
 20
163.491
 11
-128.985
 21
162.746
  0
LINE
  8
0
 10
-128.985
 20
162.746
 11
-129
 21
162
  0
LINE
  8
0
 10
-129
 20
162
 11
-129
 21
-162
  0
LINE
  8
0
 10
-129
 20
-162
 11
-128.985
 21
-162.746
  0
LINE
  8
0
 10
-128.985
 20
-162.746
 11
-128.941
 21
-163.491
  0
LINE
  8
0
 10
-128.941
 20
-163.491
 11
-128.868
 21
-164.233
  0
LINE
  8
0
 10
-128.868
 20
-164.233
 11
-128.766
 21
-164.972
  0
LINE
  8
0
 10
-128.766
 20
-164.972
 11
-128.635
 21
-165.707
  0
LINE
  8
0
 10
-128.635
 20
-165.707
 11
-128.475
 21
-166.435
  0
LINE
  8
0
 10
-128.475
 20
-166.435
 11
-128.287
 21
-167.157
  0
LINE
  8
0
 10
-128.287
 20
-167.157
 11
-128.07
 21
-167.871
  0
LINE
  8
0
 10
-128.07
 20
-167.871
 11
-127.826
 21
-168.576
  0
LINE
  8
0
 10
-127.826
 20
-168.576
 11
-127.554
 21
-169.271
  0
LINE
  8
0
 10
-127.554
 20
-169.271
 11
-127.255
 21
-169.955
  0
LINE
  8
0
 10
-127.255
 20
-169.955
 11
-126.929
 21
-170.626
  0
LINE
  8
0
 10
-126.929
 20
-170.626
 11
-126.577
 21
-171.284
  0
LINE
  8
0
 10
-126.577
 20
-171.284
 11
-126.2
 21
-171.927
  0
LINE
  8
0
 10
-126.2
 20
-171.927
 11
-125.798
 21
-172.556
  0
LINE
  8
0
 10
-125.798
 20
-172.556
 11
-125.371
 21
-173.168
  0
LINE
  8
0
 10
-125.371
 20
-173.168
 11
-124.921
 21
-173.763
  0
LINE
  8
0
 10
-124.921
 20
-173.763
 11
-124.448
 21
-174.34
  0
LINE
  8
0
 10
-124.448
 20
-174.34
 11
-123.952
 21
-174.897
  0
LINE
  8
0
 10
-123.952
 20
-174.897
 11
-123.435
 21
-175.435
  0
LINE
  8
0
 10
-123.435
 20
-175.435
 11
-122.897
 21
-175.952
  0
LINE
  8
0
 10
-122.897
 20
-175.952
 11
-122.34
 21
-176.448
  0
LINE
  8
0
 10
-122.34
 20
-176.448
 11
-121.763
 21
-176.921
  0
LINE
  8
0
 10
-121.763
 20
-176.921
 11
-121.168
 21
-177.371
  0
LINE
  8
0
 10
-121.168
 20
-177.371
 11
-120.556
 21
-177.798
  0
LINE
  8
0
 10
-120.556
 20
-177.798
 11
-119.927
 21
-178.2
  0
LINE
  8
0
 10
-119.927
 20
-178.2
 11
-119.284
 21
-178.577
  0
LINE
  8
0
 10
-119.284
 20
-178.577
 11
-118.626
 21
-178.929
  0
LINE
  8
0
 10
-118.626
 20
-178.929
 11
-117.955
 21
-179.255
  0
LINE
  8
0
 10
-117.955
 20
-179.255
 11
-117.271
 21
-179.554
  0
LINE
  8
0
 10
-117.271
 20
-179.554
 11
-116.576
 21
-179.826
  0
LINE
  8
0
 10
-116.576
 20
-179.826
 11
-115.871
 21
-180.07
  0
LINE
  8
0
 10
-115.871
 20
-180.07
 11
-115.157
 21
-180.287
  0
LINE
  8
0
 10
-115.157
 20
-180.287
 11
-114.435
 21
-180.475
  0
LINE
  8
0
 10
-114.435
 20
-180.475
 11
-113.707
 21
-180.635
  0
LINE
  8
0
 10
-113.707
 20
-180.635
 11
-112.972
 21
-180.766
  0
LINE
  8
0
 10
-112.972
 20
-180.766
 11
-112.233
 21
-180.868
  0
LINE
  8
0
 10
-112.233
 20
-180.868
 11
-111.491
 21
-180.941
  0
LINE
  8
0
 10
-111.491
 20
-180.941
 11
-110.746
 21
-180.985
  0
LINE
  8
0
 10
-110.746
 20
-180.985
 11
-110
 21
-181
  0
LINE
  8
0
 10
-110
 20
-181
 11
110
 21
-181
  0
LINE
  8
0
 10
110
 20
-181
 11
110.746
 21
-180.985
  0
LINE
  8
0
 10
-77.0007
 20
117.474
 11
-77.4359
 21
117.499
  0
LINE
  8
0
 10
-77.4359
 20
117.499
 11
-77.8696
 21
117.542
  0
LINE
  8
0
 10
-77.8696
 20
117.542
 11
-78.3014
 21
117.602
  0
LINE
  8
0
 10
-78.3014
 20
117.602
 11
-78.7305
 21
117.678
  0
LINE
  8
0
 10
-78.7305
 20
117.678
 11
-79.1562
 21
117.772
  0
LINE
  8
0
 10
-79.1562
 20
117.772
 11
-79.578
 21
117.882
  0
LINE
  8
0
 10
-79.578
 20
117.882
 11
-79.9951
 21
118.008
  0
LINE
  8
0
 10
-79.9951
 20
118.008
 11
-80.4069
 21
118.151
  0
LINE
  8
0
 10
-80.4069
 20
118.151
 11
-80.8127
 21
118.31
  0
LINE
  8
0
 10
-80.8127
 20
118.31
 11
-81.2121
 21
118.485
  0
LINE
  8
0
 10
-81.2121
 20
118.485
 11
-81.6043
 21
118.675
  0
LINE
  8
0
 10
-81.6043
 20
118.675
 11
-81.9887
 21
118.88
  0
LINE
  8
0
 10
-81.9887
 20
118.88
 11
-82.3647
 21
119.101
  0
LINE
  8
0
 10
-82.3647
 20
119.101
 11
-82.7318
 21
119.336
  0
LINE
  8
0
 10
-82.7318
 20
119.336
 11
-83.0894
 21
119.585
  0
LINE
  8
0
 10
-83.0894
 20
119.585
 11
-83.4369
 21
119.848
  0
LINE
  8
0
 10
-83.4369
 20
119.848
 11
-83.7738
 21
120.124
  0
LINE
  8
0
 10
-83.7738
 20
120.124
 11
-84.0997
 21
120.414
  0
LINE
  8
0
 10
-84.0997
 20
120.414
 11
-84.4138
 21
120.716
  0
LINE
  8
0
 10
-84.4138
 20
120.716
 11
-117.849
 21
154.151
  0
LINE
  8
0
 10
-117.849
 20
154.151
 11
-118.151
 21
154.465
  0
LINE
  8
0
 10
-118.151
 20
154.465
 11
-118.441
 21
154.791
  0
LINE
  8
0
 10
-118.441
 20
154.791
 11
-118.717
 21
155.128
  0
LINE
  8
0
 10
-118.717
 20
155.128
 11
-118.98
 21
155.476
  0
LINE
  8
0
 10
-118.98
 20
155.476
 11
-119.229
 21
155.833
  0
LINE
  8
0
 10
-119.229
 20
155.833
 11
-119.464
 21
156.2
  0
LINE
  8
0
 10
-119.464
 20
156.2
 11
-119.685
 21
156.576
  0
LINE
  8
0
 10
-119.685
 20
156.576
 11
-119.89
 21
156.961
  0
LINE
  8
0
 10
-119.89
 20
156.961
 11
-120.08
 21
157.353
  0
LINE
  8
0
 10
-120.08
 20
157.353
 11
-120.255
 21
157.752
  0
LINE
  8
0
 10
-120.255
 20
157.752
 11
-120.414
 21
158.158
  0
LINE
  8
0
 10
-120.414
 20
158.158
 11
-120.557
 21
158.57
  0
LINE
  8
0
 10
-120.557
 20
158.57
 11
-120.683
 21
158.987
  0
LINE
  8
0
 10
-120.683
 20
158.987
 11
-120.793
 21
159.409
  0
LINE
  8
0
 10
-120.793
 20
159.409
 11
-120.887
 21
159.834
  0
LINE
  8
0
 10
-120.887
 20
159.834
 11
-120.963
 21
160.264
  0
LINE
  8
0
 10
-120.963
 20
160.264
 11
-121.023
 21
160.695
  0
LINE
  8
0
 10
-121.023
 20
160.695
 11
-121.066
 21
161.129
  0
LINE
  8
0
 10
-121.066
 20
161.129
 11
-121.091
 21
161.564
  0
LINE
  8
0
 10
-121.091
 20
161.564
 11
-121.1
 21
162
  0
LINE
  8
0
 10
-121.1
 20
162
 11
-121.091
 21
162.436
  0
LINE
  8
0
 10
-121.091
 20
162.436
 11
-121.066
 21
162.871
  0
LINE
  8
0
 10
-121.066
 20
162.871
 11
-121.023
 21
163.305
  0
LINE
  8
0
 10
-121.023
 20
163.305
 11
-120.963
 21
163.736
  0
LINE
  8
0
 10
-120.963
 20
163.736
 11
-120.887
 21
164.165
  0
LINE
  8
0
 10
-120.887
 20
164.165
 11
-120.793
 21
164.591
  0
LINE
  8
0
 10
-120.793
 20
164.591
 11
-120.683
 21
165.013
  0
LINE
  8
0
 10
-120.683
 20
165.013
 11
-120.557
 21
165.43
  0
LINE
  8
0
 10
-120.557
 20
165.43
 11
-120.414
 21
165.842
  0
LINE
  8
0
 10
-120.414
 20
165.842
 11
-120.255
 21
166.248
  0
LINE
  8
0
 10
-120.255
 20
166.248
 11
-120.08
 21
166.647
  0
LINE
  8
0
 10
-120.08
 20
166.647
 11
-119.89
 21
167.039
  0
LINE
  8
0
 10
-119.89
 20
167.039
 11
-119.685
 21
167.424
  0
LINE
  8
0
 10
-119.685
 20
167.424
 11
-119.464
 21
167.8
  0
LINE
  8
0
 10
-119.464
 20
167.8
 11
-119.229
 21
168.167
  0
LINE
  8
0
 10
-119.229
 20
168.167
 11
-118.98
 21
168.524
  0
LINE
  8
0
 10
-118.98
 20
168.524
 11
-118.717
 21
168.872
  0
LINE
  8
0
 10
-118.717
 20
168.872
 11
-118.441
 21
169.209
  0
LINE
  8
0
 10
-118.441
 20
169.209
 11
-118.151
 21
169.535
  0
LINE
  8
0
 10
-118.151
 20
169.535
 11
-117.849
 21
169.849
  0
LINE
  8
0
 10
-117.849
 20
169.849
 11
-117.535
 21
170.151
  0
LINE
  8
0
 10
-117.535
 20
170.151
 11
-117.209
 21
170.441
  0
LINE
  8
0
 10
-117.209
 20
170.441
 11
-116.872
 21
170.717
  0
LINE
  8
0
 10
-116.872
 20
170.717
 11
-116.524
 21
170.98
  0
LINE
  8
0
 10
-116.524
 20
170.98
 11
-116.167
 21
171.229
  0
LINE
  8
0
 10
-116.167
 20
171.229
 11
-115.8
 21
171.464
  0
LINE
  8
0
 10
-115.8
 20
171.464
 11
-115.424
 21
171.685
  0
LINE
  8
0
 10
-115.424
 20
171.685
 11
-115.039
 21
171.89
  0
LINE
  8
0
 10
-115.039
 20
171.89
 11
-114.647
 21
172.08
  0
LINE
  8
0
 10
-114.647
 20
172.08
 11
-114.248
 21
172.255
  0
LINE
  8
0
 10
-114.248
 20
172.255
 11
-113.842
 21
172.414
  0
LINE
  8
0
 10
-113.842
 20
172.414
 11
-113.43
 21
172.557
  0
LINE
  8
0
 10
-113.43
 20
172.557
 11
-113.013
 21
172.683
  0
LINE
  8
0
 10
-113.013
 20
172.683
 11
-112.591
 21
172.793
  0
LINE
  8
0
 10
-112.591
 20
172.793
 11
-112.165
 21
172.887
  0
LINE
  8
0
 10
-112.165
 20
172.887
 11
-111.736
 21
172.963
  0
LINE
  8
0
 10
-111.736
 20
172.963
 11
-111.305
 21
173.023
  0
LINE
  8
0
 10
-111.305
 20
173.023
 11
-110.871
 21
173.066
  0
LINE
  8
0
 10
-110.871
 20
173.066
 11
-110.436
 21
173.091
  0
LINE
  8
0
 10
-110.436
 20
173.091
 11
-110
 21
173.1
  0
LINE
  8
0
 10
-110
 20
173.1
 11
-109.564
 21
173.091
  0
LINE
  8
0
 10
-109.564
 20
173.091
 11
-109.129
 21
173.066
  0
LINE
  8
0
 10
-109.129
 20
173.066
 11
-108.695
 21
173.023
  0
LINE
  8
0
 10
-108.695
 20
173.023
 11
-108.264
 21
172.963
  0
LINE
  8
0
 10
-108.264
 20
172.963
 11
-107.834
 21
172.887
  0
LINE
  8
0
 10
-107.834
 20
172.887
 11
-107.409
 21
172.793
  0
LINE
  8
0
 10
-107.409
 20
172.793
 11
-106.987
 21
172.683
  0
LINE
  8
0
 10
-106.987
 20
172.683
 11
-106.57
 21
172.557
  0
LINE
  8
0
 10
-106.57
 20
172.557
 11
-106.158
 21
172.414
  0
LINE
  8
0
 10
-106.158
 20
172.414
 11
-105.752
 21
172.255
  0
LINE
  8
0
 10
-105.752
 20
172.255
 11
-105.353
 21
172.08
  0
LINE
  8
0
 10
-105.353
 20
172.08
 11
-104.961
 21
171.89
  0
LINE
  8
0
 10
-104.961
 20
171.89
 11
-104.576
 21
171.685
  0
LINE
  8
0
 10
-104.576
 20
171.685
 11
-104.2
 21
171.464
  0
LINE
  8
0
 10
-104.2
 20
171.464
 11
-103.833
 21
171.229
  0
LINE
  8
0
 10
-103.833
 20
171.229
 11
-103.476
 21
170.98
  0
LINE
  8
0
 10
-103.476
 20
170.98
 11
-103.128
 21
170.717
  0
LINE
  8
0
 10
-103.128
 20
170.717
 11
-102.791
 21
170.441
  0
LINE
  8
0
 10
-102.791
 20
170.441
 11
-102.465
 21
170.151
  0
LINE
  8
0
 10
-102.465
 20
170.151
 11
-102.151
 21
169.849
  0
LINE
  8
0
 10
-102.151
 20
169.849
 11
-68.7161
 21
136.414
  0
LINE
  8
0
 10
-68.7161
 20
136.414
 11
-68.414
 21
136.1
  0
LINE
  8
0
 10
-68.414
 20
136.1
 11
-68.1245
 21
135.774
  0
LINE
  8
0
 10
-68.1245
 20
135.774
 11
-67.8479
 21
135.437
  0
LINE
  8
0
 10
-67.8479
 20
135.437
 11
-67.5849
 21
135.089
  0
LINE
  8
0
 10
-67.5849
 20
135.089
 11
-67.3356
 21
134.732
  0
LINE
  8
0
 10
-67.3356
 20
134.732
 11
-67.1007
 21
134.365
  0
LINE
  8
0
 10
-67.1007
 20
134.365
 11
-66.8803
 21
133.989
  0
LINE
  8
0
 10
-66.8803
 20
133.989
 11
-66.6748
 21
133.604
  0
LINE
  8
0
 10
-66.6748
 20
133.604
 11
-66.4846
 21
133.212
  0
LINE
  8
0
 10
-66.4846
 20
133.212
 11
-66.3099
 21
132.813
  0
LINE
  8
0
 10
-66.3099
 20
132.813
 11
-66.151
 21
132.407
  0
LINE
  8
0
 10
-66.151
 20
132.407
 11
-66.0082
 21
131.995
  0
LINE
  8
0
 10
-66.0082
 20
131.995
 11
-65.8817
 21
131.578
  0
LINE
  8
0
 10
-65.8817
 20
131.578
 11
-65.7717
 21
131.156
  0
LINE
  8
0
 10
-65.7717
 20
131.156
 11
-65.6783
 21
130.73
  0
LINE
  8
0
 10
-65.6783
 20
130.73
 11
-65.6016
 21
130.301
  0
LINE
  8
0
 10
-65.6016
 20
130.301
 11
-65.5419
 21
129.87
  0
LINE
  8
0
 10
-65.5419
 20
129.87
 11
-65.4992
 21
129.436
  0
LINE
  8
0
 10
-65.4992
 20
129.436
 11
-65.4735
 21
129.001
  0
LINE
  8
0
 10
-65.4735
 20
129.001
 11
-65.465
 21
128.565
  0
LINE
  8
0
 10
-65.465
 20
128.565
 11
-65.4735
 21
128.129
  0
LINE
  8
0
 10
-65.4735
 20
128.129
 11
-65.4992
 21
127.694
  0
LINE
  8
0
 10
-65.4992
 20
127.694
 11
-65.5419
 21
127.26
  0
LINE
  8
0
 10
-65.5419
 20
127.26
 11
-65.6016
 21
126.829
  0
LINE
  8
0
 10
-65.6016
 20
126.829
 11
-65.6783
 21
126.399
  0
LINE
  8
0
 10
-65.6783
 20
126.399
 11
-65.7717
 21
125.974
  0
LINE
  8
0
 10
-65.7717
 20
125.974
 11
-65.8817
 21
125.552
  0
LINE
  8
0
 10
-65.8817
 20
125.552
 11
-66.0082
 21
125.135
  0
LINE
  8
0
 10
-66.0082
 20
125.135
 11
-66.151
 21
124.723
  0
LINE
  8
0
 10
-66.151
 20
124.723
 11
-66.3099
 21
124.317
  0
LINE
  8
0
 10
-66.3099
 20
124.317
 11
-66.4846
 21
123.918
  0
LINE
  8
0
 10
-66.4846
 20
123.918
 11
-66.6748
 21
123.526
  0
LINE
  8
0
 10
-66.6748
 20
123.526
 11
-66.8803
 21
123.141
  0
LINE
  8
0
 10
-66.8803
 20
123.141
 11
-67.1007
 21
122.765
  0
LINE
  8
0
 10
-67.1007
 20
122.765
 11
-67.3356
 21
122.398
  0
LINE
  8
0
 10
-67.3356
 20
122.398
 11
-67.5849
 21
122.041
  0
LINE
  8
0
 10
-67.5849
 20
122.041
 11
-67.8479
 21
121.693
  0
LINE
  8
0
 10
-67.8479
 20
121.693
 11
-68.1245
 21
121.356
  0
LINE
  8
0
 10
-68.1245
 20
121.356
 11
-68.414
 21
121.03
  0
LINE
  8
0
 10
-68.414
 20
121.03
 11
-68.7161
 21
120.716
  0
LINE
  8
0
 10
-68.7161
 20
120.716
 11
-69.0303
 21
120.414
  0
LINE
  8
0
 10
-69.0303
 20
120.414
 11
-69.3561
 21
120.124
  0
LINE
  8
0
 10
-69.3561
 20
120.124
 11
-69.693
 21
119.848
  0
LINE
  8
0
 10
-69.693
 20
119.848
 11
-70.0405
 21
119.585
  0
LINE
  8
0
 10
-70.0405
 20
119.585
 11
-70.3981
 21
119.336
  0
LINE
  8
0
 10
-70.3981
 20
119.336
 11
-70.7652
 21
119.101
  0
LINE
  8
0
 10
-70.7652
 20
119.101
 11
-71.1413
 21
118.88
  0
LINE
  8
0
 10
-71.1413
 20
118.88
 11
-71.5257
 21
118.675
  0
LINE
  8
0
 10
-71.5257
 20
118.675
 11
-71.9178
 21
118.485
  0
LINE
  8
0
 10
-71.9178
 20
118.485
 11
-72.3172
 21
118.31
  0
LINE
  8
0
 10
-72.3172
 20
118.31
 11
-72.7231
 21
118.151
  0
LINE
  8
0
 10
-72.7231
 20
118.151
 11
-73.1349
 21
118.008
  0
LINE
  8
0
 10
-73.1349
 20
118.008
 11
-73.552
 21
117.882
  0
LINE
  8
0
 10
-73.552
 20
117.882
 11
-73.9737
 21
117.772
  0
LINE
  8
0
 10
-73.9737
 20
117.772
 11
-74.3995
 21
117.678
  0
LINE
  8
0
 10
-74.3995
 20
117.678
 11
-74.8285
 21
117.602
  0
LINE
  8
0
 10
-74.8285
 20
117.602
 11
-75.2603
 21
117.542
  0
LINE
  8
0
 10
-75.2603
 20
117.542
 11
-75.6941
 21
117.499
  0
LINE
  8
0
 10
-75.6941
 20
117.499
 11
-76.1292
 21
117.474
  0
LINE
  8
0
 10
-76.1292
 20
117.474
 11
-76.565
 21
117.465
  0
LINE
  8
0
 10
-76.565
 20
117.465
 11
-77.0007
 21
117.474
  0
LINE
  8
0
 10
76.1292
 20
117.474
 11
75.6941
 21
117.499
  0
LINE
  8
0
 10
75.6941
 20
117.499
 11
75.2603
 21
117.542
  0
LINE
  8
0
 10
75.2603
 20
117.542
 11
74.8285
 21
117.602
  0
LINE
  8
0
 10
74.8285
 20
117.602
 11
74.3995
 21
117.678
  0
LINE
  8
0
 10
74.3995
 20
117.678
 11
73.9737
 21
117.772
  0
LINE
  8
0
 10
73.9737
 20
117.772
 11
73.552
 21
117.882
  0
LINE
  8
0
 10
73.552
 20
117.882
 11
73.1349
 21
118.008
  0
LINE
  8
0
 10
73.1349
 20
118.008
 11
72.7231
 21
118.151
  0
LINE
  8
0
 10
72.7231
 20
118.151
 11
72.3172
 21
118.31
  0
LINE
  8
0
 10
72.3172
 20
118.31
 11
71.9178
 21
118.485
  0
LINE
  8
0
 10
71.9178
 20
118.485
 11
71.5257
 21
118.675
  0
LINE
  8
0
 10
71.5257
 20
118.675
 11
71.1413
 21
118.88
  0
LINE
  8
0
 10
71.1413
 20
118.88
 11
70.7652
 21
119.101
  0
LINE
  8
0
 10
70.7652
 20
119.101
 11
70.3981
 21
119.336
  0
LINE
  8
0
 10
70.3981
 20
119.336
 11
70.0405
 21
119.585
  0
LINE
  8
0
 10
70.0405
 20
119.585
 11
69.693
 21
119.848
  0
LINE
  8
0
 10
69.693
 20
119.848
 11
69.3561
 21
120.124
  0
LINE
  8
0
 10
69.3561
 20
120.124
 11
69.0303
 21
120.414
  0
LINE
  8
0
 10
69.0303
 20
120.414
 11
68.7161
 21
120.716
  0
LINE
  8
0
 10
68.7161
 20
120.716
 11
68.414
 21
121.03
  0
LINE
  8
0
 10
68.414
 20
121.03
 11
68.1245
 21
121.356
  0
LINE
  8
0
 10
68.1245
 20
121.356
 11
67.8479
 21
121.693
  0
LINE
  8
0
 10
67.8479
 20
121.693
 11
67.5849
 21
122.041
  0
LINE
  8
0
 10
67.5849
 20
122.041
 11
67.3356
 21
122.398
  0
LINE
  8
0
 10
67.3356
 20
122.398
 11
67.1007
 21
122.765
  0
LINE
  8
0
 10
67.1007
 20
122.765
 11
66.8803
 21
123.141
  0
LINE
  8
0
 10
66.8803
 20
123.141
 11
66.6748
 21
123.526
  0
LINE
  8
0
 10
66.6748
 20
123.526
 11
66.4846
 21
123.918
  0
LINE
  8
0
 10
66.4846
 20
123.918
 11
66.3099
 21
124.317
  0
LINE
  8
0
 10
66.3099
 20
124.317
 11
66.151
 21
124.723
  0
LINE
  8
0
 10
66.151
 20
124.723
 11
66.0082
 21
125.135
  0
LINE
  8
0
 10
66.0082
 20
125.135
 11
65.8817
 21
125.552
  0
LINE
  8
0
 10
65.8817
 20
125.552
 11
65.7717
 21
125.974
  0
LINE
  8
0
 10
65.7717
 20
125.974
 11
65.6783
 21
126.399
  0
LINE
  8
0
 10
65.6783
 20
126.399
 11
65.6016
 21
126.829
  0
LINE
  8
0
 10
65.6016
 20
126.829
 11
65.5419
 21
127.26
  0
LINE
  8
0
 10
65.5419
 20
127.26
 11
65.4992
 21
127.694
  0
LINE
  8
0
 10
65.4992
 20
127.694
 11
65.4735
 21
128.129
  0
LINE
  8
0
 10
65.4735
 20
128.129
 11
65.465
 21
128.565
  0
LINE
  8
0
 10
65.465
 20
128.565
 11
65.4735
 21
129.001
  0
LINE
  8
0
 10
65.4735
 20
129.001
 11
65.4992
 21
129.436
  0
LINE
  8
0
 10
65.4992
 20
129.436
 11
65.5419
 21
129.87
  0
LINE
  8
0
 10
65.5419
 20
129.87
 11
65.6016
 21
130.301
  0
LINE
  8
0
 10
65.6016
 20
130.301
 11
65.6783
 21
130.73
  0
LINE
  8
0
 10
65.6783
 20
130.73
 11
65.7717
 21
131.156
  0
LINE
  8
0
 10
65.7717
 20
131.156
 11
65.8817
 21
131.578
  0
LINE
  8
0
 10
65.8817
 20
131.578
 11
66.0082
 21
131.995
  0
LINE
  8
0
 10
66.0082
 20
131.995
 11
66.151
 21
132.407
  0
LINE
  8
0
 10
66.151
 20
132.407
 11
66.3099
 21
132.813
  0
LINE
  8
0
 10
66.3099
 20
132.813
 11
66.4846
 21
133.212
  0
LINE
  8
0
 10
66.4846
 20
133.212
 11
66.6748
 21
133.604
  0
LINE
  8
0
 10
66.6748
 20
133.604
 11
66.8803
 21
133.989
  0
LINE
  8
0
 10
66.8803
 20
133.989
 11
67.1007
 21
134.365
  0
LINE
  8
0
 10
67.1007
 20
134.365
 11
67.3356
 21
134.732
  0
LINE
  8
0
 10
67.3356
 20
134.732
 11
67.5849
 21
135.089
  0
LINE
  8
0
 10
67.5849
 20
135.089
 11
67.8479
 21
135.437
  0
LINE
  8
0
 10
67.8479
 20
135.437
 11
68.1245
 21
135.774
  0
LINE
  8
0
 10
68.1245
 20
135.774
 11
68.414
 21
136.1
  0
LINE
  8
0
 10
68.414
 20
136.1
 11
68.7161
 21
136.414
  0
LINE
  8
0
 10
68.7161
 20
136.414
 11
102.151
 21
169.849
  0
LINE
  8
0
 10
102.151
 20
169.849
 11
102.465
 21
170.151
  0
LINE
  8
0
 10
102.465
 20
170.151
 11
102.791
 21
170.441
  0
LINE
  8
0
 10
102.791
 20
170.441
 11
103.128
 21
170.717
  0
LINE
  8
0
 10
103.128
 20
170.717
 11
103.476
 21
170.98
  0
LINE
  8
0
 10
103.476
 20
170.98
 11
103.833
 21
171.229
  0
LINE
  8
0
 10
103.833
 20
171.229
 11
104.2
 21
171.464
  0
LINE
  8
0
 10
104.2
 20
171.464
 11
104.576
 21
171.685
  0
LINE
  8
0
 10
104.576
 20
171.685
 11
104.961
 21
171.89
  0
LINE
  8
0
 10
104.961
 20
171.89
 11
105.353
 21
172.08
  0
LINE
  8
0
 10
105.353
 20
172.08
 11
105.752
 21
172.255
  0
LINE
  8
0
 10
105.752
 20
172.255
 11
106.158
 21
172.414
  0
LINE
  8
0
 10
106.158
 20
172.414
 11
106.57
 21
172.557
  0
LINE
  8
0
 10
106.57
 20
172.557
 11
106.987
 21
172.683
  0
LINE
  8
0
 10
106.987
 20
172.683
 11
107.409
 21
172.793
  0
LINE
  8
0
 10
107.409
 20
172.793
 11
107.834
 21
172.887
  0
LINE
  8
0
 10
107.834
 20
172.887
 11
108.264
 21
172.963
  0
LINE
  8
0
 10
108.264
 20
172.963
 11
108.695
 21
173.023
  0
LINE
  8
0
 10
108.695
 20
173.023
 11
109.129
 21
173.066
  0
LINE
  8
0
 10
109.129
 20
173.066
 11
109.564
 21
173.091
  0
LINE
  8
0
 10
109.564
 20
173.091
 11
110
 21
173.1
  0
LINE
  8
0
 10
110
 20
173.1
 11
110.436
 21
173.091
  0
LINE
  8
0
 10
110.436
 20
173.091
 11
110.871
 21
173.066
  0
LINE
  8
0
 10
110.871
 20
173.066
 11
111.305
 21
173.023
  0
LINE
  8
0
 10
111.305
 20
173.023
 11
111.736
 21
172.963
  0
LINE
  8
0
 10
111.736
 20
172.963
 11
112.165
 21
172.887
  0
LINE
  8
0
 10
112.165
 20
172.887
 11
112.591
 21
172.793
  0
LINE
  8
0
 10
112.591
 20
172.793
 11
113.013
 21
172.683
  0
LINE
  8
0
 10
113.013
 20
172.683
 11
113.43
 21
172.557
  0
LINE
  8
0
 10
113.43
 20
172.557
 11
113.842
 21
172.414
  0
LINE
  8
0
 10
113.842
 20
172.414
 11
114.248
 21
172.255
  0
LINE
  8
0
 10
114.248
 20
172.255
 11
114.647
 21
172.08
  0
LINE
  8
0
 10
114.647
 20
172.08
 11
115.039
 21
171.89
  0
LINE
  8
0
 10
115.039
 20
171.89
 11
115.424
 21
171.685
  0
LINE
  8
0
 10
115.424
 20
171.685
 11
115.8
 21
171.464
  0
LINE
  8
0
 10
115.8
 20
171.464
 11
116.167
 21
171.229
  0
LINE
  8
0
 10
116.167
 20
171.229
 11
116.524
 21
170.98
  0
LINE
  8
0
 10
116.524
 20
170.98
 11
116.872
 21
170.717
  0
LINE
  8
0
 10
116.872
 20
170.717
 11
117.209
 21
170.441
  0
LINE
  8
0
 10
117.209
 20
170.441
 11
117.535
 21
170.151
  0
LINE
  8
0
 10
117.535
 20
170.151
 11
117.849
 21
169.849
  0
LINE
  8
0
 10
117.849
 20
169.849
 11
118.151
 21
169.535
  0
LINE
  8
0
 10
118.151
 20
169.535
 11
118.441
 21
169.209
  0
LINE
  8
0
 10
118.441
 20
169.209
 11
118.717
 21
168.872
  0
LINE
  8
0
 10
118.717
 20
168.872
 11
118.98
 21
168.524
  0
LINE
  8
0
 10
118.98
 20
168.524
 11
119.229
 21
168.167
  0
LINE
  8
0
 10
119.229
 20
168.167
 11
119.464
 21
167.8
  0
LINE
  8
0
 10
119.464
 20
167.8
 11
119.685
 21
167.424
  0
LINE
  8
0
 10
119.685
 20
167.424
 11
119.89
 21
167.039
  0
LINE
  8
0
 10
119.89
 20
167.039
 11
120.08
 21
166.647
  0
LINE
  8
0
 10
120.08
 20
166.647
 11
120.255
 21
166.248
  0
LINE
  8
0
 10
120.255
 20
166.248
 11
120.414
 21
165.842
  0
LINE
  8
0
 10
120.414
 20
165.842
 11
120.557
 21
165.43
  0
LINE
  8
0
 10
120.557
 20
165.43
 11
120.683
 21
165.013
  0
LINE
  8
0
 10
120.683
 20
165.013
 11
120.793
 21
164.591
  0
LINE
  8
0
 10
120.793
 20
164.591
 11
120.887
 21
164.165
  0
LINE
  8
0
 10
120.887
 20
164.165
 11
120.963
 21
163.736
  0
LINE
  8
0
 10
120.963
 20
163.736
 11
121.023
 21
163.305
  0
LINE
  8
0
 10
121.023
 20
163.305
 11
121.066
 21
162.871
  0
LINE
  8
0
 10
121.066
 20
162.871
 11
121.091
 21
162.436
  0
LINE
  8
0
 10
121.091
 20
162.436
 11
121.1
 21
162
  0
LINE
  8
0
 10
121.1
 20
162
 11
121.091
 21
161.564
  0
LINE
  8
0
 10
121.091
 20
161.564
 11
121.066
 21
161.129
  0
LINE
  8
0
 10
121.066
 20
161.129
 11
121.023
 21
160.695
  0
LINE
  8
0
 10
121.023
 20
160.695
 11
120.963
 21
160.264
  0
LINE
  8
0
 10
120.963
 20
160.264
 11
120.887
 21
159.834
  0
LINE
  8
0
 10
120.887
 20
159.834
 11
120.793
 21
159.409
  0
LINE
  8
0
 10
120.793
 20
159.409
 11
120.683
 21
158.987
  0
LINE
  8
0
 10
120.683
 20
158.987
 11
120.557
 21
158.57
  0
LINE
  8
0
 10
120.557
 20
158.57
 11
120.414
 21
158.158
  0
LINE
  8
0
 10
120.414
 20
158.158
 11
120.255
 21
157.752
  0
LINE
  8
0
 10
120.255
 20
157.752
 11
120.08
 21
157.353
  0
LINE
  8
0
 10
120.08
 20
157.353
 11
119.89
 21
156.961
  0
LINE
  8
0
 10
119.89
 20
156.961
 11
119.685
 21
156.576
  0
LINE
  8
0
 10
119.685
 20
156.576
 11
119.464
 21
156.2
  0
LINE
  8
0
 10
119.464
 20
156.2
 11
119.229
 21
155.833
  0
LINE
  8
0
 10
119.229
 20
155.833
 11
118.98
 21
155.476
  0
LINE
  8
0
 10
118.98
 20
155.476
 11
118.717
 21
155.128
  0
LINE
  8
0
 10
118.717
 20
155.128
 11
118.441
 21
154.791
  0
LINE
  8
0
 10
118.441
 20
154.791
 11
118.151
 21
154.465
  0
LINE
  8
0
 10
118.151
 20
154.465
 11
117.849
 21
154.151
  0
LINE
  8
0
 10
117.849
 20
154.151
 11
84.4138
 21
120.716
  0
LINE
  8
0
 10
84.4138
 20
120.716
 11
84.0997
 21
120.414
  0
LINE
  8
0
 10
84.0997
 20
120.414
 11
83.7738
 21
120.124
  0
LINE
  8
0
 10
83.7738
 20
120.124
 11
83.4369
 21
119.848
  0
LINE
  8
0
 10
83.4369
 20
119.848
 11
83.0894
 21
119.585
  0
LINE
  8
0
 10
83.0894
 20
119.585
 11
82.7318
 21
119.336
  0
LINE
  8
0
 10
82.7318
 20
119.336
 11
82.3647
 21
119.101
  0
LINE
  8
0
 10
82.3647
 20
119.101
 11
81.9887
 21
118.88
  0
LINE
  8
0
 10
81.9887
 20
118.88
 11
81.6043
 21
118.675
  0
LINE
  8
0
 10
81.6043
 20
118.675
 11
81.2121
 21
118.485
  0
LINE
  8
0
 10
81.2121
 20
118.485
 11
80.8127
 21
118.31
  0
LINE
  8
0
 10
80.8127
 20
118.31
 11
80.4069
 21
118.151
  0
LINE
  8
0
 10
80.4069
 20
118.151
 11
79.9951
 21
118.008
  0
LINE
  8
0
 10
79.9951
 20
118.008
 11
79.578
 21
117.882
  0
LINE
  8
0
 10
79.578
 20
117.882
 11
79.1562
 21
117.772
  0
LINE
  8
0
 10
79.1562
 20
117.772
 11
78.7305
 21
117.678
  0
LINE
  8
0
 10
78.7305
 20
117.678
 11
78.3014
 21
117.602
  0
LINE
  8
0
 10
78.3014
 20
117.602
 11
77.8696
 21
117.542
  0
LINE
  8
0
 10
77.8696
 20
117.542
 11
77.4359
 21
117.499
  0
LINE
  8
0
 10
77.4359
 20
117.499
 11
77.0007
 21
117.474
  0
LINE
  8
0
 10
77.0007
 20
117.474
 11
76.565
 21
117.465
  0
LINE
  8
0
 10
76.565
 20
117.465
 11
76.1292
 21
117.474
  0
LINE
  8
0
 10
-110.436
 20
-173.091
 11
-110.871
 21
-173.066
  0
LINE
  8
0
 10
-110.871
 20
-173.066
 11
-111.305
 21
-173.023
  0
LINE
  8
0
 10
-111.305
 20
-173.023
 11
-111.736
 21
-172.963
  0
LINE
  8
0
 10
-111.736
 20
-172.963
 11
-112.165
 21
-172.887
  0
LINE
  8
0
 10
-112.165
 20
-172.887
 11
-112.591
 21
-172.793
  0
LINE
  8
0
 10
-112.591
 20
-172.793
 11
-113.013
 21
-172.683
  0
LINE
  8
0
 10
-113.013
 20
-172.683
 11
-113.43
 21
-172.557
  0
LINE
  8
0
 10
-113.43
 20
-172.557
 11
-113.842
 21
-172.414
  0
LINE
  8
0
 10
-113.842
 20
-172.414
 11
-114.248
 21
-172.255
  0
LINE
  8
0
 10
-114.248
 20
-172.255
 11
-114.647
 21
-172.08
  0
LINE
  8
0
 10
-114.647
 20
-172.08
 11
-115.039
 21
-171.89
  0
LINE
  8
0
 10
-115.039
 20
-171.89
 11
-115.424
 21
-171.685
  0
LINE
  8
0
 10
-115.424
 20
-171.685
 11
-115.8
 21
-171.464
  0
LINE
  8
0
 10
-115.8
 20
-171.464
 11
-116.167
 21
-171.229
  0
LINE
  8
0
 10
-116.167
 20
-171.229
 11
-116.524
 21
-170.98
  0
LINE
  8
0
 10
-116.524
 20
-170.98
 11
-116.872
 21
-170.717
  0
LINE
  8
0
 10
-116.872
 20
-170.717
 11
-117.209
 21
-170.441
  0
LINE
  8
0
 10
-117.209
 20
-170.441
 11
-117.535
 21
-170.151
  0
LINE
  8
0
 10
-117.535
 20
-170.151
 11
-117.849
 21
-169.849
  0
LINE
  8
0
 10
-117.849
 20
-169.849
 11
-118.151
 21
-169.535
  0
LINE
  8
0
 10
-118.151
 20
-169.535
 11
-118.441
 21
-169.209
  0
LINE
  8
0
 10
-118.441
 20
-169.209
 11
-118.717
 21
-168.872
  0
LINE
  8
0
 10
-118.717
 20
-168.872
 11
-118.98
 21
-168.524
  0
LINE
  8
0
 10
-118.98
 20
-168.524
 11
-119.229
 21
-168.167
  0
LINE
  8
0
 10
-119.229
 20
-168.167
 11
-119.464
 21
-167.8
  0
LINE
  8
0
 10
-119.464
 20
-167.8
 11
-119.685
 21
-167.424
  0
LINE
  8
0
 10
-119.685
 20
-167.424
 11
-119.89
 21
-167.039
  0
LINE
  8
0
 10
-119.89
 20
-167.039
 11
-120.08
 21
-166.647
  0
LINE
  8
0
 10
-120.08
 20
-166.647
 11
-120.255
 21
-166.248
  0
LINE
  8
0
 10
-120.255
 20
-166.248
 11
-120.414
 21
-165.842
  0
LINE
  8
0
 10
-120.414
 20
-165.842
 11
-120.557
 21
-165.43
  0
LINE
  8
0
 10
-120.557
 20
-165.43
 11
-120.683
 21
-165.013
  0
LINE
  8
0
 10
-120.683
 20
-165.013
 11
-120.793
 21
-164.591
  0
LINE
  8
0
 10
-120.793
 20
-164.591
 11
-120.887
 21
-164.165
  0
LINE
  8
0
 10
-120.887
 20
-164.165
 11
-120.963
 21
-163.736
  0
LINE
  8
0
 10
-120.963
 20
-163.736
 11
-121.023
 21
-163.305
  0
LINE
  8
0
 10
-121.023
 20
-163.305
 11
-121.066
 21
-162.871
  0
LINE
  8
0
 10
-121.066
 20
-162.871
 11
-121.091
 21
-162.436
  0
LINE
  8
0
 10
-121.091
 20
-162.436
 11
-121.1
 21
-162
  0
LINE
  8
0
 10
-121.1
 20
-162
 11
-121.091
 21
-161.564
  0
LINE
  8
0
 10
-121.091
 20
-161.564
 11
-121.066
 21
-161.129
  0
LINE
  8
0
 10
-121.066
 20
-161.129
 11
-121.023
 21
-160.695
  0
LINE
  8
0
 10
-121.023
 20
-160.695
 11
-120.963
 21
-160.264
  0
LINE
  8
0
 10
-120.963
 20
-160.264
 11
-120.887
 21
-159.834
  0
LINE
  8
0
 10
-120.887
 20
-159.834
 11
-120.793
 21
-159.409
  0
LINE
  8
0
 10
-120.793
 20
-159.409
 11
-120.683
 21
-158.987
  0
LINE
  8
0
 10
-120.683
 20
-158.987
 11
-120.557
 21
-158.57
  0
LINE
  8
0
 10
-120.557
 20
-158.57
 11
-120.414
 21
-158.158
  0
LINE
  8
0
 10
-120.414
 20
-158.158
 11
-120.255
 21
-157.752
  0
LINE
  8
0
 10
-120.255
 20
-157.752
 11
-120.08
 21
-157.353
  0
LINE
  8
0
 10
-120.08
 20
-157.353
 11
-119.89
 21
-156.961
  0
LINE
  8
0
 10
-119.89
 20
-156.961
 11
-119.685
 21
-156.576
  0
LINE
  8
0
 10
-119.685
 20
-156.576
 11
-119.464
 21
-156.2
  0
LINE
  8
0
 10
-119.464
 20
-156.2
 11
-119.229
 21
-155.833
  0
LINE
  8
0
 10
-119.229
 20
-155.833
 11
-118.98
 21
-155.476
  0
LINE
  8
0
 10
-118.98
 20
-155.476
 11
-118.717
 21
-155.128
  0
LINE
  8
0
 10
-118.717
 20
-155.128
 11
-118.441
 21
-154.791
  0
LINE
  8
0
 10
-118.441
 20
-154.791
 11
-118.151
 21
-154.465
  0
LINE
  8
0
 10
-118.151
 20
-154.465
 11
-117.849
 21
-154.151
  0
LINE
  8
0
 10
-117.849
 20
-154.151
 11
-84.4138
 21
-120.716
  0
LINE
  8
0
 10
-84.4138
 20
-120.716
 11
-84.0997
 21
-120.414
  0
LINE
  8
0
 10
-84.0997
 20
-120.414
 11
-83.7738
 21
-120.124
  0
LINE
  8
0
 10
-83.7738
 20
-120.124
 11
-83.4369
 21
-119.848
  0
LINE
  8
0
 10
-83.4369
 20
-119.848
 11
-83.0894
 21
-119.585
  0
LINE
  8
0
 10
-83.0894
 20
-119.585
 11
-82.7318
 21
-119.336
  0
LINE
  8
0
 10
-82.7318
 20
-119.336
 11
-82.3647
 21
-119.101
  0
LINE
  8
0
 10
-82.3647
 20
-119.101
 11
-81.9887
 21
-118.88
  0
LINE
  8
0
 10
-81.9887
 20
-118.88
 11
-81.6043
 21
-118.675
  0
LINE
  8
0
 10
-81.6043
 20
-118.675
 11
-81.2121
 21
-118.485
  0
LINE
  8
0
 10
-81.2121
 20
-118.485
 11
-80.8127
 21
-118.31
  0
LINE
  8
0
 10
-80.8127
 20
-118.31
 11
-80.4069
 21
-118.151
  0
LINE
  8
0
 10
-80.4069
 20
-118.151
 11
-79.9951
 21
-118.008
  0
LINE
  8
0
 10
-79.9951
 20
-118.008
 11
-79.578
 21
-117.882
  0
LINE
  8
0
 10
-79.578
 20
-117.882
 11
-79.1562
 21
-117.772
  0
LINE
  8
0
 10
-79.1562
 20
-117.772
 11
-78.7305
 21
-117.678
  0
LINE
  8
0
 10
-78.7305
 20
-117.678
 11
-78.3014
 21
-117.602
  0
LINE
  8
0
 10
-78.3014
 20
-117.602
 11
-77.8696
 21
-117.542
  0
LINE
  8
0
 10
-77.8696
 20
-117.542
 11
-77.4359
 21
-117.499
  0
LINE
  8
0
 10
-77.4359
 20
-117.499
 11
-77.0007
 21
-117.474
  0
LINE
  8
0
 10
-77.0007
 20
-117.474
 11
-76.565
 21
-117.465
  0
LINE
  8
0
 10
-76.565
 20
-117.465
 11
-76.1292
 21
-117.474
  0
LINE
  8
0
 10
-76.1292
 20
-117.474
 11
-75.6941
 21
-117.499
  0
LINE
  8
0
 10
-75.6941
 20
-117.499
 11
-75.2603
 21
-117.542
  0
LINE
  8
0
 10
-75.2603
 20
-117.542
 11
-74.8285
 21
-117.602
  0
LINE
  8
0
 10
-74.8285
 20
-117.602
 11
-74.3995
 21
-117.678
  0
LINE
  8
0
 10
-74.3995
 20
-117.678
 11
-73.9737
 21
-117.772
  0
LINE
  8
0
 10
-73.9737
 20
-117.772
 11
-73.552
 21
-117.882
  0
LINE
  8
0
 10
-73.552
 20
-117.882
 11
-73.1349
 21
-118.008
  0
LINE
  8
0
 10
-73.1349
 20
-118.008
 11
-72.7231
 21
-118.151
  0
LINE
  8
0
 10
-72.7231
 20
-118.151
 11
-72.3172
 21
-118.31
  0
LINE
  8
0
 10
-72.3172
 20
-118.31
 11
-71.9178
 21
-118.485
  0
LINE
  8
0
 10
-71.9178
 20
-118.485
 11
-71.5257
 21
-118.675
  0
LINE
  8
0
 10
-71.5257
 20
-118.675
 11
-71.1413
 21
-118.88
  0
LINE
  8
0
 10
-71.1413
 20
-118.88
 11
-70.7652
 21
-119.101
  0
LINE
  8
0
 10
-70.7652
 20
-119.101
 11
-70.3981
 21
-119.336
  0
LINE
  8
0
 10
-70.3981
 20
-119.336
 11
-70.0405
 21
-119.585
  0
LINE
  8
0
 10
-70.0405
 20
-119.585
 11
-69.693
 21
-119.848
  0
LINE
  8
0
 10
-69.693
 20
-119.848
 11
-69.3561
 21
-120.124
  0
LINE
  8
0
 10
-69.3561
 20
-120.124
 11
-69.0303
 21
-120.414
  0
LINE
  8
0
 10
-69.0303
 20
-120.414
 11
-68.7161
 21
-120.716
  0
LINE
  8
0
 10
-68.7161
 20
-120.716
 11
-68.414
 21
-121.03
  0
LINE
  8
0
 10
-68.414
 20
-121.03
 11
-68.1245
 21
-121.356
  0
LINE
  8
0
 10
-68.1245
 20
-121.356
 11
-67.8479
 21
-121.693
  0
LINE
  8
0
 10
-67.8479
 20
-121.693
 11
-67.5849
 21
-122.041
  0
LINE
  8
0
 10
-67.5849
 20
-122.041
 11
-67.3356
 21
-122.398
  0
LINE
  8
0
 10
-67.3356
 20
-122.398
 11
-67.1007
 21
-122.765
  0
LINE
  8
0
 10
-67.1007
 20
-122.765
 11
-66.8803
 21
-123.141
  0
LINE
  8
0
 10
-66.8803
 20
-123.141
 11
-66.6748
 21
-123.526
  0
LINE
  8
0
 10
-66.6748
 20
-123.526
 11
-66.4846
 21
-123.918
  0
LINE
  8
0
 10
-66.4846
 20
-123.918
 11
-66.3099
 21
-124.317
  0
LINE
  8
0
 10
-66.3099
 20
-124.317
 11
-66.151
 21
-124.723
  0
LINE
  8
0
 10
-66.151
 20
-124.723
 11
-66.0082
 21
-125.135
  0
LINE
  8
0
 10
-66.0082
 20
-125.135
 11
-65.8817
 21
-125.552
  0
LINE
  8
0
 10
-65.8817
 20
-125.552
 11
-65.7717
 21
-125.974
  0
LINE
  8
0
 10
-65.7717
 20
-125.974
 11
-65.6783
 21
-126.399
  0
LINE
  8
0
 10
-65.6783
 20
-126.399
 11
-65.6016
 21
-126.829
  0
LINE
  8
0
 10
-65.6016
 20
-126.829
 11
-65.5419
 21
-127.26
  0
LINE
  8
0
 10
-65.5419
 20
-127.26
 11
-65.4992
 21
-127.694
  0
LINE
  8
0
 10
-65.4992
 20
-127.694
 11
-65.4735
 21
-128.129
  0
LINE
  8
0
 10
-65.4735
 20
-128.129
 11
-65.465
 21
-128.565
  0
LINE
  8
0
 10
-65.465
 20
-128.565
 11
-65.4735
 21
-129.001
  0
LINE
  8
0
 10
-65.4735
 20
-129.001
 11
-65.4992
 21
-129.436
  0
LINE
  8
0
 10
-65.4992
 20
-129.436
 11
-65.5419
 21
-129.87
  0
LINE
  8
0
 10
-65.5419
 20
-129.87
 11
-65.6016
 21
-130.301
  0
LINE
  8
0
 10
-65.6016
 20
-130.301
 11
-65.6783
 21
-130.73
  0
LINE
  8
0
 10
-65.6783
 20
-130.73
 11
-65.7717
 21
-131.156
  0
LINE
  8
0
 10
-65.7717
 20
-131.156
 11
-65.8817
 21
-131.578
  0
LINE
  8
0
 10
-65.8817
 20
-131.578
 11
-66.0082
 21
-131.995
  0
LINE
  8
0
 10
-66.0082
 20
-131.995
 11
-66.151
 21
-132.407
  0
LINE
  8
0
 10
-66.151
 20
-132.407
 11
-66.3099
 21
-132.813
  0
LINE
  8
0
 10
-66.3099
 20
-132.813
 11
-66.4846
 21
-133.212
  0
LINE
  8
0
 10
-66.4846
 20
-133.212
 11
-66.6748
 21
-133.604
  0
LINE
  8
0
 10
-66.6748
 20
-133.604
 11
-66.8803
 21
-133.989
  0
LINE
  8
0
 10
-66.8803
 20
-133.989
 11
-67.1007
 21
-134.365
  0
LINE
  8
0
 10
-67.1007
 20
-134.365
 11
-67.3356
 21
-134.732
  0
LINE
  8
0
 10
-67.3356
 20
-134.732
 11
-67.5849
 21
-135.089
  0
LINE
  8
0
 10
-67.5849
 20
-135.089
 11
-67.8479
 21
-135.437
  0
LINE
  8
0
 10
-67.8479
 20
-135.437
 11
-68.1245
 21
-135.774
  0
LINE
  8
0
 10
-68.1245
 20
-135.774
 11
-68.414
 21
-136.1
  0
LINE
  8
0
 10
-68.414
 20
-136.1
 11
-68.7161
 21
-136.414
  0
LINE
  8
0
 10
-68.7161
 20
-136.414
 11
-102.151
 21
-169.849
  0
LINE
  8
0
 10
-102.151
 20
-169.849
 11
-102.465
 21
-170.151
  0
LINE
  8
0
 10
-102.465
 20
-170.151
 11
-102.791
 21
-170.441
  0
LINE
  8
0
 10
-102.791
 20
-170.441
 11
-103.128
 21
-170.717
  0
LINE
  8
0
 10
-103.128
 20
-170.717
 11
-103.476
 21
-170.98
  0
LINE
  8
0
 10
-103.476
 20
-170.98
 11
-103.833
 21
-171.229
  0
LINE
  8
0
 10
-103.833
 20
-171.229
 11
-104.2
 21
-171.464
  0
LINE
  8
0
 10
-104.2
 20
-171.464
 11
-104.576
 21
-171.685
  0
LINE
  8
0
 10
-104.576
 20
-171.685
 11
-104.961
 21
-171.89
  0
LINE
  8
0
 10
-104.961
 20
-171.89
 11
-105.353
 21
-172.08
  0
LINE
  8
0
 10
-105.353
 20
-172.08
 11
-105.752
 21
-172.255
  0
LINE
  8
0
 10
-105.752
 20
-172.255
 11
-106.158
 21
-172.414
  0
LINE
  8
0
 10
-106.158
 20
-172.414
 11
-106.57
 21
-172.557
  0
LINE
  8
0
 10
-106.57
 20
-172.557
 11
-106.987
 21
-172.683
  0
LINE
  8
0
 10
-106.987
 20
-172.683
 11
-107.409
 21
-172.793
  0
LINE
  8
0
 10
-107.409
 20
-172.793
 11
-107.834
 21
-172.887
  0
LINE
  8
0
 10
-107.834
 20
-172.887
 11
-108.264
 21
-172.963
  0
LINE
  8
0
 10
-108.264
 20
-172.963
 11
-108.695
 21
-173.023
  0
LINE
  8
0
 10
-108.695
 20
-173.023
 11
-109.129
 21
-173.066
  0
LINE
  8
0
 10
-109.129
 20
-173.066
 11
-109.564
 21
-173.091
  0
LINE
  8
0
 10
-109.564
 20
-173.091
 11
-110
 21
-173.1
  0
LINE
  8
0
 10
-110
 20
-173.1
 11
-110.436
 21
-173.091
  0
LINE
  8
0
 10
109.564
 20
-173.091
 11
109.129
 21
-173.066
  0
LINE
  8
0
 10
109.129
 20
-173.066
 11
108.695
 21
-173.023
  0
LINE
  8
0
 10
108.695
 20
-173.023
 11
108.264
 21
-172.963
  0
LINE
  8
0
 10
108.264
 20
-172.963
 11
107.834
 21
-172.887
  0
LINE
  8
0
 10
107.834
 20
-172.887
 11
107.409
 21
-172.793
  0
LINE
  8
0
 10
107.409
 20
-172.793
 11
106.987
 21
-172.683
  0
LINE
  8
0
 10
106.987
 20
-172.683
 11
106.57
 21
-172.557
  0
LINE
  8
0
 10
106.57
 20
-172.557
 11
106.158
 21
-172.414
  0
LINE
  8
0
 10
106.158
 20
-172.414
 11
105.752
 21
-172.255
  0
LINE
  8
0
 10
105.752
 20
-172.255
 11
105.353
 21
-172.08
  0
LINE
  8
0
 10
105.353
 20
-172.08
 11
104.961
 21
-171.89
  0
LINE
  8
0
 10
104.961
 20
-171.89
 11
104.576
 21
-171.685
  0
LINE
  8
0
 10
104.576
 20
-171.685
 11
104.2
 21
-171.464
  0
LINE
  8
0
 10
104.2
 20
-171.464
 11
103.833
 21
-171.229
  0
LINE
  8
0
 10
103.833
 20
-171.229
 11
103.476
 21
-170.98
  0
LINE
  8
0
 10
103.476
 20
-170.98
 11
103.128
 21
-170.717
  0
LINE
  8
0
 10
103.128
 20
-170.717
 11
102.791
 21
-170.441
  0
LINE
  8
0
 10
102.791
 20
-170.441
 11
102.465
 21
-170.151
  0
LINE
  8
0
 10
102.465
 20
-170.151
 11
102.151
 21
-169.849
  0
LINE
  8
0
 10
102.151
 20
-169.849
 11
68.7161
 21
-136.414
  0
LINE
  8
0
 10
68.7161
 20
-136.414
 11
68.414
 21
-136.1
  0
LINE
  8
0
 10
68.414
 20
-136.1
 11
68.1245
 21
-135.774
  0
LINE
  8
0
 10
68.1245
 20
-135.774
 11
67.8479
 21
-135.437
  0
LINE
  8
0
 10
67.8479
 20
-135.437
 11
67.5849
 21
-135.089
  0
LINE
  8
0
 10
67.5849
 20
-135.089
 11
67.3356
 21
-134.732
  0
LINE
  8
0
 10
67.3356
 20
-134.732
 11
67.1007
 21
-134.365
  0
LINE
  8
0
 10
67.1007
 20
-134.365
 11
66.8803
 21
-133.989
  0
LINE
  8
0
 10
66.8803
 20
-133.989
 11
66.6748
 21
-133.604
  0
LINE
  8
0
 10
66.6748
 20
-133.604
 11
66.4846
 21
-133.212
  0
LINE
  8
0
 10
66.4846
 20
-133.212
 11
66.3099
 21
-132.813
  0
LINE
  8
0
 10
66.3099
 20
-132.813
 11
66.151
 21
-132.407
  0
LINE
  8
0
 10
66.151
 20
-132.407
 11
66.0082
 21
-131.995
  0
LINE
  8
0
 10
66.0082
 20
-131.995
 11
65.8817
 21
-131.578
  0
LINE
  8
0
 10
65.8817
 20
-131.578
 11
65.7717
 21
-131.156
  0
LINE
  8
0
 10
65.7717
 20
-131.156
 11
65.6783
 21
-130.73
  0
LINE
  8
0
 10
65.6783
 20
-130.73
 11
65.6016
 21
-130.301
  0
LINE
  8
0
 10
65.6016
 20
-130.301
 11
65.5419
 21
-129.87
  0
LINE
  8
0
 10
65.5419
 20
-129.87
 11
65.4992
 21
-129.436
  0
LINE
  8
0
 10
65.4992
 20
-129.436
 11
65.4735
 21
-129.001
  0
LINE
  8
0
 10
65.4735
 20
-129.001
 11
65.465
 21
-128.565
  0
LINE
  8
0
 10
65.465
 20
-128.565
 11
65.4735
 21
-128.129
  0
LINE
  8
0
 10
65.4735
 20
-128.129
 11
65.4992
 21
-127.694
  0
LINE
  8
0
 10
65.4992
 20
-127.694
 11
65.5419
 21
-127.26
  0
LINE
  8
0
 10
65.5419
 20
-127.26
 11
65.6016
 21
-126.829
  0
LINE
  8
0
 10
65.6016
 20
-126.829
 11
65.6783
 21
-126.399
  0
LINE
  8
0
 10
65.6783
 20
-126.399
 11
65.7717
 21
-125.974
  0
LINE
  8
0
 10
65.7717
 20
-125.974
 11
65.8817
 21
-125.552
  0
LINE
  8
0
 10
65.8817
 20
-125.552
 11
66.0082
 21
-125.135
  0
LINE
  8
0
 10
66.0082
 20
-125.135
 11
66.151
 21
-124.723
  0
LINE
  8
0
 10
66.151
 20
-124.723
 11
66.3099
 21
-124.317
  0
LINE
  8
0
 10
66.3099
 20
-124.317
 11
66.4846
 21
-123.918
  0
LINE
  8
0
 10
66.4846
 20
-123.918
 11
66.6748
 21
-123.526
  0
LINE
  8
0
 10
66.6748
 20
-123.526
 11
66.8803
 21
-123.141
  0
LINE
  8
0
 10
66.8803
 20
-123.141
 11
67.1007
 21
-122.765
  0
LINE
  8
0
 10
67.1007
 20
-122.765
 11
67.3356
 21
-122.398
  0
LINE
  8
0
 10
67.3356
 20
-122.398
 11
67.5849
 21
-122.041
  0
LINE
  8
0
 10
67.5849
 20
-122.041
 11
67.8479
 21
-121.693
  0
LINE
  8
0
 10
67.8479
 20
-121.693
 11
68.1245
 21
-121.356
  0
LINE
  8
0
 10
68.1245
 20
-121.356
 11
68.414
 21
-121.03
  0
LINE
  8
0
 10
68.414
 20
-121.03
 11
68.7161
 21
-120.716
  0
LINE
  8
0
 10
68.7161
 20
-120.716
 11
69.0303
 21
-120.414
  0
LINE
  8
0
 10
69.0303
 20
-120.414
 11
69.3561
 21
-120.124
  0
LINE
  8
0
 10
69.3561
 20
-120.124
 11
69.693
 21
-119.848
  0
LINE
  8
0
 10
69.693
 20
-119.848
 11
70.0405
 21
-119.585
  0
LINE
  8
0
 10
70.0405
 20
-119.585
 11
70.3981
 21
-119.336
  0
LINE
  8
0
 10
70.3981
 20
-119.336
 11
70.7652
 21
-119.101
  0
LINE
  8
0
 10
70.7652
 20
-119.101
 11
71.1413
 21
-118.88
  0
LINE
  8
0
 10
71.1413
 20
-118.88
 11
71.5257
 21
-118.675
  0
LINE
  8
0
 10
71.5257
 20
-118.675
 11
71.9178
 21
-118.485
  0
LINE
  8
0
 10
71.9178
 20
-118.485
 11
72.3172
 21
-118.31
  0
LINE
  8
0
 10
72.3172
 20
-118.31
 11
72.7231
 21
-118.151
  0
LINE
  8
0
 10
72.7231
 20
-118.151
 11
73.1349
 21
-118.008
  0
LINE
  8
0
 10
73.1349
 20
-118.008
 11
73.552
 21
-117.882
  0
LINE
  8
0
 10
73.552
 20
-117.882
 11
73.9737
 21
-117.772
  0
LINE
  8
0
 10
73.9737
 20
-117.772
 11
74.3995
 21
-117.678
  0
LINE
  8
0
 10
74.3995
 20
-117.678
 11
74.8285
 21
-117.602
  0
LINE
  8
0
 10
74.8285
 20
-117.602
 11
75.2603
 21
-117.542
  0
LINE
  8
0
 10
75.2603
 20
-117.542
 11
75.6941
 21
-117.499
  0
LINE
  8
0
 10
75.6941
 20
-117.499
 11
76.1292
 21
-117.474
  0
LINE
  8
0
 10
76.1292
 20
-117.474
 11
76.565
 21
-117.465
  0
LINE
  8
0
 10
76.565
 20
-117.465
 11
77.0007
 21
-117.474
  0
LINE
  8
0
 10
77.0007
 20
-117.474
 11
77.4359
 21
-117.499
  0
LINE
  8
0
 10
77.4359
 20
-117.499
 11
77.8696
 21
-117.542
  0
LINE
  8
0
 10
77.8696
 20
-117.542
 11
78.3014
 21
-117.602
  0
LINE
  8
0
 10
78.3014
 20
-117.602
 11
78.7305
 21
-117.678
  0
LINE
  8
0
 10
78.7305
 20
-117.678
 11
79.1562
 21
-117.772
  0
LINE
  8
0
 10
79.1562
 20
-117.772
 11
79.578
 21
-117.882
  0
LINE
  8
0
 10
79.578
 20
-117.882
 11
79.9951
 21
-118.008
  0
LINE
  8
0
 10
79.9951
 20
-118.008
 11
80.4069
 21
-118.151
  0
LINE
  8
0
 10
80.4069
 20
-118.151
 11
80.8127
 21
-118.31
  0
LINE
  8
0
 10
80.8127
 20
-118.31
 11
81.2121
 21
-118.485
  0
LINE
  8
0
 10
81.2121
 20
-118.485
 11
81.6043
 21
-118.675
  0
LINE
  8
0
 10
81.6043
 20
-118.675
 11
81.9887
 21
-118.88
  0
LINE
  8
0
 10
81.9887
 20
-118.88
 11
82.3647
 21
-119.101
  0
LINE
  8
0
 10
82.3647
 20
-119.101
 11
82.7318
 21
-119.336
  0
LINE
  8
0
 10
82.7318
 20
-119.336
 11
83.0894
 21
-119.585
  0
LINE
  8
0
 10
83.0894
 20
-119.585
 11
83.4369
 21
-119.848
  0
LINE
  8
0
 10
83.4369
 20
-119.848
 11
83.7738
 21
-120.124
  0
LINE
  8
0
 10
83.7738
 20
-120.124
 11
84.0997
 21
-120.414
  0
LINE
  8
0
 10
84.0997
 20
-120.414
 11
84.4138
 21
-120.716
  0
LINE
  8
0
 10
84.4138
 20
-120.716
 11
117.849
 21
-154.151
  0
LINE
  8
0
 10
117.849
 20
-154.151
 11
118.151
 21
-154.465
  0
LINE
  8
0
 10
118.151
 20
-154.465
 11
118.441
 21
-154.791
  0
LINE
  8
0
 10
118.441
 20
-154.791
 11
118.717
 21
-155.128
  0
LINE
  8
0
 10
118.717
 20
-155.128
 11
118.98
 21
-155.476
  0
LINE
  8
0
 10
118.98
 20
-155.476
 11
119.229
 21
-155.833
  0
LINE
  8
0
 10
119.229
 20
-155.833
 11
119.464
 21
-156.2
  0
LINE
  8
0
 10
119.464
 20
-156.2
 11
119.685
 21
-156.576
  0
LINE
  8
0
 10
119.685
 20
-156.576
 11
119.89
 21
-156.961
  0
LINE
  8
0
 10
119.89
 20
-156.961
 11
120.08
 21
-157.353
  0
LINE
  8
0
 10
120.08
 20
-157.353
 11
120.255
 21
-157.752
  0
LINE
  8
0
 10
120.255
 20
-157.752
 11
120.414
 21
-158.158
  0
LINE
  8
0
 10
120.414
 20
-158.158
 11
120.557
 21
-158.57
  0
LINE
  8
0
 10
120.557
 20
-158.57
 11
120.683
 21
-158.987
  0
LINE
  8
0
 10
120.683
 20
-158.987
 11
120.793
 21
-159.409
  0
LINE
  8
0
 10
120.793
 20
-159.409
 11
120.887
 21
-159.834
  0
LINE
  8
0
 10
120.887
 20
-159.834
 11
120.963
 21
-160.264
  0
LINE
  8
0
 10
120.963
 20
-160.264
 11
121.023
 21
-160.695
  0
LINE
  8
0
 10
121.023
 20
-160.695
 11
121.066
 21
-161.129
  0
LINE
  8
0
 10
121.066
 20
-161.129
 11
121.091
 21
-161.564
  0
LINE
  8
0
 10
121.091
 20
-161.564
 11
121.1
 21
-162
  0
LINE
  8
0
 10
121.1
 20
-162
 11
121.091
 21
-162.436
  0
LINE
  8
0
 10
121.091
 20
-162.436
 11
121.066
 21
-162.871
  0
LINE
  8
0
 10
121.066
 20
-162.871
 11
121.023
 21
-163.305
  0
LINE
  8
0
 10
121.023
 20
-163.305
 11
120.963
 21
-163.736
  0
LINE
  8
0
 10
120.963
 20
-163.736
 11
120.887
 21
-164.165
  0
LINE
  8
0
 10
120.887
 20
-164.165
 11
120.793
 21
-164.591
  0
LINE
  8
0
 10
120.793
 20
-164.591
 11
120.683
 21
-165.013
  0
LINE
  8
0
 10
120.683
 20
-165.013
 11
120.557
 21
-165.43
  0
LINE
  8
0
 10
120.557
 20
-165.43
 11
120.414
 21
-165.842
  0
LINE
  8
0
 10
120.414
 20
-165.842
 11
120.255
 21
-166.248
  0
LINE
  8
0
 10
120.255
 20
-166.248
 11
120.08
 21
-166.647
  0
LINE
  8
0
 10
120.08
 20
-166.647
 11
119.89
 21
-167.039
  0
LINE
  8
0
 10
119.89
 20
-167.039
 11
119.685
 21
-167.424
  0
LINE
  8
0
 10
119.685
 20
-167.424
 11
119.464
 21
-167.8
  0
LINE
  8
0
 10
119.464
 20
-167.8
 11
119.229
 21
-168.167
  0
LINE
  8
0
 10
119.229
 20
-168.167
 11
118.98
 21
-168.524
  0
LINE
  8
0
 10
118.98
 20
-168.524
 11
118.717
 21
-168.872
  0
LINE
  8
0
 10
118.717
 20
-168.872
 11
118.441
 21
-169.209
  0
LINE
  8
0
 10
118.441
 20
-169.209
 11
118.151
 21
-169.535
  0
LINE
  8
0
 10
118.151
 20
-169.535
 11
117.849
 21
-169.849
  0
LINE
  8
0
 10
117.849
 20
-169.849
 11
117.535
 21
-170.151
  0
LINE
  8
0
 10
117.535
 20
-170.151
 11
117.209
 21
-170.441
  0
LINE
  8
0
 10
117.209
 20
-170.441
 11
116.872
 21
-170.717
  0
LINE
  8
0
 10
116.872
 20
-170.717
 11
116.524
 21
-170.98
  0
LINE
  8
0
 10
116.524
 20
-170.98
 11
116.167
 21
-171.229
  0
LINE
  8
0
 10
116.167
 20
-171.229
 11
115.8
 21
-171.464
  0
LINE
  8
0
 10
115.8
 20
-171.464
 11
115.424
 21
-171.685
  0
LINE
  8
0
 10
115.424
 20
-171.685
 11
115.039
 21
-171.89
  0
LINE
  8
0
 10
115.039
 20
-171.89
 11
114.647
 21
-172.08
  0
LINE
  8
0
 10
114.647
 20
-172.08
 11
114.248
 21
-172.255
  0
LINE
  8
0
 10
114.248
 20
-172.255
 11
113.842
 21
-172.414
  0
LINE
  8
0
 10
113.842
 20
-172.414
 11
113.43
 21
-172.557
  0
LINE
  8
0
 10
113.43
 20
-172.557
 11
113.013
 21
-172.683
  0
LINE
  8
0
 10
113.013
 20
-172.683
 11
112.591
 21
-172.793
  0
LINE
  8
0
 10
112.591
 20
-172.793
 11
112.165
 21
-172.887
  0
LINE
  8
0
 10
112.165
 20
-172.887
 11
111.736
 21
-172.963
  0
LINE
  8
0
 10
111.736
 20
-172.963
 11
111.305
 21
-173.023
  0
LINE
  8
0
 10
111.305
 20
-173.023
 11
110.871
 21
-173.066
  0
LINE
  8
0
 10
110.871
 20
-173.066
 11
110.436
 21
-173.091
  0
LINE
  8
0
 10
110.436
 20
-173.091
 11
110
 21
-173.1
  0
LINE
  8
0
 10
110
 20
-173.1
 11
109.564
 21
-173.091
  0
ENDSEC
  0
SECTION
  2
OBJECTS
  0
DICTIONARY
  0
ENDSEC
  0
EOF
