<?xml version="1.0" encoding="UTF-8" standalone="no"?>
<!-- Created with Inkscape (http://www.inkscape.org/) -->

<svg
   xmlns:dc="http://purl.org/dc/elements/1.1/"
   xmlns:cc="http://creativecommons.org/ns#"
   xmlns:rdf="http://www.w3.org/1999/02/22-rdf-syntax-ns#"
   xmlns:svg="http://www.w3.org/2000/svg"
   xmlns="http://www.w3.org/2000/svg"
   xmlns:sodipodi="http://sodipodi.sourceforge.net/DTD/sodipodi-0.dtd"
   xmlns:inkscape="http://www.inkscape.org/namespaces/inkscape"
   version="1.1"
   id="svg4631"
   xml:space="preserve"
   width="2267.7166"
   height="1700.7874"
   viewBox="0 0 2267.7166 1700.7874"
   sodipodi:docname="shelf1.svg"
   inkscape:version="0.92.3 (unknown)"><metadata
     id="metadata4637"><rdf:RDF><cc:Work
         rdf:about=""><dc:format>image/svg+xml</dc:format><dc:type
           rdf:resource="http://purl.org/dc/dcmitype/StillImage" /><dc:title></dc:title></cc:Work></rdf:RDF></metadata><defs
     id="defs4635" /><sodipodi:namedview
     pagecolor="#ffffff"
     bordercolor="#666666"
     borderopacity="1"
     objecttolerance="10"
     gridtolerance="10"
     guidetolerance="10"
     inkscape:pageopacity="0"
     inkscape:pageshadow="2"
     inkscape:window-width="1849"
     inkscape:window-height="1170"
     id="namedview4633"
     showgrid="false"
     inkscape:zoom="0.27751853"
     inkscape:cx="1637.8386"
     inkscape:cy="814.18291"
     inkscape:window-x="71"
     inkscape:window-y="30"
     inkscape:window-maximized="1"
     inkscape:current-layer="g4639" /><g
     id="g4639"
     inkscape:groupmode="layer"
     inkscape:label="shelf1"
     transform="matrix(1.3333333,0,0,-1.3333333,0,1700.7874)"><g
       transform="matrix(1,0,0,-1,0,1274.0906)"
       id="g4643"><path
         inkscape:connector-curvature="0"
         id="path4645"
         style="fill:none;stroke:#0000fe;stroke-width:0.75;stroke-linecap:butt;stroke-linejoin:miter;stroke-miterlimit:4;stroke-dasharray:none;stroke-opacity:1"
         d="m 740.383,63.371 -0.207,-2.101 -0.289,-2.094 -0.375,-2.086 -0.453,-2.063 -0.532,-2.047 -0.617,-2.023 -0.691,-2 -0.77,-1.969 -0.847,-1.937 -0.926,-1.903 -0.996,-1.867 -1.071,-1.82 -1.136,-1.785 -1.211,-1.735 -1.278,-1.687 -1.339,-1.633 -1.407,-1.582 -1.465,-1.523 -1.523,-1.465 -1.582,-1.406 -1.633,-1.344 -1.687,-1.274 -1.735,-1.211 -1.785,-1.14 -1.82,-1.067 -1.867,-0.996 -1.903,-0.925 -1.937,-0.848 -1.969,-0.77 -2,-0.691 -2.023,-0.621 -2.047,-0.528 -2.063,-0.453 -2.086,-0.375 -2.093,-0.289 -2.102,-0.207 -2.113,-0.121 -2.114,-0.043 H 63.066 l -2.113,0.043 -2.113,0.121 -2.102,0.207 -2.093,0.289 -2.086,0.375 -2.063,0.453 -2.047,0.528 -2.023,0.621 -2,0.691 -1.969,0.77 -1.937,0.848 -1.903,0.925 -1.867,0.996 -1.82,1.067 -1.785,1.14 -1.735,1.211 -1.687,1.274 -1.633,1.344 -1.582,1.406 -1.524,1.465 -1.464,1.523 -1.407,1.582 -1.34,1.633 -1.277,1.687 -1.211,1.735 -1.137,1.785 -1.07,1.82 -0.996,1.867 -0.926,1.903 -0.847,1.937 -0.77,1.969 -0.691,2 -0.618,2.023 -0.531,2.047 -0.453,2.063 -0.375,2.086 -0.289,2.094 -0.207,2.101 -0.121,2.113 -0.043,2.11 v 918.429 l 0.043,2.114 0.121,2.113 0.207,2.105 0.289,2.094 0.375,2.082 0.453,2.063 0.531,2.051 0.618,2.023 0.691,1.996 0.77,1.969 0.847,1.941 0.926,1.903 0.996,1.863 1.07,1.824 1.137,1.781 1.211,1.739 1.277,1.683 1.34,1.637 1.407,1.578 1.464,1.527 1.524,1.465 1.582,1.406 1.633,1.34 1.687,1.274 1.735,1.207 1.785,1.144 1.82,1.067 1.867,0.996 1.903,0.93 1.937,0.847 1.969,0.766 2,0.695 2.023,0.617 2.047,0.532 2.063,0.449 2.086,0.375 2.093,0.289 2.102,0.207 2.113,0.125 2.113,0.043 h 623.625 l 2.114,-0.043 2.113,-0.125 2.102,-0.207 2.093,-0.289 2.086,-0.375 2.063,-0.449 2.047,-0.532 2.023,-0.617 2,-0.695 1.969,-0.766 1.937,-0.847 1.903,-0.93 1.867,-0.996 1.82,-1.067 1.785,-1.144 1.735,-1.207 1.687,-1.274 1.633,-1.34 1.582,-1.406 1.523,-1.465 1.465,-1.527 1.407,-1.578 1.339,-1.637 1.278,-1.691 1.211,-1.731 1.136,-1.781 1.071,-1.824 0.996,-1.863 0.926,-1.903 0.847,-1.941 0.77,-1.969 0.691,-1.996 0.617,-2.023 0.532,-2.051 0.453,-2.063 0.375,-2.082 0.289,-2.094 0.207,-2.105 0.121,-2.113 0.043,-2.114 V 67.594 l -0.043,-2.11 z" /></g><g
       transform="matrix(1,0,0,-1,0,1274.0906)"
       id="g4647"><path
         inkscape:connector-curvature="0"
         id="path4649"
         style="fill:none;stroke:#ff0000;stroke-width:0.75;stroke-linecap:butt;stroke-linejoin:miter;stroke-miterlimit:4;stroke-dasharray:none;stroke-opacity:1"
         d="m 189.09,166.074 -0.168,1.223 -0.219,1.219 -0.262,1.203 -0.312,1.199 -0.359,1.176 -0.407,1.172 -0.449,1.152 -0.496,1.129 -0.539,1.113 -0.582,1.09 -0.625,1.066 -0.664,1.039 -0.707,1.012 -0.746,0.988 -0.785,0.954 -0.821,0.925 -0.855,0.891 -0.891,0.855 -0.926,0.821 -0.953,0.785 -0.984,0.746 -1.016,0.703 -1.039,0.668 -1.066,0.625 -1.09,0.582 -1.113,0.539 -1.129,0.496 -1.153,0.45 -1.168,0.406 -1.179,0.355 -1.196,0.313 -1.207,0.269 -1.218,0.215 -1.223,0.168 -1.231,0.121 -1.234,0.074 -1.234,0.024 -1.235,-0.024 -1.234,-0.074 -1.23,-0.121 -1.223,-0.168 -1.215,-0.215 -1.207,-0.269 -1.195,-0.313 -1.184,-0.355 -1.168,-0.406 -1.148,-0.45 -1.133,-0.496 -1.113,-0.539 -1.09,-0.582 -1.067,-0.625 -1.039,-0.668 -1.011,-0.703 -0.989,-0.746 -0.953,-0.785 -0.926,-0.821 -0.89,-0.855 L 40.82,89.844 39.961,88.957 39.141,88.035 38.359,87.078 37.613,86.09 36.906,85.082 36.242,84.039 35.613,82.969 35.035,81.883 34.496,80.773 34,79.641 33.547,78.488 33.141,77.32 32.785,76.141 32.473,74.945 32.207,73.738 31.992,72.52 31.82,71.297 l -0.121,-1.231 -0.07,-1.23 -0.027,-1.242 0.027,-1.231 0.07,-1.234 0.121,-1.231 0.172,-1.222 0.215,-1.215 0.266,-1.207 0.312,-1.195 0.356,-1.184 0.406,-1.168 0.453,-1.148 0.496,-1.133 0.539,-1.11 0.578,-1.097 0.629,-1.059 0.664,-1.043 0.707,-1.012 0.746,-0.984 0.782,-0.957 0.82,-0.926 0.859,-0.886 0.887,-0.86 0.926,-0.82 0.957,-0.781 0.984,-0.746 1.012,-0.707 1.039,-0.665 1.066,-0.628 1.094,-0.579 1.11,-0.539 1.132,-0.496 1.149,-0.453 1.168,-0.402 1.183,-0.36 1.196,-0.312 1.207,-0.266 1.218,-0.215 1.219,-0.171 1.231,-0.122 1.234,-0.07 1.234,-0.027 1.239,0.027 1.23,0.07 1.231,0.122 1.222,0.171 1.219,0.215 1.207,0.266 1.195,0.312 1.18,0.36 1.168,0.402 1.152,0.453 1.133,0.496 1.11,0.539 1.089,0.579 1.067,0.628 1.043,0.665 1.011,0.707 0.985,0.746 0.957,0.781 0.922,0.82 0.89,0.86 94.778,94.773 0.855,0.891 0.821,0.925 0.785,0.954 0.746,0.988 0.707,1.012 0.664,1.039 0.625,1.066 0.582,1.09 0.539,1.113 0.496,1.133 0.449,1.148 0.407,1.168 0.359,1.184 0.309,1.195 0.265,1.207 0.219,1.215 0.168,1.223 0.121,1.23 0.074,1.235 0.024,1.234 -0.024,1.238 -0.074,1.227 z" /></g><g
       transform="matrix(1,0,0,-1,0,1274.0906)"
       id="g4651"><path
         inkscape:connector-curvature="0"
         id="path4653"
         style="fill:none;stroke:#ff0000;stroke-width:0.75;stroke-linecap:butt;stroke-linejoin:miter;stroke-miterlimit:4;stroke-dasharray:none;stroke-opacity:1"
         d="m 717.938,71.297 -0.172,1.223 -0.215,1.218 -0.266,1.207 -0.312,1.196 -0.356,1.179 -0.406,1.168 -0.453,1.153 -0.496,1.132 -0.535,1.11 -0.582,1.086 -0.629,1.07 -0.664,1.043 -0.707,1.008 -0.747,0.988 -0.781,0.957 -0.82,0.922 -0.859,0.887 -94.774,94.781 -0.891,0.855 -0.925,0.821 -0.953,0.785 -0.989,0.746 -1.011,0.703 -1.04,0.668 -1.066,0.625 -1.09,0.582 -1.113,0.539 -1.133,0.496 -1.148,0.45 -1.168,0.406 -1.184,0.355 -1.195,0.313 -1.207,0.269 -1.215,0.215 -1.223,0.168 -1.23,0.121 -1.235,0.074 -1.234,0.024 -1.234,-0.024 -1.235,-0.074 -1.23,-0.121 -1.223,-0.168 -1.219,-0.215 -1.207,-0.269 -1.195,-0.313 -1.18,-0.355 -1.168,-0.406 -1.152,-0.45 -1.129,-0.496 -1.113,-0.539 -1.09,-0.582 -1.066,-0.625 -1.039,-0.668 -1.016,-0.703 -0.984,-0.746 -0.954,-0.785 -0.925,-0.821 -0.891,-0.855 -0.855,-0.891 -0.821,-0.922 -0.785,-0.957 -0.746,-0.988 -0.707,-1.012 -0.664,-1.039 -0.625,-1.066 -0.582,-1.09 -0.539,-1.113 -0.496,-1.129 -0.449,-1.152 -0.407,-1.172 -0.359,-1.176 -0.309,-1.199 -0.265,-1.203 -0.219,-1.219 -0.168,-1.223 -0.121,-1.234 -0.074,-1.227 -0.024,-1.238 0.024,-1.234 0.074,-1.235 0.121,-1.23 0.168,-1.223 0.219,-1.215 0.265,-1.207 0.309,-1.195 0.359,-1.184 0.407,-1.168 0.449,-1.148 0.496,-1.133 0.539,-1.113 0.582,-1.09 0.625,-1.066 0.664,-1.039 0.707,-1.012 0.746,-0.988 0.785,-0.954 0.821,-0.925 0.855,-0.891 94.777,-94.773 0.891,-0.86 0.922,-0.82 0.957,-0.781 0.984,-0.746 1.012,-0.707 1.043,-0.665 1.066,-0.628 1.09,-0.579 1.11,-0.539 1.132,-0.496 1.153,-0.453 1.168,-0.402 1.179,-0.36 1.196,-0.312 1.207,-0.266 1.219,-0.215 1.222,-0.171 1.231,-0.122 1.23,-0.07 1.238,-0.027 1.235,0.027 1.234,0.07 1.231,0.122 1.218,0.171 1.219,0.215 1.207,0.266 1.195,0.312 1.184,0.36 1.168,0.402 1.148,0.453 1.133,0.496 1.11,0.539 1.093,0.579 1.067,0.628 1.039,0.665 1.012,0.707 0.984,0.746 0.957,0.781 0.926,0.82 0.887,0.86 0.859,0.886 0.82,0.926 0.781,0.957 0.747,0.984 0.707,1.012 0.664,1.043 0.629,1.059 0.582,1.097 0.535,1.11 0.496,1.133 0.453,1.148 0.406,1.168 0.356,1.184 0.312,1.195 0.266,1.207 0.215,1.215 0.172,1.222 0.121,1.231 0.07,1.234 0.027,1.231 -0.027,1.242 -0.07,1.23 z" /></g><g
       transform="matrix(1,0,0,-1,0,1274.0906)"
       id="g4655"><path
         inkscape:connector-curvature="0"
         id="path4657"
         style="fill:none;stroke:#ff0000;stroke-width:0.75;stroke-linecap:butt;stroke-linejoin:miter;stroke-miterlimit:4;stroke-dasharray:none;stroke-opacity:1"
         d="m 59.367,1017.27 -1.219,-0.168 -1.218,-0.219 -1.207,-0.266 -1.196,-0.308 -1.183,-0.36 -1.168,-0.406 -1.149,-0.453 -1.132,-0.496 -1.11,-0.535 -1.094,-0.582 -1.066,-0.625 -1.039,-0.668 -1.012,-0.704 -0.984,-0.746 -0.957,-0.781 -0.926,-0.824 -0.887,-0.856 -0.859,-0.89 -0.82,-0.922 -0.782,-0.957 -0.746,-0.984 -0.707,-1.016 -0.664,-1.039 -0.629,-1.067 -0.578,-1.089 -0.539,-1.114 -0.496,-1.129 -0.453,-1.152 -0.406,-1.168 -0.356,-1.18 -0.312,-1.199 -0.266,-1.207 -0.215,-1.215 -0.172,-1.226 -0.121,-1.227 -0.07,-1.234 -0.027,-1.235 0.027,-1.234 0.07,-1.238 0.121,-1.227 0.172,-1.222 0.215,-1.219 0.266,-1.207 0.312,-1.192 0.356,-1.183 0.406,-1.168 0.453,-1.149 0.496,-1.132 0.539,-1.11 0.578,-1.094 0.629,-1.066 0.664,-1.039 0.707,-1.012 0.746,-0.988 0.782,-0.953 0.82,-0.926 0.859,-0.891 94.774,-94.773 0.89,-0.855 0.926,-0.825 0.953,-0.781 0.989,-0.746 1.011,-0.707 1.039,-0.664 1.067,-0.629 1.09,-0.578 1.113,-0.539 1.133,-0.5 1.148,-0.449 1.168,-0.403 1.184,-0.359 1.195,-0.313 1.207,-0.269 1.215,-0.211 1.223,-0.172 1.23,-0.121 1.234,-0.07 1.235,-0.024 1.234,0.024 1.234,0.07 1.231,0.121 1.223,0.172 1.218,0.211 1.207,0.269 1.196,0.313 1.179,0.359 1.168,0.403 1.153,0.449 1.129,0.5 1.113,0.539 1.09,0.578 1.066,0.629 1.039,0.664 1.016,0.707 0.984,0.746 0.953,0.781 0.926,0.825 0.891,0.855 0.855,0.887 0.821,0.925 0.785,0.958 0.746,0.984 0.707,1.008 0.664,1.047 0.625,1.066 0.582,1.09 0.539,1.109 0.496,1.133 0.449,1.152 0.407,1.168 0.359,1.18 0.309,1.195 0.265,1.207 0.219,1.219 0.168,1.223 0.121,1.226 0.074,1.231 0.024,1.242 -0.024,1.234 -0.074,1.235 -0.121,1.23 -0.168,1.219 -0.219,1.215 -0.265,1.207 -0.309,1.199 -0.359,1.18 -0.407,1.168 -0.449,1.152 -0.496,1.133 -0.539,1.109 -0.582,1.094 -0.625,1.063 -0.664,1.042 -0.707,1.012 -0.746,0.985 -0.785,0.957 -0.821,0.921 -0.855,0.891 -94.778,94.777 -0.89,0.856 -0.922,0.824 -0.957,0.781 -0.985,0.746 -1.011,0.704 -1.043,0.668 -1.067,0.625 -1.089,0.582 -1.11,0.535 -1.133,0.496 -1.152,0.453 -1.168,0.406 -1.18,0.36 -1.195,0.308 -1.207,0.266 -1.219,0.219 -1.222,0.168 -1.231,0.125 -1.23,0.07 -1.239,0.023 -1.234,-0.023 -1.234,-0.07 z" /></g><g
       transform="matrix(1,0,0,-1,0,1274.0906)"
       id="g4659"><path
         inkscape:connector-curvature="0"
         id="path4661"
         style="fill:none;stroke:#ff0000;stroke-width:0.75;stroke-linecap:butt;stroke-linejoin:miter;stroke-miterlimit:4;stroke-dasharray:none;stroke-opacity:1"
         d="m 682.992,1017.27 -1.222,-0.168 -1.219,-0.219 -1.207,-0.266 -1.196,-0.308 -1.179,-0.36 -1.168,-0.406 -1.153,-0.453 -1.132,-0.496 -1.11,-0.535 -1.09,-0.582 -1.066,-0.625 -1.043,-0.668 -1.012,-0.704 -0.984,-0.746 -0.957,-0.781 -0.922,-0.824 -0.891,-0.856 -94.777,-94.777 -0.855,-0.891 -0.821,-0.921 -0.785,-0.957 -0.746,-0.985 -0.707,-1.012 -0.664,-1.042 -0.625,-1.063 -0.582,-1.094 -0.539,-1.109 -0.496,-1.133 -0.449,-1.152 -0.407,-1.168 -0.359,-1.18 -0.309,-1.199 -0.265,-1.207 -0.219,-1.215 -0.168,-1.223 -0.121,-1.226 -0.074,-1.235 -0.024,-1.238 0.024,-1.238 0.074,-1.231 0.121,-1.226 0.168,-1.223 0.219,-1.219 0.265,-1.207 0.309,-1.195 0.359,-1.184 0.407,-1.168 0.449,-1.148 0.496,-1.133 0.539,-1.109 0.582,-1.094 0.625,-1.062 0.664,-1.047 0.707,-1.008 0.746,-0.984 0.785,-0.958 0.821,-0.925 0.855,-0.887 0.891,-0.855 0.925,-0.825 0.954,-0.781 0.984,-0.746 1.016,-0.707 1.039,-0.664 1.066,-0.629 1.09,-0.578 1.113,-0.539 1.129,-0.5 1.152,-0.449 1.168,-0.403 1.18,-0.359 1.195,-0.313 1.207,-0.269 1.219,-0.211 1.223,-0.172 1.23,-0.121 1.235,-0.07 1.234,-0.024 1.234,0.024 1.235,0.07 1.23,0.121 1.223,0.172 1.215,0.211 1.207,0.269 1.195,0.313 1.184,0.359 1.168,0.403 1.148,0.449 1.133,0.5 1.113,0.539 1.09,0.578 1.066,0.629 1.04,0.664 1.011,0.707 0.989,0.746 0.953,0.781 0.925,0.825 0.891,0.855 94.774,94.777 0.859,0.887 0.82,0.926 0.781,0.953 0.747,0.988 0.707,1.012 0.664,1.039 0.629,1.066 0.582,1.094 0.535,1.11 0.496,1.132 0.453,1.149 0.406,1.168 0.356,1.183 0.312,1.192 0.266,1.207 0.215,1.222 0.172,1.219 0.121,1.227 0.07,1.238 0.027,1.234 -0.027,1.235 -0.07,1.234 -0.121,1.227 -0.172,1.226 -0.215,1.215 -0.266,1.211 -0.312,1.195 -0.356,1.18 -0.406,1.168 -0.453,1.152 -0.496,1.129 -0.535,1.114 -0.582,1.089 -0.629,1.067 -0.664,1.039 -0.707,1.016 -0.747,0.984 -0.781,0.957 -0.82,0.922 -0.859,0.89 -0.887,0.856 -0.926,0.824 -0.957,0.781 -0.984,0.746 -1.012,0.704 -1.039,0.668 -1.067,0.625 -1.093,0.582 -1.11,0.535 -1.133,0.496 -1.148,0.453 -1.168,0.406 -1.184,0.36 -1.195,0.308 -1.207,0.266 -1.219,0.219 -1.218,0.168 -1.231,0.125 -1.234,0.07 -1.235,0.023 -1.238,-0.023 -1.23,-0.07 z" /></g><g
       transform="matrix(1,0,0,-1,0,1274.0906)"
       id="g4663"><path
         inkscape:connector-curvature="0"
         id="path4665"
         style="fill:none;stroke:#0000fe;stroke-width:0.75;stroke-linecap:butt;stroke-linejoin:miter;stroke-miterlimit:4;stroke-dasharray:none;stroke-opacity:1"
         d="m 1482.883,63.371 -0.207,-2.101 -0.289,-2.094 -0.375,-2.086 -0.453,-2.063 -0.532,-2.047 -0.617,-2.023 -0.691,-2 -0.77,-1.969 -0.847,-1.937 -0.926,-1.903 -0.996,-1.867 -1.071,-1.82 -1.136,-1.785 -1.211,-1.735 -1.278,-1.687 -1.339,-1.633 -1.407,-1.582 -1.465,-1.523 -1.523,-1.465 -1.582,-1.406 -1.633,-1.344 -1.687,-1.274 -1.735,-1.211 -1.785,-1.14 -1.82,-1.067 -1.867,-0.996 -1.903,-0.925 -1.937,-0.848 -1.969,-0.77 -2,-0.691 -2.023,-0.621 -2.047,-0.528 -2.063,-0.453 -2.086,-0.375 -2.093,-0.289 -2.102,-0.207 -2.113,-0.121 -2.114,-0.043 H 805.566 l -2.113,0.043 -2.113,0.121 -2.102,0.207 -2.093,0.289 -2.086,0.375 -2.063,0.453 -2.047,0.528 -2.023,0.621 -2,0.691 -1.969,0.77 -1.937,0.848 -1.903,0.925 -1.867,0.996 -1.82,1.067 -1.785,1.14 -1.735,1.211 -1.687,1.274 -1.633,1.344 -1.582,1.406 -1.524,1.465 -1.464,1.523 -1.407,1.582 -1.34,1.633 -1.277,1.687 -1.211,1.735 -1.137,1.785 -1.07,1.82 -0.996,1.867 -0.926,1.903 -0.847,1.937 -0.77,1.969 -0.691,2 -0.618,2.023 -0.531,2.047 -0.453,2.063 -0.375,2.086 -0.289,2.094 -0.207,2.101 -0.121,2.113 -0.043,2.11 v 918.429 l 0.043,2.114 0.121,2.113 0.207,2.105 0.289,2.094 0.375,2.082 0.453,2.063 0.531,2.051 0.618,2.023 0.691,1.996 0.77,1.969 0.847,1.941 0.926,1.903 0.996,1.863 1.07,1.824 1.137,1.781 1.211,1.739 1.277,1.683 1.34,1.637 1.407,1.578 1.464,1.527 1.524,1.465 1.582,1.406 1.633,1.34 1.687,1.274 1.735,1.207 1.785,1.144 1.82,1.067 1.867,0.996 1.903,0.93 1.937,0.847 1.969,0.766 2,0.695 2.023,0.617 2.047,0.532 2.063,0.449 2.086,0.375 2.093,0.289 2.102,0.207 2.113,0.125 2.113,0.043 h 623.625 l 2.114,-0.043 2.113,-0.125 2.102,-0.207 2.093,-0.289 2.086,-0.375 2.063,-0.449 2.047,-0.532 2.023,-0.617 2,-0.695 1.969,-0.766 1.937,-0.847 1.903,-0.93 1.867,-0.996 1.82,-1.067 1.785,-1.144 1.735,-1.207 1.687,-1.274 1.633,-1.34 1.582,-1.406 1.523,-1.465 1.465,-1.527 1.407,-1.578 1.339,-1.637 1.278,-1.691 1.211,-1.731 1.136,-1.781 1.071,-1.824 0.996,-1.863 0.926,-1.903 0.847,-1.941 0.77,-1.969 0.691,-1.996 0.617,-2.023 0.532,-2.051 0.453,-2.063 0.375,-2.082 0.289,-2.094 0.207,-2.105 0.121,-2.113 0.043,-2.114 V 67.594 l -0.043,-2.11 z" /></g><g
       transform="matrix(1,0,0,-1,0,1274.0906)"
       id="g4667"><path
         inkscape:connector-curvature="0"
         id="path4669"
         style="fill:none;stroke:#ff0000;stroke-width:0.75;stroke-linecap:butt;stroke-linejoin:miter;stroke-miterlimit:4;stroke-dasharray:none;stroke-opacity:1"
         d="m 931.59,166.074 -0.168,1.223 -0.219,1.219 -0.262,1.203 -0.312,1.199 -0.359,1.176 -0.407,1.172 -0.449,1.152 -0.496,1.129 -0.539,1.113 -0.582,1.09 -0.625,1.066 -0.664,1.039 -0.707,1.012 -0.746,0.988 -0.785,0.954 -0.821,0.925 -0.855,0.891 -0.891,0.855 -0.926,0.821 -0.953,0.785 -0.984,0.746 -1.016,0.703 -1.039,0.668 -1.066,0.625 -1.09,0.582 -1.113,0.539 -1.129,0.496 -1.153,0.45 -1.168,0.406 -1.179,0.355 -1.196,0.313 -1.207,0.269 -1.218,0.215 -1.223,0.168 -1.231,0.121 -1.234,0.074 -1.234,0.024 -1.235,-0.024 -1.234,-0.074 -1.23,-0.121 -1.223,-0.168 -1.215,-0.215 -1.207,-0.269 -1.195,-0.313 -1.184,-0.355 -1.168,-0.406 -1.148,-0.45 -1.133,-0.496 -1.113,-0.539 -1.09,-0.582 -1.067,-0.625 -1.039,-0.668 -1.011,-0.703 -0.989,-0.746 -0.953,-0.785 -0.926,-0.821 -0.89,-0.855 -94.774,-94.781 -0.859,-0.887 -0.82,-0.922 -0.782,-0.957 -0.746,-0.988 -0.707,-1.008 -0.664,-1.043 -0.629,-1.07 -0.578,-1.086 -0.539,-1.11 -0.496,-1.132 -0.453,-1.153 -0.406,-1.168 -0.356,-1.179 -0.312,-1.196 -0.266,-1.207 -0.215,-1.218 -0.172,-1.223 -0.121,-1.231 -0.07,-1.23 -0.027,-1.242 0.027,-1.231 0.07,-1.234 0.121,-1.231 0.172,-1.222 0.215,-1.215 0.266,-1.207 0.312,-1.195 0.356,-1.184 0.406,-1.168 0.453,-1.148 0.496,-1.133 0.539,-1.11 0.578,-1.097 0.629,-1.059 0.664,-1.043 0.707,-1.012 0.746,-0.984 0.782,-0.957 0.82,-0.926 0.859,-0.886 0.887,-0.86 0.926,-0.82 0.957,-0.781 0.984,-0.746 1.012,-0.707 1.039,-0.665 1.066,-0.628 1.094,-0.579 1.11,-0.539 1.132,-0.496 1.149,-0.453 1.168,-0.402 1.183,-0.36 1.196,-0.312 1.207,-0.266 1.218,-0.215 1.219,-0.171 1.231,-0.122 1.234,-0.07 1.234,-0.027 1.239,0.027 1.23,0.07 1.231,0.122 1.222,0.171 1.219,0.215 1.207,0.266 1.195,0.312 1.18,0.36 1.168,0.402 1.152,0.453 1.133,0.496 1.11,0.539 1.089,0.579 1.067,0.628 1.043,0.665 1.011,0.707 0.985,0.746 0.957,0.781 0.922,0.82 0.89,0.86 94.778,94.773 0.855,0.891 0.821,0.925 0.785,0.954 0.746,0.988 0.707,1.012 0.664,1.039 0.625,1.066 0.582,1.09 0.539,1.113 0.496,1.133 0.449,1.148 0.407,1.168 0.359,1.184 0.309,1.195 0.265,1.207 0.219,1.215 0.168,1.223 0.121,1.23 0.074,1.235 0.024,1.234 -0.024,1.238 -0.074,1.227 z" /></g><g
       transform="matrix(1,0,0,-1,0,1274.0906)"
       id="g4671"><path
         inkscape:connector-curvature="0"
         id="path4673"
         style="fill:none;stroke:#ff0000;stroke-width:0.75;stroke-linecap:butt;stroke-linejoin:miter;stroke-miterlimit:4;stroke-dasharray:none;stroke-opacity:1"
         d="m 1460.438,71.297 -0.172,1.223 -0.215,1.218 -0.266,1.207 -0.312,1.196 -0.356,1.179 -0.406,1.168 -0.453,1.153 -0.496,1.132 -0.535,1.11 -0.582,1.086 -0.629,1.07 -0.664,1.043 -0.707,1.008 -0.747,0.988 -0.781,0.957 -0.82,0.922 -0.859,0.887 -94.774,94.781 -0.891,0.855 -0.925,0.821 -0.953,0.785 -0.989,0.746 -1.011,0.703 -1.04,0.668 -1.066,0.625 -1.09,0.582 -1.113,0.539 -1.133,0.496 -1.148,0.45 -1.168,0.406 -1.184,0.355 -1.195,0.313 -1.207,0.269 -1.215,0.215 -1.223,0.168 -1.23,0.121 -1.235,0.074 -1.234,0.024 -1.234,-0.024 -1.235,-0.074 -1.23,-0.121 -1.223,-0.168 -1.219,-0.215 -1.207,-0.269 -1.195,-0.313 -1.18,-0.355 -1.168,-0.406 -1.152,-0.45 -1.129,-0.496 -1.113,-0.539 -1.09,-0.582 -1.066,-0.625 -1.039,-0.668 -1.016,-0.703 -0.984,-0.746 -0.954,-0.785 -0.925,-0.821 -0.891,-0.855 -0.855,-0.891 -0.821,-0.922 -0.785,-0.957 -0.746,-0.988 -0.707,-1.012 -0.664,-1.039 -0.625,-1.066 -0.582,-1.09 -0.539,-1.113 -0.496,-1.129 -0.449,-1.152 -0.407,-1.172 -0.359,-1.176 -0.309,-1.199 -0.265,-1.203 -0.219,-1.219 -0.168,-1.223 -0.121,-1.234 -0.074,-1.227 -0.024,-1.238 0.024,-1.234 0.074,-1.235 0.121,-1.23 0.168,-1.223 0.219,-1.215 0.265,-1.207 0.309,-1.195 0.359,-1.184 0.407,-1.168 0.449,-1.148 0.496,-1.133 0.539,-1.113 0.582,-1.09 0.625,-1.066 0.664,-1.039 0.707,-1.012 0.746,-0.988 0.785,-0.954 0.821,-0.925 0.855,-0.891 94.777,-94.773 0.891,-0.86 0.922,-0.82 0.957,-0.781 0.984,-0.746 1.012,-0.707 1.043,-0.665 1.066,-0.628 1.09,-0.579 1.11,-0.539 1.132,-0.496 1.153,-0.453 1.168,-0.402 1.179,-0.36 1.196,-0.312 1.207,-0.266 1.219,-0.215 1.222,-0.171 1.231,-0.122 1.23,-0.07 1.238,-0.027 1.235,0.027 1.234,0.07 1.231,0.122 1.218,0.171 1.219,0.215 1.207,0.266 1.195,0.312 1.184,0.36 1.168,0.402 1.148,0.453 1.133,0.496 1.11,0.539 1.093,0.579 1.067,0.628 1.039,0.665 1.012,0.707 0.984,0.746 0.957,0.781 0.926,0.82 0.887,0.86 0.859,0.886 0.82,0.926 0.781,0.957 0.747,0.984 0.707,1.012 0.664,1.043 0.629,1.059 0.582,1.097 0.535,1.11 0.496,1.133 0.453,1.148 0.406,1.168 0.356,1.184 0.312,1.195 0.266,1.207 0.215,1.215 0.172,1.222 0.121,1.231 0.07,1.234 0.027,1.231 -0.027,1.242 -0.07,1.23 z" /></g><g
       transform="matrix(1,0,0,-1,0,1274.0906)"
       id="g4675"><path
         inkscape:connector-curvature="0"
         id="path4677"
         style="fill:none;stroke:#ff0000;stroke-width:0.75;stroke-linecap:butt;stroke-linejoin:miter;stroke-miterlimit:4;stroke-dasharray:none;stroke-opacity:1"
         d="m 801.867,1017.27 -1.219,-0.168 -1.218,-0.219 -1.207,-0.266 -1.196,-0.308 -1.183,-0.36 -1.168,-0.406 -1.149,-0.453 -1.132,-0.496 -1.11,-0.535 -1.094,-0.582 -1.066,-0.625 -1.039,-0.668 -1.012,-0.704 -0.984,-0.746 -0.957,-0.781 -0.926,-0.824 -0.887,-0.856 -0.859,-0.89 -0.82,-0.922 -0.782,-0.957 -0.746,-0.984 -0.707,-1.016 -0.664,-1.039 -0.629,-1.067 -0.578,-1.089 -0.539,-1.114 -0.496,-1.129 -0.453,-1.152 -0.406,-1.168 -0.356,-1.18 -0.312,-1.199 -0.266,-1.207 -0.215,-1.215 -0.172,-1.226 -0.121,-1.227 -0.07,-1.234 -0.027,-1.235 0.027,-1.234 0.07,-1.238 0.121,-1.227 0.172,-1.222 0.215,-1.219 0.266,-1.207 0.312,-1.192 0.356,-1.183 0.406,-1.168 0.453,-1.149 0.496,-1.132 0.539,-1.11 0.578,-1.094 0.629,-1.066 0.664,-1.039 0.707,-1.012 0.746,-0.988 0.782,-0.953 0.82,-0.926 0.859,-0.891 94.774,-94.773 0.89,-0.855 0.926,-0.825 0.953,-0.781 0.989,-0.746 1.011,-0.707 1.039,-0.664 1.067,-0.629 1.09,-0.578 1.113,-0.539 1.133,-0.5 1.148,-0.449 1.168,-0.403 1.184,-0.359 1.195,-0.313 1.207,-0.269 1.215,-0.211 1.223,-0.172 1.23,-0.121 1.234,-0.07 1.235,-0.024 1.234,0.024 1.234,0.07 1.231,0.121 1.223,0.172 1.218,0.211 1.207,0.269 1.196,0.313 1.179,0.359 1.168,0.403 1.153,0.449 1.129,0.5 1.113,0.539 1.09,0.578 1.066,0.629 1.039,0.664 1.016,0.707 0.984,0.746 0.953,0.781 0.926,0.825 0.891,0.855 0.855,0.887 0.821,0.925 0.785,0.958 0.746,0.984 0.707,1.008 0.664,1.047 0.625,1.066 0.582,1.09 0.539,1.109 0.496,1.133 0.449,1.152 0.407,1.168 0.359,1.18 0.309,1.195 0.265,1.207 0.219,1.219 0.168,1.223 0.121,1.226 0.074,1.231 0.024,1.242 -0.024,1.234 -0.074,1.235 -0.121,1.23 -0.168,1.219 -0.219,1.215 -0.265,1.207 -0.309,1.199 -0.359,1.18 -0.407,1.168 -0.449,1.152 -0.496,1.133 -0.539,1.109 -0.582,1.094 -0.625,1.063 -0.664,1.042 -0.707,1.012 -0.746,0.985 -0.785,0.957 -0.821,0.921 -0.855,0.891 -94.778,94.777 -0.89,0.856 -0.922,0.824 -0.957,0.781 -0.985,0.746 -1.011,0.704 -1.043,0.668 -1.067,0.625 -1.089,0.582 -1.11,0.535 -1.133,0.496 -1.152,0.453 -1.168,0.406 -1.18,0.36 -1.195,0.308 -1.207,0.266 -1.219,0.219 -1.222,0.168 -1.231,0.125 -1.23,0.07 -1.239,0.023 -1.234,-0.023 -1.234,-0.07 z" /></g><g
       transform="matrix(1,0,0,-1,0,1274.0906)"
       id="g4679"><path
         inkscape:connector-curvature="0"
         id="path4681"
         style="fill:none;stroke:#ff0000;stroke-width:0.75;stroke-linecap:butt;stroke-linejoin:miter;stroke-miterlimit:4;stroke-dasharray:none;stroke-opacity:1"
         d="m 1425.492,1017.27 -1.222,-0.168 -1.219,-0.219 -1.207,-0.266 -1.196,-0.308 -1.179,-0.36 -1.168,-0.406 -1.153,-0.453 -1.132,-0.496 -1.11,-0.535 -1.09,-0.582 -1.066,-0.625 -1.043,-0.668 -1.012,-0.704 -0.984,-0.746 -0.957,-0.781 -0.922,-0.824 -0.891,-0.856 -94.777,-94.777 -0.855,-0.891 -0.821,-0.921 -0.785,-0.957 -0.746,-0.985 -0.707,-1.012 -0.664,-1.042 -0.625,-1.063 -0.582,-1.094 -0.539,-1.109 -0.496,-1.133 -0.449,-1.152 -0.407,-1.168 -0.359,-1.18 -0.309,-1.199 -0.265,-1.207 -0.219,-1.215 -0.168,-1.223 -0.121,-1.226 -0.074,-1.235 -0.024,-1.238 0.024,-1.238 0.074,-1.231 0.121,-1.226 0.168,-1.223 0.219,-1.219 0.265,-1.207 0.309,-1.195 0.359,-1.184 0.407,-1.168 0.449,-1.148 0.496,-1.133 0.539,-1.109 0.582,-1.094 0.625,-1.062 0.664,-1.047 0.707,-1.008 0.746,-0.984 0.785,-0.958 0.821,-0.925 0.855,-0.887 0.891,-0.855 0.925,-0.825 0.954,-0.781 0.984,-0.746 1.016,-0.707 1.039,-0.664 1.066,-0.629 1.09,-0.578 1.113,-0.539 1.129,-0.5 1.152,-0.449 1.168,-0.403 1.18,-0.359 1.195,-0.313 1.207,-0.269 1.219,-0.211 1.223,-0.172 1.23,-0.121 1.235,-0.07 1.234,-0.024 1.234,0.024 1.235,0.07 1.23,0.121 1.223,0.172 1.215,0.211 1.207,0.269 1.195,0.313 1.184,0.359 1.168,0.403 1.148,0.449 1.133,0.5 1.113,0.539 1.09,0.578 1.066,0.629 1.04,0.664 1.011,0.707 0.989,0.746 0.953,0.781 0.925,0.825 0.891,0.855 94.774,94.777 0.859,0.887 0.82,0.926 0.781,0.953 0.747,0.988 0.707,1.012 0.664,1.039 0.629,1.066 0.582,1.094 0.535,1.11 0.496,1.132 0.453,1.149 0.406,1.168 0.356,1.183 0.312,1.192 0.266,1.207 0.215,1.222 0.172,1.219 0.121,1.227 0.07,1.238 0.027,1.234 -0.027,1.235 -0.07,1.234 -0.121,1.227 -0.172,1.226 -0.215,1.215 -0.266,1.211 -0.312,1.195 -0.356,1.18 -0.406,1.168 -0.453,1.152 -0.496,1.129 -0.535,1.114 -0.582,1.089 -0.629,1.067 -0.664,1.039 -0.707,1.016 -0.747,0.984 -0.781,0.957 -0.82,0.922 -0.859,0.89 -0.887,0.856 -0.926,0.824 -0.957,0.781 -0.984,0.746 -1.012,0.704 -1.039,0.668 -1.067,0.625 -1.093,0.582 -1.11,0.535 -1.133,0.496 -1.148,0.453 -1.168,0.406 -1.184,0.36 -1.195,0.308 -1.207,0.266 -1.219,0.219 -1.218,0.168 -1.231,0.125 -1.234,0.07 -1.235,0.023 -1.238,-0.023 -1.23,-0.07 z" /></g><g
       transform="translate(0,1271.0906)"
       id="g4683"><path
         inkscape:connector-curvature="0"
         id="path4685"
         style="fill:none;stroke:#00ff00;stroke-width:0.75;stroke-linecap:butt;stroke-linejoin:miter;stroke-miterlimit:4;stroke-dasharray:none;stroke-opacity:1"
         d="m 0.094,-1047.254 h 1699.84" /></g><g
       transform="translate(0,1274.0906)"
       id="g4687"><path
         inkscape:connector-curvature="0"
         id="path4689"
         style="fill:none;stroke:#00ff00;stroke-width:0.75;stroke-linecap:butt;stroke-linejoin:miter;stroke-miterlimit:4;stroke-dasharray:none;stroke-opacity:1"
         d="M 1491.246,-3.301 V -1045.762" /></g></g></svg>