<?xml version="1.0" encoding="UTF-8" standalone="no"?>
<!-- Created with Inkscape (http://www.inkscape.org/) -->

<svg
   xmlns:dc="http://purl.org/dc/elements/1.1/"
   xmlns:cc="http://creativecommons.org/ns#"
   xmlns:rdf="http://www.w3.org/1999/02/22-rdf-syntax-ns#"
   xmlns:svg="http://www.w3.org/2000/svg"
   xmlns="http://www.w3.org/2000/svg"
   xmlns:sodipodi="http://sodipodi.sourceforge.net/DTD/sodipodi-0.dtd"
   xmlns:inkscape="http://www.inkscape.org/namespaces/inkscape"
   version="1.1"
   id="svg2"
   xml:space="preserve"
   width="600mm"
   height="450mm"
   viewBox="0 0 2267.7165 1700.7874"
   sodipodi:docname="shelf2.svg"
   inkscape:version="0.92.3 (unknown)"><metadata
     id="metadata8"><rdf:RDF><cc:Work
         rdf:about=""><dc:format>image/svg+xml</dc:format><dc:type
           rdf:resource="http://purl.org/dc/dcmitype/StillImage" /><dc:title></dc:title></cc:Work></rdf:RDF></metadata><defs
     id="defs6" /><sodipodi:namedview
     pagecolor="#ffffff"
     bordercolor="#666666"
     borderopacity="1"
     objecttolerance="10"
     gridtolerance="10"
     guidetolerance="10"
     inkscape:pageopacity="0"
     inkscape:pageshadow="2"
     inkscape:window-width="1849"
     inkscape:window-height="1170"
     id="namedview4"
     showgrid="false"
     inkscape:document-units="mm"
     units="mm"
     inkscape:zoom="0.68567381"
     inkscape:cx="1256.2939"
     inkscape:cy="740.57643"
     inkscape:window-x="71"
     inkscape:window-y="30"
     inkscape:window-maximized="1"
     inkscape:current-layer="g10" /><g
     id="g10"
     inkscape:groupmode="layer"
     inkscape:label="shelf"
     transform="matrix(1.3333333,0,0,-1.3333333,0,1700.7874)"><g
       id="g12"
       transform="translate(6,232.5)"><g
         id="g14"
         transform="matrix(1,0,0,-1,0,1032.5609)"><path
           d="m 734.383,52.84 -0.207,-2.102 -0.289,-2.093 -0.375,-2.086 -0.453,-2.063 -0.532,-2.047 -0.617,-2.023 -0.691,-2 -0.77,-1.969 -0.847,-1.937 -0.926,-1.903 -0.996,-1.867 -1.071,-1.82 -1.136,-1.785 -1.211,-1.735 -1.278,-1.687 -1.339,-1.633 -1.407,-1.582 -1.465,-1.524 -1.523,-1.464 -1.582,-1.407 -1.633,-1.34 -1.687,-1.277 -1.735,-1.211 -1.785,-1.137 -1.82,-1.07 -1.867,-0.996 -1.903,-0.926 -1.937,-0.847 -1.969,-0.77 -2,-0.691 L 695.309,5.23 693.262,4.699 691.199,4.246 689.113,3.871 687.02,3.582 684.918,3.375 682.805,3.254 680.691,3.211 H 57.066 l -2.113,0.043 -2.113,0.121 -2.102,0.207 -2.093,0.289 -2.086,0.375 -2.063,0.453 -2.047,0.531 -2.023,0.618 -2,0.691 -1.969,0.77 -1.937,0.847 -1.903,0.926 -1.867,0.996 -1.82,1.07 -1.785,1.137 -1.735,1.211 -1.687,1.277 -1.633,1.34 -1.582,1.407 -1.524,1.464 -1.464,1.524 -1.407,1.582 -1.34,1.633 -1.277,1.687 -1.211,1.735 -1.137,1.785 -1.07,1.82 -0.996,1.867 -0.926,1.903 -0.847,1.937 -0.77,1.969 -0.691,2 -0.618,2.023 -0.531,2.047 -0.453,2.063 -0.375,2.086 -0.289,2.093 -0.207,2.102 -0.121,2.113 -0.043,2.113 v 918.426 l 0.043,2.117 0.121,2.11 0.207,2.105 0.289,2.094 0.375,2.082 0.453,2.066 0.531,2.047 0.618,2.024 0.691,1.996 0.77,1.972 0.847,1.938 0.926,1.902 0.996,1.864 1.07,1.824 1.137,1.781 1.211,1.738 1.277,1.684 1.34,1.637 1.407,1.578 1.464,1.527 1.524,1.465 1.582,1.406 1.633,1.34 1.687,1.277 1.735,1.207 1.785,1.141 1.82,1.07 1.867,0.996 1.903,0.926 1.937,0.848 1.969,0.769 2,0.692 2.023,0.617 2.047,0.531 2.063,0.453 2.086,0.372 2.093,0.289 2.102,0.207 2.113,0.125 2.113,0.043 h 623.625 l 2.114,-0.043 2.113,-0.125 2.102,-0.207 2.093,-0.289 2.086,-0.372 2.063,-0.453 2.047,-0.531 2.023,-0.617 2,-0.692 1.969,-0.769 1.937,-0.848 1.903,-0.926 1.867,-0.996 1.82,-1.07 1.785,-1.141 1.735,-1.207 1.687,-1.277 1.633,-1.34 1.582,-1.406 1.523,-1.465 1.465,-1.527 1.407,-1.578 1.339,-1.637 1.278,-1.688 1.211,-1.734 1.136,-1.781 1.071,-1.824 0.996,-1.864 0.926,-1.902 0.847,-1.938 0.77,-1.972 0.691,-1.996 0.617,-2.024 0.532,-2.047 0.453,-2.066 0.375,-2.082 0.289,-2.094 0.207,-2.105 0.121,-2.11 0.043,-2.117 V 57.066 l -0.043,-2.113 z"
           style="fill:none;stroke:#0000fe;stroke-width:0.75;stroke-linecap:butt;stroke-linejoin:miter;stroke-miterlimit:4;stroke-dasharray:none;stroke-opacity:1"
           id="path16"
           inkscape:connector-curvature="0" /></g><g
         id="g18"
         transform="matrix(1,0,0,-1,0,1032.5609)"><path
           d="m 183.09,155.543 -0.168,1.223 -0.219,1.218 -0.262,1.204 -0.312,1.199 -0.359,1.179 -0.407,1.168 -0.449,1.153 -0.496,1.129 -0.539,1.113 -0.582,1.09 -0.625,1.066 -0.664,1.039 -0.707,1.012 -0.746,0.988 -0.785,0.953 -0.821,0.926 -0.855,0.891 -0.891,0.855 -0.926,0.824 -0.953,0.782 -0.984,0.746 -1.016,0.703 -1.039,0.668 -1.066,0.625 -1.09,0.582 -1.113,0.539 -1.129,0.496 -1.153,0.449 -1.168,0.407 -1.179,0.355 -1.196,0.313 -1.207,0.269 -1.218,0.215 -1.223,0.168 -1.231,0.121 -1.234,0.074 -1.234,0.024 -1.235,-0.024 -1.234,-0.074 -1.23,-0.121 -1.223,-0.168 -1.215,-0.215 -1.207,-0.269 -1.195,-0.313 -1.184,-0.355 -1.168,-0.407 -1.148,-0.449 -1.133,-0.496 -1.113,-0.539 -1.09,-0.582 -1.067,-0.625 -1.039,-0.668 -1.011,-0.703 -0.989,-0.746 -0.953,-0.782 -0.926,-0.824 -0.89,-0.855 -94.774,-94.778 -0.859,-0.89 -0.82,-0.922 -0.782,-0.957 -0.746,-0.985 -0.707,-1.011 -0.664,-1.043 -0.629,-1.067 -0.578,-1.089 -0.539,-1.11 -0.496,-1.133 -0.453,-1.152 -0.406,-1.168 -0.356,-1.18 -0.312,-1.195 -0.266,-1.207 -0.215,-1.219 -0.172,-1.222 -0.121,-1.231 -0.07,-1.23 -0.027,-1.239 0.027,-1.234 0.07,-1.234 0.121,-1.231 0.172,-1.219 0.215,-1.218 0.266,-1.207 0.312,-1.196 0.356,-1.183 0.406,-1.168 0.453,-1.149 0.496,-1.132 0.539,-1.11 0.578,-1.094 0.629,-1.062 0.664,-1.043 0.707,-1.012 0.746,-0.984 0.782,-0.957 0.82,-0.926 0.859,-0.887 0.887,-0.859 0.926,-0.82 0.957,-0.782 0.984,-0.746 1.012,-0.707 1.039,-0.664 1.066,-0.629 1.094,-0.578 1.11,-0.539 1.132,-0.496 1.149,-0.453 1.168,-0.402 1.183,-0.36 1.196,-0.312 1.207,-0.266 1.218,-0.215 1.219,-0.172 1.231,-0.121 1.234,-0.07 1.234,-0.027 1.239,0.027 1.23,0.07 1.231,0.121 1.222,0.172 1.219,0.215 1.207,0.266 1.195,0.312 1.18,0.36 1.168,0.402 1.152,0.453 1.133,0.496 1.11,0.539 1.089,0.578 1.067,0.629 1.043,0.664 1.011,0.707 0.985,0.746 0.957,0.782 0.922,0.82 0.89,0.859 94.778,94.774 0.855,0.89 0.821,0.926 0.785,0.953 0.746,0.989 0.707,1.011 0.664,1.039 0.625,1.067 0.582,1.093 0.539,1.11 0.496,1.133 0.449,1.148 0.407,1.168 0.359,1.184 0.309,1.195 0.265,1.207 0.219,1.215 0.168,1.223 0.121,1.23 0.074,1.234 0.024,1.235 -0.024,1.238 -0.074,1.23 z"
           style="fill:none;stroke:#ff0000;stroke-width:0.75;stroke-linecap:butt;stroke-linejoin:miter;stroke-miterlimit:4;stroke-dasharray:none;stroke-opacity:1"
           id="path20"
           inkscape:connector-curvature="0" /></g><g
         id="g22"
         transform="matrix(1,0,0,-1,0,1032.5609)"><path
           d="m 711.938,60.766 -0.172,1.222 -0.215,1.219 -0.266,1.207 -0.312,1.195 -0.356,1.18 -0.406,1.168 -0.453,1.152 -0.496,1.133 -0.535,1.11 -0.582,1.089 -0.629,1.067 -0.664,1.043 -0.707,1.011 -0.747,0.985 -0.781,0.957 -0.82,0.922 -0.859,0.89 -94.774,94.778 -0.891,0.855 -0.925,0.824 -0.953,0.782 -0.989,0.746 -1.011,0.703 -1.04,0.668 -1.066,0.625 -1.09,0.582 -1.113,0.539 -1.133,0.496 -1.148,0.449 -1.168,0.407 -1.184,0.355 -1.195,0.313 -1.207,0.269 -1.215,0.215 -1.223,0.168 -1.23,0.121 -1.235,0.074 -1.234,0.024 -1.234,-0.024 -1.235,-0.074 -1.23,-0.121 -1.223,-0.168 -1.219,-0.215 -1.207,-0.269 -1.195,-0.313 -1.18,-0.355 -1.168,-0.407 -1.152,-0.449 -1.129,-0.496 -1.113,-0.539 -1.09,-0.582 -1.066,-0.625 -1.039,-0.668 -1.016,-0.703 -0.984,-0.746 -0.954,-0.782 -0.925,-0.824 -0.891,-0.855 -0.855,-0.891 -0.821,-0.922 -0.785,-0.957 -0.746,-0.988 -0.707,-1.012 -0.664,-1.039 -0.625,-1.066 -0.582,-1.09 -0.539,-1.113 -0.496,-1.129 -0.449,-1.153 -0.407,-1.168 -0.359,-1.179 -0.309,-1.199 -0.265,-1.204 -0.219,-1.218 -0.168,-1.223 -0.121,-1.231 -0.074,-1.23 -0.024,-1.238 0.024,-1.235 0.074,-1.234 0.121,-1.23 0.168,-1.223 0.219,-1.215 0.265,-1.207 0.309,-1.195 0.359,-1.184 0.407,-1.168 0.449,-1.148 0.496,-1.133 0.539,-1.11 0.582,-1.093 0.625,-1.067 0.664,-1.039 0.707,-1.011 0.746,-0.989 0.785,-0.953 0.821,-0.926 0.855,-0.89 94.777,-94.774 0.891,-0.859 0.922,-0.82 0.957,-0.782 0.984,-0.746 1.012,-0.707 1.043,-0.664 1.066,-0.629 1.09,-0.578 1.11,-0.539 1.132,-0.496 1.153,-0.453 1.168,-0.402 1.179,-0.36 1.196,-0.312 1.207,-0.266 1.219,-0.215 1.222,-0.172 1.231,-0.121 1.23,-0.07 1.238,-0.027 1.235,0.027 1.234,0.07 1.231,0.121 1.218,0.172 1.219,0.215 1.207,0.266 1.195,0.312 1.184,0.36 1.168,0.402 1.148,0.453 1.133,0.496 1.11,0.539 1.093,0.578 1.067,0.629 1.039,0.664 1.012,0.707 0.984,0.746 0.957,0.782 0.926,0.82 0.887,0.859 0.859,0.887 0.82,0.926 0.781,0.957 0.747,0.984 0.707,1.012 0.664,1.043 0.629,1.062 0.582,1.094 0.535,1.11 0.496,1.132 0.453,1.149 0.406,1.168 0.356,1.183 0.312,1.196 0.266,1.207 0.215,1.218 0.172,1.219 0.121,1.231 0.07,1.234 0.027,1.234 -0.027,1.239 -0.07,1.23 z"
           style="fill:none;stroke:#ff0000;stroke-width:0.75;stroke-linecap:butt;stroke-linejoin:miter;stroke-miterlimit:4;stroke-dasharray:none;stroke-opacity:1"
           id="path24"
           inkscape:connector-curvature="0" /></g><g
         id="g26"
         transform="matrix(1,0,0,-1,0,1032.5609)"><path
           d="m 53.367,1006.738 -1.219,-0.168 -1.218,-0.215 -1.207,-0.269 -1.196,-0.309 -1.183,-0.359 -1.168,-0.406 -1.149,-0.45 -1.132,-0.496 -1.11,-0.539 -1.094,-0.582 -1.066,-0.625 -1.039,-0.668 -1.012,-0.703 -0.984,-0.746 -0.957,-0.781 -0.926,-0.824 -0.887,-0.856 -0.859,-0.89 -0.82,-0.922 -0.782,-0.957 -0.746,-0.985 -0.707,-1.015 -0.664,-1.039 -0.629,-1.067 -0.578,-1.09 -0.539,-1.113 -0.496,-1.129 -0.453,-1.152 -0.406,-1.168 -0.356,-1.18 -0.312,-1.199 -0.266,-1.207 -0.215,-1.215 -0.172,-1.223 -0.121,-1.23 -0.07,-1.231 -0.027,-1.238 0.027,-1.234 0.07,-1.235 0.121,-1.23 0.172,-1.223 0.215,-1.218 0.266,-1.204 0.312,-1.195 0.356,-1.183 0.406,-1.168 0.453,-1.149 0.496,-1.133 0.539,-1.109 0.578,-1.094 0.629,-1.066 0.664,-1.039 0.707,-1.012 0.746,-0.988 0.782,-0.953 0.82,-0.926 0.859,-0.891 94.774,-94.773 0.89,-0.856 0.926,-0.824 0.953,-0.781 0.989,-0.746 1.011,-0.707 1.039,-0.664 1.067,-0.629 1.09,-0.578 1.113,-0.539 1.133,-0.497 1.148,-0.453 1.168,-0.402 1.184,-0.359 1.195,-0.313 1.207,-0.266 1.215,-0.214 1.223,-0.172 1.23,-0.121 1.234,-0.071 1.235,-0.023 1.234,0.023 1.234,0.071 1.231,0.121 1.223,0.172 1.218,0.214 1.207,0.266 1.196,0.313 1.179,0.359 1.168,0.402 1.153,0.453 1.129,0.497 1.113,0.539 1.09,0.578 1.066,0.629 1.039,0.664 1.016,0.707 0.984,0.746 0.953,0.781 0.926,0.824 0.891,0.856 0.855,0.89 0.821,0.922 0.785,0.957 0.746,0.985 0.707,1.011 0.664,1.043 0.625,1.067 0.582,1.09 0.539,1.109 0.496,1.133 0.449,1.152 0.407,1.168 0.359,1.18 0.309,1.195 0.265,1.207 0.219,1.219 0.168,1.223 0.121,1.226 0.074,1.234 0.024,1.239 -0.024,1.234 -0.074,1.235 -0.121,1.23 -0.168,1.219 -0.219,1.218 -0.265,1.207 -0.309,1.196 -0.359,1.183 -0.407,1.168 -0.449,1.149 -0.496,1.133 -0.539,1.109 -0.582,1.094 -0.625,1.062 -0.664,1.043 -0.707,1.012 -0.746,0.984 -0.785,0.957 -0.821,0.922 -0.855,0.891 -94.778,94.777 -0.89,0.856 -0.922,0.824 -0.957,0.781 -0.985,0.746 -1.011,0.703 -1.043,0.668 -1.067,0.625 -1.089,0.582 -1.11,0.539 -1.133,0.496 -1.152,0.45 -1.168,0.406 -1.18,0.359 -1.195,0.309 -1.207,0.269 -1.219,0.215 -1.222,0.168 -1.231,0.125 -1.23,0.071 -1.239,0.023 -1.234,-0.023 -1.234,-0.071 z"
           style="fill:none;stroke:#ff0000;stroke-width:0.75;stroke-linecap:butt;stroke-linejoin:miter;stroke-miterlimit:4;stroke-dasharray:none;stroke-opacity:1"
           id="path28"
           inkscape:connector-curvature="0" /></g><g
         id="g30"
         transform="matrix(1,0,0,-1,0,1032.5609)"><path
           d="m 676.992,1006.738 -1.222,-0.168 -1.219,-0.215 -1.207,-0.269 -1.196,-0.309 -1.179,-0.359 -1.168,-0.406 -1.153,-0.45 -1.132,-0.496 -1.11,-0.539 -1.09,-0.582 -1.066,-0.625 -1.043,-0.668 -1.012,-0.703 -0.984,-0.746 -0.957,-0.781 -0.922,-0.824 -0.891,-0.856 -94.777,-94.777 -0.855,-0.891 -0.821,-0.922 -0.785,-0.957 -0.746,-0.984 -0.707,-1.012 -0.664,-1.043 -0.625,-1.062 -0.582,-1.094 -0.539,-1.109 -0.496,-1.133 -0.449,-1.149 -0.407,-1.168 -0.359,-1.183 -0.309,-1.196 -0.265,-1.207 -0.219,-1.218 -0.168,-1.223 -0.121,-1.226 -0.074,-1.235 -0.024,-1.238 0.024,-1.235 0.074,-1.234 0.121,-1.226 0.168,-1.223 0.219,-1.219 0.265,-1.207 0.309,-1.195 0.359,-1.184 0.407,-1.168 0.449,-1.148 0.496,-1.133 0.539,-1.109 0.582,-1.094 0.625,-1.063 0.664,-1.043 0.707,-1.011 0.746,-0.985 0.785,-0.957 0.821,-0.922 0.855,-0.89 0.891,-0.856 0.925,-0.824 0.954,-0.781 0.984,-0.746 1.016,-0.707 1.039,-0.664 1.066,-0.629 1.09,-0.578 1.113,-0.539 1.129,-0.497 1.152,-0.453 1.168,-0.402 1.18,-0.359 1.195,-0.313 1.207,-0.266 1.219,-0.214 1.223,-0.172 1.23,-0.121 1.235,-0.071 1.234,-0.023 1.234,0.023 1.235,0.071 1.23,0.121 1.223,0.172 1.215,0.214 1.207,0.266 1.195,0.313 1.184,0.359 1.168,0.402 1.148,0.453 1.133,0.497 1.113,0.539 1.09,0.578 1.066,0.629 1.04,0.664 1.011,0.707 0.989,0.746 0.953,0.781 0.925,0.824 0.891,0.856 94.774,94.777 0.859,0.887 0.82,0.926 0.781,0.953 0.747,0.988 0.707,1.012 0.664,1.039 0.629,1.066 0.582,1.094 0.535,1.109 0.496,1.133 0.453,1.149 0.406,1.168 0.356,1.183 0.312,1.195 0.266,1.204 0.215,1.222 0.172,1.219 0.121,1.23 0.07,1.235 0.027,1.234 -0.027,1.238 -0.07,1.231 -0.121,1.23 -0.172,1.223 -0.215,1.215 -0.266,1.211 -0.312,1.195 -0.356,1.18 -0.406,1.168 -0.453,1.152 -0.496,1.129 -0.535,1.113 -0.582,1.09 -0.629,1.067 -0.664,1.039 -0.707,1.015 -0.747,0.985 -0.781,0.957 -0.82,0.922 -0.859,0.89 -0.887,0.856 -0.926,0.824 -0.957,0.781 -0.984,0.746 -1.012,0.703 -1.039,0.668 -1.067,0.625 -1.093,0.582 -1.11,0.539 -1.133,0.496 -1.148,0.45 -1.168,0.406 -1.184,0.359 -1.195,0.309 -1.207,0.269 -1.219,0.215 -1.218,0.168 -1.231,0.125 -1.234,0.071 -1.235,0.023 -1.238,-0.023 -1.23,-0.071 z"
           style="fill:none;stroke:#ff0000;stroke-width:0.75;stroke-linecap:butt;stroke-linejoin:miter;stroke-miterlimit:4;stroke-dasharray:none;stroke-opacity:1"
           id="path32"
           inkscape:connector-curvature="0" /></g></g><path
       style="fill:none;stroke:#00ff00;stroke-width:0.75px;stroke-linecap:butt;stroke-linejoin:miter;stroke-opacity:1"
       d="M 0.09377472,225.3366 H 1699.9355"
       id="path4589"
       inkscape:connector-curvature="0"
       sodipodi:nodetypes="cc" /><path
       style="fill:none;stroke:#00ff00;stroke-width:0.75px;stroke-linecap:butt;stroke-linejoin:miter;stroke-opacity:1"
       d="M 753.2463,1272.2897 V 229.82829"
       id="path4591"
       inkscape:connector-curvature="0"
       sodipodi:nodetypes="cc" /></g></svg>